<svg  id="svg" xmlns="http://www.w3.org/2000/svg" xmlns:xlink="http://www.w3.org/1999/xlink" width="145px" height="145px" viewBox="0, 0, 400,608.2101806239737"><g id="svgg"><path id="path0" d="M143.842 4.622 C 129.380 5.109,130.706 4.946,130.706 6.240 C 130.706 6.782,130.268 7.225,129.733 7.225 C 128.086 7.225,127.867 10.170,129.278 13.359 C 130.908 17.044,133.563 18.865,142.973 22.750 C 150.229 25.746,153.038 27.239,153.038 28.100 C 153.038 29.624,149.830 30.354,143.539 30.262 C 132.582 30.102,126.312 36.647,130.633 43.735 C 132.894 47.442,136.363 48.455,148.158 48.856 C 159.263 49.232,164.622 50.238,173.991 53.703 C 181.804 56.593,180.170 57.414,162.087 59.689 C 156.199 60.429,148.724 61.820,145.477 62.778 C 142.230 63.737,137.601 65.042,135.191 65.679 C 132.781 66.316,129.047 67.908,126.895 69.215 C 124.742 70.523,122.208 71.593,121.263 71.593 C 118.920 71.593,112.141 73.955,107.508 76.387 C 102.116 79.216,99.870 84.298,97.162 99.794 C 96.433 103.971,93.789 117.438,91.288 129.721 C 88.786 142.003,86.131 155.685,85.386 160.125 C 83.904 168.959,83.336 170.625,77.833 182.266 C 69.421 200.060,67.859 208.741,69.931 226.167 C 70.778 233.284,71.079 234.314,73.493 238.318 C 77.484 244.941,79.069 248.970,83.400 263.514 C 85.584 270.848,88.596 279.761,90.094 283.323 C 94.011 292.638,93.486 298.851,88.780 298.851 C 86.766 298.851,81.086 302.051,75.614 306.269 L 72.082 308.992 72.530 315.580 C 73.654 332.114,78.220 340.159,86.512 340.215 C 89.198 340.234,89.541 340.879,92.711 351.909 C 97.680 369.197,100.114 373.638,103.071 370.813 L 105.090 368.884 105.094 374.426 C 105.098 381.016,105.971 384.615,107.802 385.595 C 108.539 385.990,109.553 387.296,110.055 388.498 C 112.264 393.784,115.453 394.322,119.869 390.154 C 123.299 386.916,124.411 386.392,130.516 385.137 C 141.028 382.976,142.912 378.549,138.586 366.174 C 133.547 351.760,138.866 351.724,163.875 366.004 C 181.050 375.811,182.360 379.219,187.539 427.586 C 188.099 432.824,188.983 439.622,189.501 442.693 C 190.020 445.764,190.756 453.005,191.136 458.785 C 191.946 471.105,192.666 476.260,194.391 482.102 C 195.084 484.450,196.560 494.499,197.669 504.433 C 198.779 514.368,200.588 527.521,201.690 533.662 C 202.791 539.803,204.840 552.808,206.242 562.562 C 208.923 581.206,209.950 585.911,211.450 586.411 C 212.930 586.904,211.936 575.282,208.258 549.097 C 206.456 536.273,203.780 516.026,202.311 504.105 C 200.841 492.184,197.872 471.494,195.714 458.128 C 190.038 422.982,187.924 406.568,189.073 406.568 C 190.325 406.568,195.731 420.517,195.731 423.746 C 195.731 424.954,196.537 426.505,198.019 428.145 C 201.505 432.004,203.946 437.954,207.220 450.575 C 208.859 456.897,210.974 463.656,211.920 465.596 C 214.865 471.641,214.934 472.577,215.439 513.300 C 216.069 564.068,217.235 585.212,219.482 586.601 C 221.481 587.836,222.147 586.427,221.805 581.677 C 221.621 579.111,221.001 559.573,220.428 538.259 C 219.856 516.946,219.092 495.010,218.732 489.514 C 218.300 482.923,218.298 478.940,218.727 477.813 C 219.738 475.152,219.522 473.625,217.334 468.001 C 216.214 465.122,213.584 457.142,211.490 450.267 C 206.702 434.553,204.347 428.128,201.314 422.508 C 198.866 417.972,194.993 408.477,194.143 404.926 C 193.555 402.473,195.070 403.866,208.932 418.519 C 219.232 429.407,219.005 428.987,215.388 430.408 C 211.261 432.029,211.837 434.520,216.897 436.932 C 219.878 438.353,221.164 439.487,223.100 442.402 C 227.198 448.574,227.782 448.733,248.928 449.432 C 258.860 449.760,267.136 450.245,267.319 450.509 C 267.502 450.774,269.355 451.955,271.436 453.134 C 273.672 454.400,276.628 456.930,278.661 459.316 C 285.079 466.849,286.657 468.093,292.713 470.394 C 297.270 472.125,298.647 472.963,299.465 474.505 C 301.460 478.266,306.275 482.746,314.062 488.085 C 318.749 491.298,323.278 495.026,325.247 497.289 C 327.840 500.271,329.284 501.329,331.929 502.184 C 336.989 503.820,337.512 504.556,335.400 507.067 C 332.154 510.923,332.484 515.123,336.102 516.013 C 337.108 516.261,339.409 517.758,341.215 519.340 C 343.021 520.923,347.004 524.053,350.065 526.298 C 353.568 528.866,356.854 531.991,358.932 534.732 C 360.748 537.126,364.098 540.525,366.377 542.285 C 374.357 548.446,374.826 554.942,367.597 559.179 C 360.562 563.301,348.823 578.380,347.193 585.386 L 346.773 587.192 373.387 587.192 L 400.000 587.192 400.000 295.567 L 400.000 3.941 278.325 4.066 C 211.404 4.135,150.887 4.385,143.842 4.622 M119.574 114.485 C 121.967 119.757,120.380 129.998,117.223 129.653 C 113.677 129.265,109.946 117.532,111.241 110.841 L 111.717 108.382 115.020 110.055 C 117.570 111.348,118.608 112.357,119.574 114.485 M146.738 125.130 C 148.512 125.668,151.340 126.108,153.023 126.108 C 156.898 126.108,162.842 127.847,163.332 129.124 C 163.951 130.736,167.221 132.020,170.707 132.020 C 172.772 132.020,174.185 132.350,174.516 132.909 C 175.396 134.400,177.433 135.152,186.264 137.251 C 196.140 139.599,212.629 144.711,216.420 146.602 C 217.975 147.377,220.232 147.882,221.949 147.838 C 226.177 147.731,226.929 148.140,229.310 151.851 C 231.865 155.833,243.107 168.041,246.910 170.964 C 252.321 175.123,248.075 183.485,239.846 184.875 C 238.296 185.137,235.048 186.342,232.628 187.552 C 220.461 193.639,219.250 199.364,229.430 202.668 C 236.917 205.099,242.918 207.651,243.264 208.551 C 243.464 209.073,244.846 209.695,246.334 209.933 L 249.040 210.366 247.709 211.696 C 246.777 212.628,245.611 212.996,243.809 212.925 C 241.988 212.854,240.895 213.205,240.058 214.130 C 239.320 214.945,237.991 215.453,236.516 215.483 C 231.102 215.593,228.841 218.784,228.109 227.350 C 227.459 234.954,227.598 235.134,235.597 237.078 C 240.650 238.306,243.678 239.885,243.678 241.293 C 243.678 241.770,244.262 242.690,244.976 243.336 C 246.839 245.022,246.058 245.649,242.095 245.649 C 237.829 245.649,234.871 246.608,231.833 248.978 C 230.557 249.974,228.665 250.888,227.629 251.010 C 224.912 251.330,223.029 254.172,223.007 257.988 L 222.989 261.084 213.465 261.167 C 195.786 261.322,164.555 266.217,159.131 269.682 C 156.839 271.146,150.503 272.578,146.315 272.578 C 141.781 272.578,141.701 272.454,140.214 263.107 C 134.895 229.663,132.162 217.379,127.278 204.946 L 125.350 200.039 129.516 196.079 C 131.808 193.900,134.210 191.823,134.855 191.461 C 135.663 191.009,136.492 188.763,137.520 184.236 C 138.355 180.564,139.933 175.963,141.099 173.799 C 144.706 167.110,143.780 158.347,138.552 149.695 L 135.795 145.132 137.806 139.725 C 138.913 136.752,140.149 132.989,140.553 131.363 C 141.737 126.607,142.599 124.137,143.072 124.145 C 143.315 124.149,144.965 124.592,146.738 125.130 M242.313 301.093 C 242.883 301.604,245.271 302.656,247.619 303.431 C 251.071 304.570,262.726 309.905,262.726 310.346 C 262.726 310.408,261.617 311.626,260.263 313.051 C 258.078 315.351,253.530 322.853,253.530 324.159 C 253.530 324.431,255.378 324.463,257.635 324.230 L 261.741 323.806 259.590 325.122 C 258.406 325.845,257.128 327.250,256.749 328.243 L 256.060 330.049 254.740 328.243 C 251.549 323.874,249.912 326.944,250.885 335.474 C 251.853 343.962,253.093 347.014,257.066 350.691 L 258.788 352.285 256.336 353.660 C 254.987 354.417,253.513 355.769,253.060 356.664 C 252.269 358.228,252.236 358.236,252.226 356.853 C 252.216 355.238,251.212 354.306,250.581 355.326 C 248.858 358.114,242.803 355.365,243.138 351.948 C 243.394 349.337,241.692 348.642,239.624 350.513 C 238.893 351.174,237.643 351.630,236.845 351.525 C 235.847 351.394,235.115 351.857,234.499 353.007 C 233.373 355.112,232.823 355.107,231.430 352.982 C 229.997 350.795,229.387 341.730,230.530 339.595 C 230.977 338.759,231.424 334.870,231.540 330.789 C 232.132 310.051,237.081 296.407,242.313 301.093 M202.863 308.902 C 203.275 309.695,204.207 312.104,204.935 314.253 C 205.664 316.403,206.615 318.381,207.049 318.649 C 207.531 318.947,208.137 322.560,208.606 327.929 C 209.131 333.937,209.751 337.432,210.566 338.968 C 212.431 342.483,212.153 355.337,210.212 355.337 C 209.882 355.337,209.412 354.705,209.167 353.934 C 208.922 353.162,205.799 349.488,202.226 345.769 C 198.654 342.050,195.731 338.552,195.731 337.994 C 195.731 337.416,193.419 335.648,190.347 333.876 C 180.664 328.291,173.140 319.183,176.300 316.872 C 176.907 316.428,179.385 315.699,181.806 315.253 C 187.710 314.165,191.308 312.735,196.267 309.508 C 200.646 306.658,201.651 306.566,202.863 308.902 M255.579 372.578 C 255.728 374.157,255.391 375.245,254.464 376.171 C 251.755 378.881,253.576 387.151,257.307 389.078 C 259.772 390.352,259.970 391.121,258.128 392.271 C 256.519 393.275,256.487 394.068,257.951 396.620 C 259.051 398.537,259.039 398.703,257.553 401.763 C 253.664 409.776,241.482 425.173,240.631 423.153 C 240.440 422.701,239.423 422.332,238.371 422.332 C 230.640 422.332,218.825 393.800,223.562 386.570 C 225.272 383.960,235.788 379.244,247.850 375.678 C 250.859 374.788,253.318 373.654,253.755 372.955 C 254.621 371.569,255.466 371.394,255.579 372.578 M264.327 410.709 C 264.842 418.018,265.855 421.975,267.973 424.949 C 269.917 427.678,269.502 427.917,262.834 427.904 C 253.426 427.885,252.207 427.146,255.172 423.259 C 257.315 420.450,257.243 420.106,254.783 421.378 C 253.666 421.956,252.572 422.249,252.354 422.031 C 251.795 421.472,255.631 413.885,259.596 407.704 C 263.502 401.614,263.694 401.736,264.327 410.709 " stroke="none" fill="#000000" fill-rule="evenodd"></path></g></svg>