<svg  id="svg" xmlns="http://www.w3.org/2000/svg" xmlns:xlink="http://www.w3.org/1999/xlink" width="145px" height="145px" viewBox="0, 0, 400,720"><g id="svgg"><path id="path0" d="M5.818 361.818 L 5.818 704.000 30.545 704.000 L 55.273 704.000 55.273 699.380 C 55.273 694.632,55.172 694.868,60.088 688.138 C 60.917 687.004,61.516 684.051,61.934 679.047 C 63.710 657.759,64.607 652.755,66.750 652.195 C 67.756 651.931,68.281 650.227,69.264 644.032 C 70.833 634.143,72.080 631.849,76.278 631.133 C 77.995 630.839,81.580 629.362,84.245 627.849 C 91.450 623.759,92.641 623.351,99.894 622.486 C 122.360 619.806,124.514 617.743,121.091 602.182 C 119.766 596.160,119.746 596.433,121.478 596.886 C 124.614 597.706,127.431 592.886,125.095 590.699 C 124.364 590.015,123.466 588.309,123.101 586.909 C 122.470 584.496,122.268 584.361,119.218 584.312 C 113.468 584.219,113.849 584.778,112.316 574.196 C 110.873 564.238,109.282 520.972,110.321 519.934 C 111.152 519.102,125.377 527.673,145.552 541.159 C 168.999 556.833,195.848 561.113,212.364 551.809 C 217.944 548.665,225.504 543.468,226.665 541.977 C 227.743 540.592,227.493 540.389,232.213 546.473 C 233.801 548.520,234.752 549.088,236.576 549.080 C 239.806 549.064,241.554 547.883,239.841 546.872 C 238.921 546.330,238.705 545.566,239.023 543.977 C 239.393 542.125,239.235 541.818,237.909 541.818 C 236.070 541.818,235.953 540.572,237.455 536.979 C 238.055 535.543,238.545 533.760,238.545 533.017 C 238.545 531.345,243.410 528.727,246.516 528.727 C 248.359 528.727,248.727 529.015,248.727 530.456 C 248.727 531.407,249.177 532.559,249.727 533.015 C 250.415 533.586,250.614 534.850,250.365 537.059 C 247.886 559.052,290.789 564.290,294.286 542.421 C 294.812 539.131,295.068 539.094,301.091 541.455 C 308.665 544.423,310.156 543.830,305.761 539.597 C 301.159 535.165,292.456 520.106,289.009 510.608 C 288.077 508.042,286.488 505.078,285.476 504.022 C 281.989 500.383,283.139 498.945,294.545 492.687 C 317.154 480.283,345.837 455.555,346.722 447.706 C 347.998 436.383,321.728 374.441,304.448 348.028 C 296.212 335.440,296.028 334.469,301.253 331.171 C 319.864 319.422,315.113 288.081,293.091 277.328 C 280.637 271.247,261.316 273.673,253.818 282.259 C 251.537 284.871,250.788 285.241,246.612 285.821 C 241.827 286.485,240.758 287.228,240.738 289.902 C 240.718 292.666,235.443 302.080,231.967 305.557 C 226.955 310.569,226.715 314.393,231.224 317.422 C 238.063 322.017,246.978 344.727,241.943 344.727 C 236.295 344.727,218.754 333.130,208.364 322.527 C 185.591 299.287,182.508 295.773,178.553 288.546 C 173.603 279.499,169.574 273.876,160.835 263.823 C 129.481 227.750,118.721 210.896,122.757 204.180 C 123.538 202.881,124.398 200.883,124.668 199.739 C 124.938 198.595,126.792 195.933,128.788 193.822 C 133.573 188.763,133.708 188.129,134.614 166.545 C 135.509 145.215,135.172 138.791,132.708 130.182 C 130.579 122.744,129.469 113.565,129.461 103.332 C 129.457 99.165,129.097 93.704,128.661 91.196 C 127.733 85.869,129.593 77.055,134.243 64.746 C 137.443 56.273,144.000 26.581,144.000 20.564 C 144.000 19.819,130.427 19.636,74.909 19.636 L 5.818 19.636 5.818 361.818 M114.073 236.545 C 115.638 238.645,122.243 249.200,128.749 260.000 C 142.358 282.592,144.055 285.156,151.611 294.545 C 154.668 298.345,161.133 307.345,165.975 314.545 C 180.641 336.350,188.506 346.338,201.245 359.335 L 213.067 371.396 207.871 378.244 C 198.744 390.269,197.431 396.636,201.944 406.968 C 205.112 414.220,205.276 416.308,203.724 429.675 C 201.891 445.465,202.761 445.402,192.357 430.499 C 178.246 410.286,166.043 398.515,154.803 394.274 C 150.644 392.705,128.555 410.743,123.299 420.000 C 117.948 429.426,113.511 435.406,101.818 448.950 L 96.364 455.269 91.564 455.271 C 88.925 455.272,84.302 455.065,81.293 454.810 L 75.820 454.348 75.345 448.447 C 74.806 441.748,75.589 436.613,78.126 430.216 C 79.085 427.797,80.697 421.377,81.708 415.948 C 82.719 410.519,84.565 403.156,85.812 399.584 C 87.134 395.796,87.927 392.302,87.715 391.197 C 87.511 390.135,87.825 388.626,88.429 387.763 C 89.383 386.402,89.380 385.781,88.402 382.385 C 87.793 380.273,86.633 372.655,85.822 365.455 C 85.012 358.255,83.534 347.900,82.538 342.444 C 79.879 327.876,79.931 327.184,85.174 307.661 C 89.354 292.098,88.909 288.086,82.786 286.143 C 81.338 285.683,81.338 285.673,82.761 284.677 C 83.656 284.049,84.382 282.410,84.699 280.301 C 85.069 277.834,85.873 276.261,87.693 274.440 C 89.062 273.071,90.182 271.538,90.182 271.033 C 90.182 270.527,91.632 267.906,93.404 265.208 C 96.016 261.230,96.555 259.861,96.251 257.969 C 95.942 256.048,96.531 254.634,99.588 249.956 C 101.630 246.832,104.607 241.678,106.204 238.502 C 109.637 231.672,110.314 231.504,114.073 236.545 M314.182 438.574 C 314.182 441.070,291.321 470.769,284.174 477.558 C 270.204 490.828,262.668 490.923,263.532 477.818 C 264.378 464.993,273.804 447.392,297.081 415.171 L 299.980 411.158 307.081 424.616 C 310.986 432.018,314.182 438.299,314.182 438.574 M149.229 455.755 C 155.080 468.242,153.404 472.008,144.083 467.315 C 141.258 465.892,138.119 464.727,137.109 464.727 C 134.103 464.727,136.137 460.008,141.008 455.684 C 141.879 454.911,143.263 453.192,144.083 451.866 C 146.047 448.687,145.845 448.534,149.229 455.755 M73.049 534.000 C 73.201 534.500,74.967 539.982,76.974 546.182 C 83.870 567.488,86.846 582.421,84.101 581.949 C 83.356 581.822,81.975 582.442,81.031 583.329 C 78.798 585.427,77.668 584.537,75.622 579.069 C 72.082 569.605,68.682 535.924,71.030 533.576 C 71.797 532.809,72.748 533.009,73.049 534.000 " stroke="none" fill="#000000" fill-rule="evenodd"></path></g></svg>