<?xml version="1.0"?>
<svg xmlns:rdf="http://www.w3.org/1999/02/22-rdf-syntax-ns#" xmlns="http://www.w3.org/2000/svg" xmlns:cc="http://creativecommons.org/ns#" xmlns:xlink="http://www.w3.org/1999/xlink" xmlns:dc="http://purl.org/dc/elements/1.1/" xmlns:svg="http://www.w3.org/2000/svg" id="svg3305" width="145px" height="145px" viewBox="0 0 414.38 270" version="1.1">
  <defs id="defs3307">
    <linearGradient id="linearGradient3139" x1="314.26" xlink:href="#linearGradient4081" gradientUnits="userSpaceOnUse" y1="1210.9" gradientTransform="matrix(.40651 0 0 .43912 117.48 734.13)" x2="462.87" y2="1210.9"/>
    <linearGradient id="linearGradient4081">
      <stop id="stop4083" stop-color="#636163" offset="0"/>
      <stop id="stop4085" stop-color="#636163" stop-opacity="0" offset="1"/>
    </linearGradient>
    <linearGradient id="linearGradient3199" x1="314.26" xlink:href="#linearGradient4081" gradientUnits="userSpaceOnUse" y1="1210.9" gradientTransform="matrix(.40651 0 0 .43912 401.92 731.33)" x2="462.87" y2="1210.9"/>
    <linearGradient id="linearGradient3235" x1="457.63" gradientUnits="userSpaceOnUse" y1="717.04" gradientTransform="matrix(.39194 0 0 .39194 127.58 794.54)" x2="1016.2" y2="717.04">
      <stop id="stop4040" stop-color="#ececec" offset="0"/>
      <stop id="stop4042" stop-color="#ececec" stop-opacity="0" offset="1"/>
    </linearGradient>
    <filter id="filter3873" width="1.0332" y="-.28084" x="-.016576" height="1.5617" color-interpolation-filters="sRGB">
      <feGaussianBlur id="feGaussianBlur3875" stdDeviation="4.2804102"/>
    </filter>
    <filter id="filter3847" color-interpolation-filters="sRGB">
      <feGaussianBlur id="feGaussianBlur3849" stdDeviation="4.6412023"/>
    </filter>
    <radialGradient id="radialGradient3193" gradientUnits="userSpaceOnUse" cy="1028.1" cx="718.22" gradientTransform="matrix(.39194 0 0 .72289 127.58 454.3)" r="43.781">
      <stop id="stop3855" stop-color="#fefefe" offset="0"/>
      <stop id="stop3857" stop-color="#fefefe" stop-opacity="0" offset="1"/>
    </radialGradient>
    <linearGradient id="linearGradient3188" x1="708.87" gradientUnits="userSpaceOnUse" y1="1066.1" gradientTransform="matrix(.39194 0 0 .45167 127.58 731.43)" x2="705.35" y2="1122.7">
      <stop id="stop3911" stop-color="#fff" offset="0"/>
      <stop id="stop3913" stop-color="#fff" stop-opacity="0" offset="1"/>
    </linearGradient>
    <filter id="filter4014" width="1.0218" y="-.25308" x="-.010884" height="1.5062" color-interpolation-filters="sRGB">
      <feGaussianBlur id="feGaussianBlur4016" stdDeviation="4.260834"/>
    </filter>
    <radialGradient id="radialGradient3184" xlink:href="#linearGradient3881" gradientUnits="userSpaceOnUse" cy="1100.8" cx="492.87" gradientTransform="matrix(.39184 -.0088934 .020180 .88914 102.04 268.77)" r="37.415"/>
    <linearGradient id="linearGradient3881">
      <stop id="stop3883" stop-color="#fff" offset="0"/>
      <stop id="stop3885" stop-color="#fff" stop-opacity="0" offset="1"/>
    </linearGradient>
    <radialGradient id="radialGradient3178" xlink:href="#linearGradient3881" gradientUnits="userSpaceOnUse" cy="1111" cx="1038.4" gradientTransform="matrix(.39184 -.0088934 .020180 .88914 101.92 263.4)" r="37.415"/>
    <radialGradient id="radialGradient3205" gradientUnits="userSpaceOnUse" cy="1013" cx="717.27" gradientTransform="matrix(.39194 0 0 1.5188 127.58 -346.9)" r="8.0812">
      <stop id="stop3968" stop-color="#fff" offset="0"/>
      <stop id="stop3970" stop-color="#fff" stop-opacity="0" offset="1"/>
    </radialGradient>
    <filter id="filter4028" width="1.0829" y="-.18641" x="-.041455" height="1.3728" color-interpolation-filters="sRGB">
      <feGaussianBlur id="feGaussianBlur4030" stdDeviation="5.4438508"/>
    </filter>
    <radialGradient id="radialGradient3200" xlink:href="#linearGradient4127" gradientUnits="userSpaceOnUse" cy="852.35" cx="1135.4" gradientTransform="matrix(.39194 0 0 .37891 127.58 805.64)" r="60.765"/>
    <linearGradient id="linearGradient4127">
      <stop id="stop4129" stop-color="#aaa8a8" offset="0"/>
      <stop id="stop4131" stop-color="#aaa8a8" stop-opacity="0" offset="1"/>
    </linearGradient>
    <radialGradient id="radialGradient3197" xlink:href="#linearGradient4127" gradientUnits="userSpaceOnUse" cy="852.35" cx="1135.4" gradientTransform="matrix(.39194 0 0 .37891 -192.69 807.88)" r="60.765"/>
  </defs>
  <g id="layer1" transform="translate(-338.52 -394.51)">
    <g id="g3145" transform="translate(128.72 -642.17)">
      <path id="rect4054" fill="#010001" d="m254.15 1225.1h39.079c1.0786 0 1.7435 0.959 1.947 2.1032 4.0405 22.721 21.359 42.254 0 71.072-0.67416 0.9096-0.96992 1.6097-1.947 2.1033-11.912 6.0173-24.118 10.45-39.079 0-0.90579-0.6327-1.4561-1.0657-1.947-2.1033-11.211-23.691-7.1812-47.381 0-71.072 0.33565-1.1073 0.86837-2.1032 1.947-2.1032z"/>
      <path id="path4079" opacity=".73451" fill="url(#linearGradient3139)" d="m254.15 1225.1h39.079c1.0786 0 1.7435 0.959 1.947 2.1032 4.0405 22.721 21.359 42.254 0 71.072-0.67416 0.9096-0.96992 1.6097-1.947 2.1033-11.912 6.0173-24.118 10.45-39.079 0-0.90579-0.6327-1.4561-1.0657-1.947-2.1033-11.211-23.691-7.1812-47.381 0-71.072 0.33565-1.1073 0.86837-2.1032 1.947-2.1032z"/>
      <path id="path4077" opacity=".74336" transform="matrix(.13008 0 0 .39920 257.22 689.72)" d="m274.29 1409.5c0 34.715-15.99 62.857-35.714 62.857s-35.714-28.142-35.714-62.857 15.99-62.857 35.714-62.857 35.714 28.142 35.714 62.857z"/>
      <path id="rect3828" opacity=".78761" fill="#07100c" d="m284.44 1137.3h272.25c0.9176 0 1.6563 0.7387 1.6563 1.6563v86.957c0 0.9176-0.73873 1.6563-1.6563 1.6563h-272.25c-0.91759 0-1.6563-0.7387-1.6563-1.6563v-86.957c0-0.9176 0.73872-1.6563 1.6563-1.6563z"/>
      <path id="path3026" stroke="#000" stroke-width=".39194px" fill="#4eb47f" d="m231.31 1213.3c0.42884-22.072 1.5447-44.832 0-64.931-26.731-45.103 25.25-56.717 61.763-43.551l-0.79184 47.51c-15.06 22.172-9.218 44.343 0.79184 66.514-22.525 8.807-43.456 8.8452-61.763-5.5429z"/>
      <path id="path4109" fill="#010001" d="m538.59 1222.3h39.079c1.0786 0 1.7435 0.959 1.947 2.1033 4.0405 22.721 21.359 42.254 0 71.072-0.67417 0.9096-0.96992 1.6097-1.947 2.1032-11.912 6.0173-24.118 10.45-39.079 0-0.9058-0.6326-1.4561-1.0657-1.947-2.1032-11.211-23.691-7.1812-47.381 0-71.072 0.33566-1.1074 0.86837-2.1033 1.947-2.1033z"/>
      <path id="path4111" opacity=".73451" fill="url(#linearGradient3199)" d="m538.59 1222.3h39.079c1.0786 0 1.7435 0.959 1.947 2.1033 4.0405 22.721 21.359 42.254 0 71.072-0.67417 0.9096-0.96992 1.6097-1.947 2.1032-11.912 6.0173-24.118 10.45-39.079 0-0.9058-0.6326-1.4561-1.0657-1.947-2.1032-11.211-23.691-7.1812-47.381 0-71.072 0.33566-1.1074 0.86837-2.1033 1.947-2.1033z"/>
      <path id="path3028" stroke="#000" stroke-width=".39194px" fill="#4eb47f" d="m603.07 1214.1c-6.6464-21.38-8.349-42.759-8.7102-64.139 17.761-42.11-18.58-60.702-57.012-43.551l0.79183 47.51c15.06 22.172 9.218 44.343-0.79183 66.514 22.525 8.8069 47.415 8.0534 65.722-6.3348z"/>
      <path id="path3974" fill="#4eb47f" d="m536.17 1108.1c-7.4941 0.9515-27.554-3.2256-46.046-2.9026s-40.96 0.395-64.355 0.3423c-23.395-0.053-47.718-0.2298-69.922-0.4051-22.203-0.1754-42.287-0.3489-57.204-0.3941 5.2742-18.23 10.659-44.733 29.346-53.28 22.343-10.22 55.551-14.488 84.802-14.757 29.251-0.2693 81.589 3.2932 90.871 12.579 14.119 14.125 24.745 35.652 32.508 58.818z"/>
      <path id="rect3825" opacity=".78761" fill="#545454" d="m327.92 1056c38.956-17.951 169.98-9.1767 173.41 0.7918 16.484 13.426 21.783 32.395 24.547 46.911-28.24 3.2076-162.34 1.3252-218.55 1.1727-3.3251-4.6491 15.807-48.768 20.588-48.875z"/>
      <path id="path4036" opacity=".78761" fill="url(#linearGradient3235)" d="m327.92 1056c38.956-17.951 169.98-9.1767 173.41 0.7918 16.484 13.426 21.783 32.395 24.547 46.911-28.24 3.2076-162.34 1.3252-218.55 1.1727-3.3251-4.6491 15.807-48.768 20.588-48.875z"/>
      <path id="path3030" stroke="#000" stroke-width=".34902px" fill="#4eb47f" d="m293.07 1105.6c77.946-47.28 180.73-40.443 243.89 0.7919l3.1673 48.297c-82.087-22.434-168.13-23.069-250.22-3.1396z"/>
      <path id="path3980" opacity=".78761" d="m276.51 1128.6c0 12.716-10.663 23.024-23.816 23.024s-23.816-10.308-23.816-23.024 10.663-23.024 23.816-23.024 23.816 10.308 23.816 23.024z" stroke="#858585" stroke-width="6.7806" fill="#fffcfc"/>
      <path id="path3032" opacity=".78761" fill="#fffcfc" d="m276.51 1128.6c0 12.716-10.663 23.024-23.816 23.024s-23.816-10.308-23.816-23.024 10.663-23.024 23.816-23.024 23.816 10.308 23.816 23.024z"/>
      <path id="path3982" opacity=".78761" d="m596.33 1128.6c0 12.716-10.663 23.024-23.816 23.024s-23.816-10.308-23.816-23.024 10.663-23.024 23.816-23.024 23.816 10.308 23.816 23.024z" stroke="#858585" stroke-width="6.7806" fill="#fffcfc"/>
      <path id="path3035" opacity=".78761" fill="#fffcfc" d="m596.41 1128.6c0 12.716-10.663 23.024-23.816 23.024s-23.816-10.308-23.816-23.024 10.663-23.024 23.816-23.024 23.816 10.308 23.816 23.024z"/>
      <path id="path3037" opacity=".78761" fill="#fffcfc" d="m277.59 1192.5c0 7.0256-5.4562 12.721-12.187 12.721-6.7306 0-12.187-5.6955-12.187-12.721 0-7.0257 5.4562-12.721 12.187-12.721 6.7306 0 12.187 5.6954 12.187 12.721z"/>
      <path id="path3039" opacity=".78761" fill="#fffcfc" d="m577.61 1191.2c0 6.2707-5.2607 11.354-11.75 11.354-6.4894 0-11.75-5.0835-11.75-11.354 0-6.2708 5.2607-11.354 11.75-11.354 6.4894 0 11.75 5.0834 11.75 11.354z"/>
      <path id="path3041" style="block-progression:tb;color:#000000;text-transform:none;text-indent:0" fill="#808080" d="m280.58 1164.4-19.891 4.4215c-5.7992 0.4052-10.7 3.557-14.098 7.7408-3.507 4.3182-5.6484 9.7437-6.2098 15.273-0.5614 5.5298 0.48515 11.306 3.9929 15.861 3.5077 4.555 9.4803 7.4285 17.049 7.3734l293.35-1.5801c14.964 3.249 25.913 2.2818 33.364-1.7881 7.5383-4.118 10.68-11.847 9.676-19.144-3.1224-22.691-26.01-26.996-41.489-28.92-9.02-19.236-238.52-29.159-275.75 0.7619zm24.613-3.1533c73.897-13.351 242.54-8.7981 253.3 11.834 7.4472 6.3841 18.768-7.1508 31.136 20.85 0.70976 4.2576-0.57678 7.7964-5.4749 10.472-4.8981 2.6757-14.03 4.0046-28.073 0.8818l-0.46547-0.1102-0.46539 0.012-293.77 1.5801c-5.6016 0.041-8.543-1.6985-10.423-4.1399-1.8801-2.4415-2.6992-6.0388-2.3026-9.9454 0.39661-3.9066 2.0372-7.9707 4.3971-10.876 2.3598-2.9056 5.2187-4.6134 8.5124-4.74l0.37969-0.012 0.36745-0.086 21.373-4.7523 1.2983-0.2817 0.88186-0.9798c8.0366-5.835 19.334-9.706 19.334-9.706z"/>
      <path id="rect3815" opacity=".78761" fill-opacity=".99216" fill="#747574" d="m278.03 1182.5c87.587-18.312 177.41-17.582 269.22 0 0.86171 0.165 1.5837 0.7063 1.5837 1.5836v1.5837c0 0.8774-0.70804 1.5289-1.5837 1.5837-90.879 5.6878-180.45 4.8563-269.22 0-0.87605-0.048-1.5837-0.7063-1.5837-1.5837v-1.5837c0-0.8773 0.72488-1.4041 1.5837-1.5836z"/>
      <path id="path3861" opacity=".37611" d="m707.47 965.44c-97.429 1.0168-194.87 9.4411-290.53 28.094 206.4 10.308 413.38 12.133 619.75 0.125-108.63-19.03-218.89-28.97-329.23-28.22z" fill-opacity=".99216" transform="matrix(.39194 0 0 .39194 127.58 794.54)" filter="url(#filter3873)" fill="#f9fbf9"/>
      <path id="path3831" style="block-progression:tb;color:#000000;text-transform:none;text-indent:0" d="m699.84 897.57c-84.932 1.3943-170.72 4.6654-253.56 24.504-19.21 4.7846-37.84 12.294-54.408 23.121-12.063 3.7917-24.83 5.3826-37.077 8.7468-14.79 2.7004-31.263 4.4724-42.048 15.878-17.656 17.273-24.661 45.873-14.875 68.75 6.7293 14.846 22.52 23.977 38.594 24.156 20.032 1.2218 40.102-0.7285 60.156 0 231.52-1.2191 463.05-2.5893 694.56-3.628 27.556 5.7114 58.835 9.3142 84.031-5.7812 18.229-10.796 23.243-35.588 15.594-54.5-7.8236-24.12-30.763-40.034-54.469-46.563-14.998-4.5938-30.652-7.082-46.25-8.8438-6.4057-12.051-21.601-13.35-33.185-17.476-58.924-15.305-120.03-19.092-180.56-23.834-58.749-3.694-117.64-5.2882-176.5-4.5312zm26.875 8.8438c104.53 0.47499 209.82 2.7882 312.73 22.61 20.262 4.458 41.15 9.7998 58.302 21.765 4.205 4.3707 8.2765 10.473 15.188 9.9375 12.55 0.98073 26.356-1.081 37.25 6.5625 17.578 10.771 28.259 30.036 34.906 48.938 2.688 15.738-10.014 30.113-24.656 33.969-23.075 8.4399-48.17 3.0935-71.749-0.2094-188.71 0.5952-377.44 2.0614-566.16 2.8928-63.379 0.1926-126.81 0.8819-190.16 0.5666-16.167-1.7564-29.676-16.455-29.469-32.781-1.6255-21.181 9.1017-44.413 29.344-52.625 12.763-3.2808 25.99-4.8363 38.634-8.4274 10.127-2.7738 21.265-3.0783 30.445-8.3317 15.583-11.675 33.757-19.804 52.39-25.522 29.485-5.8244 59.459-8.5403 89.402-11.556 61.036-5.4975 122.34-7.3361 183.6-7.7882z" transform="matrix(.39194 0 0 .39194 127.58 794.54)" filter="url(#filter3847)" fill="#f7f7f7"/>
      <path id="rect3818" opacity=".78761" fill="#808080" d="m393.63 1165.8c-0.87735 0-2.0454 0.8363-1.58 1.58 5.2864 8.4471 6.6265 16.894 0 25.341-0.54152 0.6903 0.70265 1.58 1.58 1.58 13.256 1.4486 1.4198 27.857 10.497 34.797l9.9087-0.5512c12.456-6.4797-3.9349-34.246 10.484-34.246 0.87736 0 2.021-0.8215 1.58-1.58-4.9111-8.4471-6.958-16.894 0-25.341 0.55781-0.6772-0.70265-1.58-1.58-1.58z"/>
      <path id="path3851" opacity=".78761" fill="url(#radialGradient3193)" d="m393.63 1165.8c-0.87735 0-2.0454 0.8363-1.58 1.58 5.2864 8.4471 6.6265 16.894 0 25.341-0.54152 0.6903 0.70265 1.58 1.58 1.58 13.256 1.4486 1.4198 27.857 10.497 34.797l9.9087-0.5512c12.456-6.4797-3.9349-34.246 10.484-34.246 0.87736 0 2.021-0.8215 1.58-1.58-4.9111-8.4471-6.958-16.894 0-25.341 0.55781-0.6772-0.70265-1.58-1.58-1.58z"/>
      <path id="path4113" opacity=".74336" transform="matrix(.13008 0 0 .39920 543.22 686.92)" fill="#919191" d="m274.29 1409.5c0 34.715-15.99 62.857-35.714 62.857s-35.714-28.142-35.714-62.857 15.99-62.857 35.714-62.857 35.714 28.142 35.714 62.857z"/>
      <path id="path3019" fill="#d6d6d6" d="m213.89 1249.6c14.253 20.988 408.6 27.399 398.29 3.65 12.796-3.7548 20.453-29.689-5.5429-44.713 4.2231 22.813-389.17 25.385-384.04 0-18.932 5.4751-11.673 27.376-8.7102 41.063z"/>
      <path id="path3907" stroke="#7a7a7a" stroke-width=".42075" fill="url(#linearGradient3188)" d="m213.89 1249.6c14.253 20.988 408.6 27.399 398.29 3.65 12.796-3.7548 20.453-29.689-5.5429-44.713 4.2231 22.813-389.17 25.385-384.04 0-18.932 5.4751-11.673 27.376-8.7102 41.063z"/>
      <path id="path3984" d="m256.58 1090.7c31.77 54.349 952.79 53.399 939.44 0" transform="matrix(.39194 0 0 .39194 127.58 794.54)" filter="url(#filter4014)" stroke="#fff" stroke-dasharray="3.04999995, 3.04999995" stroke-width="6.1" fill="none"/>
      <path id="path3021" opacity=".78761" fill="#545454" d="m330.61 1231.3c-6.9032 9.9202-3.5187 44.942-12.044 45.135-8.5255 0.1935-5.909-33.517-14.888-45.248-4.7524-6.2089 4.0604-21.076 12.586-21.269 8.5255-0.1935 18.812 14.964 14.346 21.382z"/>
      <path id="path3877" opacity=".78761" fill="url(#radialGradient3184)" d="m330.61 1231.3c-6.9032 9.9202-3.5187 44.942-12.044 45.135-8.5255 0.1935-5.909-33.517-14.888-45.248-4.7524-6.2089 4.0604-21.076 12.586-21.269 8.5255-0.1935 18.812 14.964 14.346 21.382z"/>
      <path id="path3024" opacity=".78761" fill="#545454" d="m544.43 1230.1c-6.9032 9.9202-3.5187 44.942-12.044 45.135-8.5255 0.1935-5.909-33.517-14.888-45.247-4.7524-6.209 4.0604-21.076 12.586-21.269 8.5255-0.1935 18.812 14.964 14.346 21.382z"/>
      <path id="path3879" opacity=".78761" fill="url(#radialGradient3178)" d="m544.43 1230.1c-6.9032 9.9202-3.5187 44.942-12.044 45.135-8.5255 0.1935-5.909-33.517-14.888-45.247-4.7524-6.209 4.0604-21.076 12.586-21.269 8.5255-0.1935 18.812 14.964 14.346 21.382z"/>
      <path id="rect3963" fill="url(#radialGradient3205)" d="m407.2 1179.3h3.0221c0.9176 0 1.6563 0.7387 1.6563 1.6563v21.234c0 0.9176-0.73872 1.6563-1.6563 1.6563h-3.0221c-0.9176 0-1.6563-0.7387-1.6563-1.6563v-21.234c0-0.9176 0.73872-1.6563 1.6563-1.6563z"/>
      <path id="path4018" opacity=".60177" style="block-progression:tb;color:#000000;text-transform:none;text-indent:0" d="m651.56 745.4c-23.162-0.0419-35.223 0.73225-49.731 7.5109l0.4375 0.90625c19.042-8.8969 48.27-10.899 81.375-8.5 33.105 2.3992 72.1 3.1237 106.68 11.658 38.315 13.817 82.258 27.474 116.26 47.467 3.3151 1.972 5.8733 3.8076 7.5938 5.4375 1.7205 1.63 2.5312 3.0577 2.5312 4.0938 3.2726-1.9506-7.3551-9.0203-9.625-10.375-36.732-22.82-82.79-22.92-118.53-31.461-58.009 0.24398-73.419-29.643-136.99-26.737z" transform="matrix(.38808 -.054867 .054867 .38808 82.219 843.97)" filter="url(#filter4028)" fill="#fff"/>
      <path id="rect4046" opacity=".60177" d="m380.64 1233.9h67.736c1.04 0 1.8773 0.8373 1.8773 1.8773v24.067c0 1.04-0.83726 1.8772-1.8773 1.8772h-67.736c-1.04 0-1.8773-0.8372-1.8773-1.8772v-24.067c0-1.04 0.83726-1.8773 1.8773-1.8773z" stroke="#7a7a7a" stroke-width="2.3947" fill="#131313"/>
      <path id="path4125" opacity=".78761" fill="url(#radialGradient3200)" d="m596.41 1128.6c0 12.716-10.663 23.024-23.816 23.024s-23.816-10.308-23.816-23.024 10.663-23.024 23.816-23.024 23.816 10.308 23.816 23.024z"/>
      <path id="path4135" opacity=".78761" fill="url(#radialGradient3197)" d="m276.14 1130.8c0 12.716-10.663 23.024-23.816 23.024s-23.816-10.308-23.816-23.024 10.663-23.024 23.816-23.024 23.816 10.308 23.816 23.024z"/>
      <path id="path4192" d="m388.31 1250.7v-8.9779h1.7882l2.125 6.3568c0.19597 0.592 0.33887 1.0349 0.42869 1.3289 0.10206-0.3266 0.26129-0.8064 0.47767-1.4392l2.1496-6.2465h1.5984v8.9779h-1.1452v-7.5142l-2.6088 7.5142h-1.0717l-2.5966-7.6429v7.6429z"/>
      <path id="path4194" d="m398.67 1243v-1.2677h1.1023v1.2677zm0 7.7102v-6.5038h1.1023v6.5038z"/>
      <path id="path4196" d="m405.7 1248.3 1.084 0.1409c-0.1184 0.7471-0.42154 1.332-0.90942 1.7545-0.48788 0.4226-1.087 0.6338-1.7974 0.6338-0.89003 0-1.6055-0.2908-2.1465-0.8727-0.54096-0.5817-0.81143-1.4156-0.81143-2.5016 0-0.7022 0.11635-1.3167 0.34906-1.8433 0.23272-0.5267 0.58689-0.9217 1.0625-1.1851 0.47563-0.2633 0.99312-0.395 1.5524-0.395 0.7063 0 1.284 0.1787 1.7331 0.5359 0.44909 0.3572 0.73692 0.8645 0.86349 1.5218l-1.0717 0.1654c-0.10208-0.4369-0.28274-0.7655-0.54198-0.986-0.25926-0.2204-0.57261-0.3307-0.94005-0.3307-0.55524 0-1.0064 0.199-1.3534 0.5971-0.34703 0.3981-0.52055 1.0278-0.52055 1.8893 0 0.8737 0.16739 1.5085 0.50218 1.9045 0.33477 0.3961 0.77163 0.5941 1.3105 0.5941 0.43277 0 0.79408-0.1327 1.084-0.3981 0.28987-0.2653 0.47359-0.6736 0.55117-1.2248z"/>
      <path id="path4198" d="m407.73 1250.7v-8.9779h1.1023v3.2213c0.51442-0.5961 1.1636-0.8942 1.9474-0.8942 0.48175 0 0.90023 0.095 1.2554 0.2848 0.35519 0.1899 0.60934 0.4522 0.76245 0.787 0.15309 0.3348 0.22964 0.8206 0.22965 1.4575v4.1215h-1.1023v-4.1215c0-0.5512-0.11942-0.9523-0.35825-1.2034-0.23884-0.2511-0.57669-0.3766-1.0135-0.3766-0.32663 0-0.63385 0.085-0.92168 0.2541-0.28783 0.1694-0.49298 0.3991-0.61546 0.689-0.12248 0.2898-0.18372 0.69-0.18372 1.2003v3.5581z"/>
      <path id="path4200" d="m414.72 1243v-1.2677h1.1023v1.2677zm0 7.7102v-6.5038h1.1023v6.5038z"/>
      <path id="path4202" d="m417.3 1251.2 1.0717 0.1592c0.0449 0.3307 0.16943 0.5716 0.37357 0.7226 0.27353 0.2042 0.6471 0.3062 1.1207 0.3062 0.51033 0 0.90431-0.102 1.1819-0.3062 0.27762-0.2041 0.46542-0.4899 0.56342-0.8573 0.0571-0.2245 0.0837-0.6961 0.0796-1.4147-0.48176 0.5675-1.0819 0.8513-1.8005 0.8513-0.89412 0-1.5861-0.3226-2.0761-0.9676-0.48992-0.6451-0.73488-1.4188-0.73488-2.3211 0-0.6205 0.11227-1.1931 0.33682-1.7178 0.22455-0.5245 0.55014-0.9298 0.97679-1.2156 0.42664-0.2857 0.92778-0.4287 1.5034-0.4287 0.76754 0 1.4004 0.3104 1.8985 0.9309v-0.7839h1.0166v5.6219c-0.00001 1.0125-0.1031 1.7301-0.30927 2.1526-0.20618 0.4226-0.5328 0.7563-0.97984 1.0013-0.44706 0.2449-0.99721 0.3674-1.6504 0.3674-0.77572 0-1.4024-0.1745-1.8801-0.5236-0.47768-0.349-0.70835-0.8747-0.69202-1.5769zm0.91248-3.9072c0 0.8533 0.16943 1.476 0.5083 1.8679 0.33886 0.3919 0.76347 0.5879 1.2738 0.5879 0.50625 0 0.93085-0.1949 1.2738-0.5849 0.34294-0.3898 0.51441-1.0012 0.51442-1.8341-0.00001-0.7961-0.17659-1.3963-0.52973-1.8005-0.35316-0.4041-0.77878-0.6062-1.2769-0.6063-0.48992 0.0001-0.90636 0.1991-1.2493 0.5971-0.34295 0.3981-0.51442 0.9891-0.51442 1.7729z"/>
      <path id="path4204" d="m428.73 1249.9c-0.40827 0.347-0.80123 0.592-1.1789 0.7349-0.37766 0.1429-0.78287 0.2143-1.2156 0.2143-0.71448 0-1.2636-0.1744-1.6474-0.5236-0.38378-0.3491-0.57566-0.795-0.57566-1.338 0-0.3185 0.0725-0.6094 0.2174-0.8727 0.14494-0.2634 0.33478-0.4746 0.56954-0.6339 0.23475-0.1592 0.4991-0.2796 0.79306-0.3613 0.21638-0.057 0.543-0.1123 0.97985-0.1654 0.89003-0.1061 1.5453-0.2326 1.9658-0.3796 0.004-0.1511 0.006-0.2471 0.006-0.2879-0.00001-0.4491-0.10411-0.7655-0.31233-0.9492-0.28171-0.249-0.70019-0.3735-1.2554-0.3736-0.51851 0.0001-0.90126 0.091-1.1483 0.2726-0.247 0.1816-0.4297 0.5032-0.5481 0.9645l-1.0778-0.147c0.098-0.4613 0.25925-0.8339 0.4838-1.1176 0.22454-0.2838 0.54912-0.5022 0.97372-0.6553s0.91657-0.2297 1.4759-0.2297c0.55524 0 1.0064 0.065 1.3534 0.196 0.34703 0.1307 0.60219 0.295 0.76551 0.493 0.1633 0.198 0.27762 0.4481 0.34295 0.7502 0.0367 0.1878 0.0551 0.5267 0.0551 1.0166v1.4697c-0.00001 1.0248 0.0235 1.673 0.0704 1.9445s0.13983 0.5317 0.27865 0.7808h-1.1513c-0.11433-0.2287-0.18781-0.4961-0.22047-0.8023zm-0.0919-2.4619c-0.40011 0.1633-1.0003 0.3022-1.8005 0.4165-0.45318 0.065-0.77367 0.1388-0.96147 0.2204-0.18781 0.082-0.33275 0.2011-0.43482 0.3583-0.10206 0.1572-0.1531 0.3317-0.15309 0.5236-0.00001 0.294 0.11125 0.5389 0.33376 0.7349 0.2225 0.1959 0.54809 0.2939 0.97678 0.2939 0.4246 0 0.80225-0.093 1.133-0.2786 0.3307-0.1857 0.57362-0.4399 0.72877-0.7624 0.11839-0.249 0.17758-0.6165 0.17759-1.1024z"/>
      <path id="path4206" d="m431.47 1250.7v-6.5038h0.9921v0.9248c0.47767-0.7145 1.1676-1.0718 2.0699-1.0718 0.39193 0 0.75223 0.071 1.0809 0.2114 0.32865 0.1408 0.57464 0.3255 0.73796 0.5541 0.1633 0.2287 0.27761 0.5002 0.34294 0.8146 0.0408 0.2041 0.0612 0.5613 0.0612 1.0716v3.9991h-1.1023v-3.9562c-0.00001-0.4491-0.0429-0.7849-0.12861-1.0074-0.0857-0.2225-0.23782-0.4-0.45624-0.5328-0.21843-0.1326-0.47461-0.199-0.76857-0.199-0.46951 0-0.87472 0.149-1.2156 0.447-0.34091 0.2981-0.51136 0.8635-0.51136 1.6965v3.5519z"/>
    </g>
  </g>
  <metadata>
    <rdf:RDF>
      <cc:Work>
        <dc:format>image/svg+xml</dc:format>
        <dc:type rdf:resource="http://purl.org/dc/dcmitype/StillImage"/>
        <cc:license rdf:resource="http://creativecommons.org/licenses/publicdomain/"/>
        <dc:publisher>
          <cc:Agent rdf:about="http://openclipart.org/">
            <dc:title>Openclipart</dc:title>
          </cc:Agent>
        </dc:publisher>
        <dc:title>Aqua Blue Vintage Car</dc:title>
        <dc:date>2011-03-09T22:31:46</dc:date>
        <dc:description>Inkscape, SVG, aqua, auto, automobile, blue, car, clip art, clipart, </dc:description>
        <dc:source>http://openclipart.org/detail/126397/aqua-blue-vintage-car-by-laurianne</dc:source>
        <dc:creator>
          <cc:Agent>
            <dc:title>laurianne</dc:title>
          </cc:Agent>
        </dc:creator>
        <dc:subject>
          <rdf:Bag>
            <rdf:li>Inkscape</rdf:li>
            <rdf:li>SVG</rdf:li>
            <rdf:li>aqua</rdf:li>
            <rdf:li>auto</rdf:li>
            <rdf:li>automobile</rdf:li>
            <rdf:li>blue</rdf:li>
            <rdf:li>car</rdf:li>
            <rdf:li>clip art</rdf:li>
            <rdf:li>clipart</rdf:li>
          </rdf:Bag>
        </dc:subject>
      </cc:Work>
      <cc:License rdf:about="http://creativecommons.org/licenses/publicdomain/">
        <cc:permits rdf:resource="http://creativecommons.org/ns#Reproduction"/>
        <cc:permits rdf:resource="http://creativecommons.org/ns#Distribution"/>
        <cc:permits rdf:resource="http://creativecommons.org/ns#DerivativeWorks"/>
      </cc:License>
    </rdf:RDF>
  </metadata>
</svg>
