<svg id="svg" xmlns="http://www.w3.org/2000/svg" xmlns:xlink="http://www.w3.org/1999/xlink" width="400" height="385.88235294117646" viewBox="0, 0, 400,385.88235294117646"><g id="svgg"><path id="path0" d="M208.146 33.108 C 206.873 37.990,206.359 40.234,205.206 45.946 C 204.498 49.450,203.698 53.308,203.428 54.519 C 202.672 57.909,204.301 62.399,207.618 66.071 C 209.332 67.968,209.638 67.948,211.514 65.817 C 214.944 61.921,216.136 57.672,215.014 53.339 C 214.594 51.715,213.986 48.996,213.663 47.297 C 211.364 35.200,209.112 29.406,208.146 33.108 M167.334 41.472 C 167.034 42.253,171.608 49.335,179.101 59.692 C 180.911 62.193,185.523 63.905,189.192 63.437 C 191.772 63.109,192.025 62.773,191.768 60.023 C 191.264 54.625,189.293 51.801,184.277 49.290 C 182.838 48.569,180.539 47.338,179.168 46.553 C 176.939 45.277,168.066 40.927,167.692 40.927 C 167.610 40.927,167.449 41.172,167.334 41.472 M244.538 44.036 C 229.456 51.697,229.332 51.784,227.839 55.773 C 226.743 58.703,226.361 62.228,227.077 62.796 C 229.841 64.981,237.667 62.691,240.170 58.963 C 240.905 57.869,243.017 54.834,244.863 52.219 C 250.624 44.060,252.322 40.927,250.983 40.927 C 250.805 40.927,247.905 42.326,244.538 44.036 M142.857 59.699 C 139.778 59.762,134.218 60.001,130.502 60.229 C 118.133 60.988,118.176 61.103,132.625 65.762 C 138.339 67.605,141.436 68.543,150.760 71.256 C 154.872 72.453,160.218 71.782,165.347 69.424 C 168.401 68.020,168.550 67.524,166.506 65.562 C 160.912 60.193,157.693 59.394,142.857 59.699 M262.741 59.716 C 257.898 60.868,250.965 65.410,250.965 67.431 C 250.965 69.247,258.312 71.798,263.576 71.809 C 265.761 71.813,267.504 71.457,271.877 70.113 C 274.922 69.177,280.367 67.505,283.977 66.397 C 296.248 62.631,298.787 61.445,295.849 60.850 C 292.786 60.229,264.637 59.265,262.741 59.716 M119.285 80.500 C 111.953 81.962,104.816 87.403,99.535 95.557 C 97.443 98.788,95.687 102.654,88.313 120.270 L 86.211 125.290 83.087 125.401 L 79.962 125.513 78.784 127.572 C 77.245 130.263,77.123 130.116,80.888 130.116 C 82.693 130.116,84.169 130.159,84.169 130.212 C 84.168 130.265,82.182 135.000,79.755 140.734 L 75.342 151.158 78.274 151.272 C 80.341 151.352,81.297 151.240,81.512 150.893 C 81.679 150.622,83.762 145.769,86.141 140.109 L 90.465 129.818 93.206 129.555 C 112.631 127.694,133.289 114.103,137.643 100.320 C 141.693 87.497,132.729 77.819,119.285 80.500 M128.017 83.217 C 139.059 90.045,129.040 115.416,112.813 121.717 C 107.932 123.613,93.326 126.273,92.475 125.422 C 92.273 125.220,102.075 101.565,103.649 98.456 C 110.341 85.240,120.754 78.727,128.017 83.217 M206.889 90.338 C 202.981 91.518,199.990 95.357,195.012 105.581 C 189.682 116.527,185.210 123.123,173.435 137.407 C 166.806 145.449,165.862 146.304,164.289 145.701 C 163.336 145.335,163.518 144.768,168.135 133.787 C 174.739 118.077,174.743 117.761,168.331 117.761 C 164.714 117.761,164.594 117.639,166.017 115.424 C 168.758 111.157,166.155 107.642,162.519 110.702 C 159.744 113.036,159.252 116.481,161.430 118.314 L 162.572 119.275 157.678 125.757 C 144.032 143.832,134.654 151.434,128.782 149.181 C 126.368 148.255,126.653 138.504,129.107 138.067 C 133.515 137.281,134.811 136.929,136.907 135.948 C 145.084 132.121,149.676 126.523,149.351 120.775 C 148.982 114.242,142.921 114.119,134.353 120.471 C 123.907 128.214,118.184 143.124,123.480 148.794 C 128.713 154.396,138.172 150.825,148.532 139.337 C 151.921 135.579,160.479 124.699,162.846 121.139 C 163.820 119.676,165.225 119.261,166.957 119.925 C 168.007 120.329,167.692 121.327,162.797 133.111 C 160.173 139.427,157.828 145.185,157.585 145.907 C 155.766 151.309,159.979 153.239,164.999 149.303 C 167.143 147.622,182.000 129.324,186.606 122.691 C 187.894 120.837,188.996 119.369,189.055 119.428 C 189.114 119.488,183.951 132.124,177.580 147.509 C 171.210 162.895,165.899 175.867,165.779 176.338 L 165.560 177.193 168.784 176.110 L 172.008 175.027 175.870 165.727 L 179.733 156.428 184.557 152.420 C 189.686 148.159,194.921 143.166,198.722 138.908 L 201.041 136.310 200.520 138.316 C 199.387 142.688,199.993 146.970,202.023 148.936 C 207.519 154.255,216.943 150.639,226.922 139.382 C 228.334 137.790,229.347 136.834,229.172 137.259 C 227.760 140.696,228.708 146.767,230.989 148.907 C 238.934 156.357,251.116 148.088,268.908 123.166 C 272.078 118.726,272.435 118.333,271.713 120.077 C 271.406 120.820,268.974 126.641,266.310 133.012 C 259.874 148.403,259.728 149.040,262.269 150.590 C 264.683 152.061,267.692 151.260,270.792 148.321 C 273.826 145.444,288.268 127.322,293.147 120.270 C 293.731 119.426,294.208 118.844,294.208 118.976 C 294.208 119.109,291.859 124.832,288.988 131.693 C 281.485 149.625,281.230 151.351,286.087 151.351 C 289.512 151.351,289.265 151.609,307.337 129.203 C 315.933 118.547,316.220 118.888,310.379 132.819 C 305.233 145.092,304.654 147.957,306.872 150.174 C 310.362 153.665,314.964 150.472,320.756 140.541 C 328.287 127.629,329.334 126.075,329.892 126.978 C 330.104 127.321,324.195 140.856,312.010 167.938 C 309.864 172.707,308.108 176.735,308.108 176.889 C 308.108 177.149,314.559 175.531,314.907 175.183 C 314.994 175.096,317.299 169.862,320.028 163.552 L 324.991 152.080 329.567 147.944 C 334.297 143.671,343.225 134.127,343.237 133.333 C 343.255 132.105,342.084 132.870,339.632 135.692 C 336.573 139.211,327.476 148.263,326.998 148.263 C 326.826 148.263,327.006 147.524,327.400 146.622 C 340.210 117.234,340.514 116.364,338.240 115.642 C 334.681 114.513,331.438 118.375,322.743 134.099 C 317.240 144.052,315.364 146.525,313.319 146.525 L 311.776 146.525 311.798 144.595 C 311.817 143.028,312.709 140.540,316.528 131.405 C 321.475 119.573,321.960 117.764,320.529 116.469 C 318.363 114.509,316.376 116.015,308.715 125.428 C 299.127 137.207,293.322 144.191,292.693 144.704 C 290.602 146.410,288.905 145.930,289.535 143.811 C 289.723 143.180,294.761 131.076,300.730 116.913 C 306.699 102.749,311.583 91.057,311.583 90.930 C 311.583 90.804,310.342 90.751,308.826 90.813 L 306.069 90.927 303.293 97.490 C 297.057 112.238,292.772 119.229,280.776 134.231 C 271.545 145.775,269.852 147.381,267.761 146.579 C 266.582 146.126,267.284 143.833,272.050 132.559 C 274.727 126.225,278.270 117.828,279.921 113.900 L 282.925 106.757 289.821 106.655 C 296.794 106.552,297.683 106.360,297.683 104.954 C 297.683 104.787,294.569 104.603,290.763 104.545 L 283.843 104.440 285.006 101.737 C 285.646 100.251,286.499 98.209,286.901 97.201 L 287.634 95.367 284.815 95.367 L 281.996 95.367 280.116 100.000 L 278.236 104.633 272.143 104.633 C 265.922 104.633,265.251 104.800,265.251 106.345 C 265.251 106.465,267.959 106.564,271.270 106.564 L 277.288 106.564 275.081 110.714 C 264.579 130.465,246.412 149.421,237.987 149.421 C 230.409 149.421,234.572 133.488,245.184 121.877 C 252.337 114.050,257.041 118.332,250.736 126.931 C 249.791 128.219,250.872 128.100,253.670 126.609 C 259.002 123.767,260.213 119.763,256.647 116.762 C 252.489 113.263,238.422 120.965,232.606 129.923 C 227.585 137.657,218.067 146.695,212.910 148.625 C 206.589 150.990,204.077 148.121,206.001 140.734 C 206.730 137.933,206.476 138.161,209.303 137.774 C 215.601 136.913,224.137 131.309,226.652 126.385 C 228.246 123.264,228.065 118.493,226.291 116.909 C 222.118 113.180,209.383 120.669,203.994 130.021 C 201.247 134.788,182.654 153.439,181.650 152.435 C 181.551 152.336,183.983 146.128,187.054 138.639 L 192.637 125.022 197.766 119.745 C 208.207 109.005,211.585 103.905,212.772 97.088 C 213.691 91.811,211.257 89.018,206.889 90.338 M210.734 92.355 C 212.191 93.813,210.733 99.996,207.747 105.023 C 205.287 109.163,195.380 120.992,194.832 120.443 C 194.574 120.185,202.702 100.647,204.381 97.490 C 206.883 92.786,209.250 90.872,210.734 92.355 M144.408 118.347 C 147.533 122.113,139.182 133.596,131.602 135.955 C 128.448 136.937,128.451 136.970,131.191 131.552 C 136.152 121.742,142.206 115.694,144.408 118.347 M222.780 118.340 C 225.997 122.216,217.368 133.845,209.554 136.166 C 207.032 136.914,207.024 136.880,208.820 133.047 C 213.599 122.848,220.494 115.585,222.780 118.340 M157.978 186.157 C 156.347 186.965,153.513 189.985,151.828 192.710 C 151.055 193.961,150.795 194.085,147.990 194.538 C 114.914 199.878,92.664 215.281,92.664 232.837 C 92.664 245.328,107.070 250.175,117.279 241.119 C 122.768 236.251,125.210 226.589,121.811 223.190 C 120.737 222.116,120.239 223.247,120.808 225.466 C 124.329 239.203,103.465 250.565,99.464 237.089 C 96.441 226.912,105.515 213.090,119.978 205.837 C 126.199 202.717,139.279 198.520,147.651 196.955 L 149.326 196.643 145.536 204.016 C 141.397 212.071,138.807 217.839,134.685 228.185 C 118.976 267.615,88.574 289.424,61.004 281.041 C 46.371 276.592,40.521 265.393,45.998 252.317 C 47.932 247.699,52.786 241.983,56.291 240.195 C 58.303 239.168,58.540 238.032,56.660 238.424 C 51.825 239.432,44.769 246.899,42.718 253.178 C 35.948 273.904,50.304 287.718,76.859 286.033 C 107.504 284.088,128.948 264.073,140.502 226.630 C 144.313 214.282,146.751 207.675,150.063 200.724 L 152.202 196.236 155.155 195.558 C 158.718 194.740,162.300 192.940,163.379 191.424 C 166.350 187.252,162.787 183.777,157.978 186.157 M160.257 188.817 C 162.055 189.779,160.544 191.727,157.119 192.865 C 154.129 193.858,154.012 193.394,156.598 190.787 C 159.137 188.228,159.147 188.223,160.257 188.817 M304.247 206.575 C 300.997 207.132,299.655 208.773,294.727 218.218 C 291.169 225.037,283.981 239.798,282.165 244.015 C 279.223 250.846,275.886 257.143,275.208 257.143 C 272.760 257.143,271.024 259.359,270.744 262.841 C 270.451 266.489,266.974 268.913,265.063 266.801 C 263.551 265.130,264.887 260.607,270.094 249.779 C 273.661 242.359,275.020 238.519,274.296 237.901 C 274.099 237.733,271.506 237.726,268.533 237.887 C 265.560 238.047,262.606 238.091,261.969 237.985 L 260.811 237.792 263.002 235.542 C 266.330 232.125,266.949 228.260,264.614 225.484 C 263.048 223.623,260.588 224.294,260.061 226.728 C 254.046 254.483,242.108 272.565,232.933 267.820 C 229.408 265.997,229.709 254.449,233.281 254.435 C 242.171 254.399,253.773 243.071,251.208 236.933 C 248.792 231.150,238.029 234.585,231.614 243.187 C 221.772 256.384,223.310 270.607,234.582 270.648 C 243.168 270.679,248.798 264.308,256.024 246.383 L 258.302 240.734 260.521 240.805 C 263.440 240.898,265.693 241.722,266.389 242.949 C 267.013 244.051,267.131 243.768,262.256 252.896 C 258.760 259.442,257.943 263.383,259.413 266.618 C 261.425 271.047,265.439 271.476,269.816 267.729 C 272.223 265.669,272.109 266.592,268.987 274.427 C 259.714 297.705,259.167 305.792,266.867 305.792 C 275.601 305.792,284.864 288.045,284.093 272.787 L 283.977 270.477 285.328 270.250 C 288.487 269.718,291.798 266.706,295.689 260.826 C 296.397 259.756,296.883 259.177,296.769 259.539 C 296.403 260.706,297.296 264.879,298.225 266.341 C 303.307 274.337,315.194 271.215,321.151 260.321 L 322.222 258.363 322.252 261.131 C 322.323 267.662,325.495 270.463,332.819 270.463 C 339.417 270.463,342.605 268.716,346.738 262.831 C 348.519 260.296,348.572 260.256,348.544 261.480 C 348.354 270.036,355.769 273.298,362.325 267.543 C 366.314 264.040,374.268 249.807,372.236 249.807 C 372.043 249.807,371.068 251.327,370.070 253.185 C 364.273 263.976,358.491 269.298,355.029 267.030 C 353.126 265.784,353.062 264.180,354.631 257.153 L 356.048 250.806 359.260 247.431 C 362.897 243.609,365.107 240.828,367.726 236.776 L 369.535 233.977 372.528 233.977 C 375.591 233.977,376.448 233.631,376.448 232.397 C 376.448 231.537,375.672 231.274,373.131 231.274 L 371.037 231.274 373.307 226.737 C 378.183 216.994,378.997 211.044,375.697 209.278 C 371.837 207.212,366.892 212.558,360.084 226.158 L 357.523 231.274 354.515 231.274 C 351.435 231.274,350.579 231.618,350.579 232.854 C 350.579 233.731,351.357 233.977,354.127 233.977 C 356.191 233.977,356.422 234.053,356.176 234.653 C 354.239 239.364,351.771 246.421,350.549 250.740 C 347.480 261.588,340.843 268.726,333.826 268.726 C 324.090 268.726,326.383 251.038,337.514 240.287 C 344.522 233.520,349.875 236.941,344.583 244.805 C 342.606 247.742,344.171 248.686,346.958 246.239 C 350.900 242.778,350.668 237.141,346.500 235.123 C 340.683 232.307,332.122 236.915,327.451 245.377 C 326.516 247.070,325.359 249.064,324.879 249.807 C 324.399 250.550,323.380 252.495,322.614 254.130 C 317.401 265.245,308.334 271.596,303.945 267.206 C 301.121 264.382,302.016 254.447,305.096 254.435 C 316.393 254.389,328.902 238.357,320.530 234.653 C 313.837 231.693,305.022 238.545,298.592 251.707 C 294.827 259.413,293.265 261.865,290.014 265.166 C 286.347 268.891,283.694 269.345,283.241 266.325 C 283.102 265.396,282.384 263.436,281.647 261.970 L 280.306 259.305 283.068 253.301 C 291.785 234.349,303.264 214.173,308.491 208.613 C 309.312 207.740,309.514 207.296,309.183 207.091 C 308.409 206.613,305.687 206.328,304.247 206.575 M375.294 213.326 C 376.382 214.637,375.160 218.802,371.528 226.158 L 369.002 231.274 366.366 231.274 C 363.215 231.274,363.081 232.190,367.580 222.973 C 371.628 214.680,373.979 211.741,375.294 213.326 M366.352 235.505 C 364.944 237.876,361.213 242.826,359.067 245.174 C 356.839 247.610,356.693 248.328,360.261 239.289 L 362.355 233.983 364.808 233.980 L 367.260 233.977 366.352 235.505 M214.180 235.166 C 211.747 236.450,207.089 241.528,203.973 246.292 C 200.285 251.929,200.288 251.926,201.157 249.135 C 202.894 243.553,203.587 237.560,202.689 235.882 C 202.222 235.009,201.017 234.935,197.435 235.559 L 195.000 235.983 195.620 237.181 C 199.233 244.169,183.655 271.310,178.089 267.723 C 175.539 266.080,178.598 256.862,186.444 242.549 C 189.703 236.603,189.722 236.506,187.572 236.795 C 182.062 237.534,170.865 245.500,164.128 253.475 C 162.636 255.240,162.834 254.744,166.444 247.673 C 170.751 239.238,170.932 238.380,168.673 237.105 C 165.882 235.531,155.562 243.056,147.687 252.408 C 146.414 253.919,145.308 255.089,145.228 255.009 C 144.719 254.501,153.204 240.339,155.432 237.976 C 156.947 236.370,156.703 236.186,152.993 236.135 C 148.924 236.079,147.300 238.555,136.706 260.977 C 131.665 271.647,131.866 270.632,134.846 270.375 C 138.126 270.092,138.283 269.973,140.308 266.229 C 146.287 255.169,156.055 244.015,159.761 244.015 C 161.168 244.015,160.816 245.410,157.618 252.514 C 152.668 263.508,151.893 267.825,154.537 269.677 C 155.831 270.583,156.159 270.415,156.706 268.564 C 157.633 265.423,162.399 258.064,167.373 252.093 C 173.762 244.423,181.537 241.151,178.046 247.602 C 172.354 258.117,171.429 260.448,171.429 264.264 C 171.429 269.203,176.262 272.137,180.768 269.934 C 184.648 268.037,187.845 264.212,191.916 256.592 C 193.014 254.538,193.991 252.935,194.087 253.031 C 195.068 254.012,183.545 279.126,176.611 291.120 C 175.200 293.562,173.804 295.994,173.510 296.525 L 172.976 297.490 175.664 297.832 C 181.047 298.516,181.388 298.065,188.033 281.461 C 190.837 274.457,193.259 268.726,193.416 268.726 C 193.573 268.726,194.712 269.073,195.946 269.498 C 206.374 273.086,219.874 261.889,223.022 247.041 C 224.939 237.997,220.390 231.888,214.180 235.166 M248.881 237.277 C 250.330 243.053,242.340 251.148,233.701 252.654 L 232.460 252.871 234.221 249.891 C 239.954 240.184,247.896 233.352,248.881 237.277 M320.695 237.277 C 321.388 240.036,319.593 244.045,316.228 247.254 C 313.259 250.086,310.324 251.544,305.327 252.667 L 304.283 252.901 305.847 250.141 C 311.217 240.665,319.701 233.314,320.695 237.277 M217.596 237.957 C 224.605 243.987,202.253 272.881,194.796 267.429 C 193.826 266.719,202.251 251.325,207.777 243.708 C 211.852 238.092,215.362 236.036,217.596 237.957 M281.273 265.418 C 282.334 268.898,281.164 269.833,278.091 267.959 L 276.838 267.195 277.837 264.968 C 278.386 263.743,278.933 262.503,279.052 262.212 C 279.381 261.410,280.579 263.140,281.273 265.418 M279.872 270.739 C 282.582 271.243,282.472 270.947,281.840 275.988 C 280.567 286.137,275.895 297.416,271.297 301.442 C 264.618 307.290,265.455 297.258,273.447 275.676 C 275.996 268.792,275.943 268.885,276.814 269.673 C 277.194 270.017,278.570 270.496,279.872 270.739 M152.510 313.753 C 151.979 313.849,149.373 314.600,146.718 315.422 C 144.064 316.244,138.755 317.879,134.920 319.055 C 118.487 324.097,117.729 324.887,128.571 325.669 C 139.098 326.429,154.731 326.628,156.777 326.028 C 161.579 324.620,167.954 320.195,167.954 318.270 C 167.954 316.074,157.152 312.915,152.510 313.753 M260.552 313.887 C 249.369 315.908,248.237 318.766,256.678 323.666 C 261.852 326.670,262.107 326.704,275.971 326.260 C 293.427 325.701,296.911 325.376,296.911 324.310 C 296.911 323.286,287.039 319.651,277.027 316.989 C 275.328 316.537,272.460 315.666,270.653 315.054 C 267.015 313.820,263.297 313.391,260.552 313.887 M206.980 320.186 C 202.394 326.259,202.540 331.993,207.774 351.448 C 209.104 356.394,209.947 354.985,212.564 343.436 C 213.142 340.888,214.097 336.760,214.687 334.262 C 216.163 328.015,215.336 324.173,211.515 319.538 C 209.861 317.532,208.877 317.672,206.980 320.186 M184.326 322.554 C 181.112 323.561,179.814 324.621,177.297 328.299 C 164.096 347.591,164.098 347.659,177.606 340.299 C 179.199 339.431,182.153 337.830,184.170 336.741 C 189.696 333.759,191.325 331.372,191.782 325.590 C 192.066 321.984,189.495 320.936,184.326 322.554 M227.449 322.644 C 225.822 323.783,226.845 329.290,229.379 333.037 C 230.515 334.715,233.943 336.744,244.788 342.154 C 253.587 346.543,253.639 345.714,245.297 333.977 C 243.411 331.322,241.215 328.167,240.417 326.966 C 237.743 322.935,230.486 320.517,227.449 322.644 " stroke="none" fill="#000000" fill-rule="evenodd"></path></g></svg>