<?xml version="1.0" encoding="utf-8"?>
<!-- Generator: Adobe Illustrator 26.2.1, SVG Export Plug-In . SVG Version: 6.00 Build 0)  -->
<svg version="1.0" id="Layer_1" xmlns="http://www.w3.org/2000/svg" xmlns:xlink="http://www.w3.org/1999/xlink" x="0px" y="0px"
	 viewBox="0 0 437.12 538.97" style="enable-background:new 0 0 437.12 538.97;" xml:space="preserve">
<style type="text/css">
	.st0{fill:#0F0B0A;}
	.st1{fill:#445751;}
	.st2{fill:#3F544F;}
	.st3{fill:#C08058;}
	.st4{fill:#CA8961;}
	.st5{fill:#C6906D;}
	.st6{fill:#42534D;}
	.st7{fill:#435750;}
	.st8{fill:#9B7569;}
	.st9{fill:#556054;}
	.st10{fill:#C36C4A;}
	.st11{fill:#43544D;}
	.st12{fill:#E7B37D;}
	.st13{fill:#C36D4C;}
	.st14{fill:#E6B27E;}
	.st15{fill:#C87352;}
	.st16{fill:#E6B27D;}
	.st17{fill:#E6B17D;}
	.st18{fill:#957468;}
	.st19{fill:#C87450;}
	.st20{fill:#BF6C4C;}
	.st21{fill:#C56D4A;}
	.st22{fill:#545D56;}
	.st23{fill:#C69D77;}
	.st24{fill:#936D61;}
	.st25{fill:#C99E7A;}
	.st26{fill:#645B4F;}
	.st27{fill:#A48479;}
	.st28{fill:#9A8F7C;}
	.st29{fill:#3D4D47;}
	.st30{fill:#656252;}
	.st31{fill:#B8936C;}
	.st32{fill:#C27350;}
	.st33{fill:#C69871;}
	.st34{fill:#E9B683;}
	.st35{fill:#63655D;}
	.st36{fill:#575D51;}
	.st37{fill:#686A5F;}
	.st38{fill:#485953;}
	.st39{fill:#D4A48E;}
	.st40{fill:#D5A173;}
	.st41{fill:#C4714E;}
	.st42{fill:#68695F;}
	.st43{fill:#6E6C65;}
	.st44{fill:#DD956F;}
	.st45{fill:#596357;}
	.st46{fill:#4F5B57;}
	.st47{fill:#D3865F;}
	.st48{fill:#E0BC98;}
	.st49{fill:#868178;}
	.st50{fill:#6A6657;}
	.st51{fill:#5B4438;}
	.st52{fill:#EEB97F;}
	.st53{fill:#876E64;}
	.st54{fill:#D5A074;}
	.st55{fill:#8C7166;}
	.st56{fill:#7E6D63;}
	.st57{fill:#9E644A;}
	.st58{fill:#B09B73;}
	.st59{fill:#EDB77F;}
	.st60{fill:#576156;}
	.st61{fill:#3B4F4A;}
	.st62{fill:#C76B49;}
	.st63{fill:#BC6D4E;}
	.st64{fill:#997468;}
	.st65{fill:#3F4E48;}
	.st66{fill:#AF7052;}
	.st67{fill:#977267;}
	.st68{fill:#5E5A4F;}
	.st69{fill:#535047;}
	.st70{fill:#516056;}
	.st71{fill:#E0AD7B;}
	.st72{fill:#D59972;}
	.st73{fill:#BF926D;}
	.st74{fill:#3F4F4E;}
	.st75{fill:#8B6049;}
	.st76{fill:#A46B4F;}
	.st77{fill:#64635C;}
	.st78{fill:#435450;}
	.st79{fill:#454F4E;}
	.st80{fill:#4F5350;}
	.st81{fill:#4D5A55;}
	.st82{fill:#455651;}
	.st83{fill:#4C5045;}
	.st84{fill:#63604E;}
	.st85{fill:#997568;}
	.st86{fill:#9E7868;}
	.st87{fill:#C17753;}
	.st88{fill:#D7A878;}
	.st89{fill:#947E5E;}
	.st90{fill:#C09A6F;}
	.st91{fill:#986046;}
	.st92{fill:#97815F;}
	.st93{fill:#685A55;}
	.st94{fill:#9E5E44;}
	.st95{fill:#7E5543;}
	.st96{fill:#855945;}
	.st97{fill:#7B5341;}
	.st98{fill:#875A45;}
	.st99{fill:#725545;}
	.st100{fill:#624C3F;}
	.st101{fill:#7E5341;}
	.st102{fill:#92745C;}
	.st103{fill:#CCCC00;}
</style>
<desc>Created with Fabric.js 3.6.3</desc>
<g transform="matrix(0.88 0 0 1.09 225.09 227.9)">
	<g>
		<g>
			<path class="st0" d="M-10.45-70.3c-13.12-13.67-7.42-28.43-3.79-43.06c0.11-0.44,0.35-0.87,0.52-1.3
				c15.59,4.46,19.48-14.73,34.63-11.18c5.77,1.35,11.17,0.79,16.03-2.24c32.58-20.35,68.58-21.77,104.3-8.46
				c18.73,6.98,35.55,18.25,42.29,36.24c16.83,44.94,3.25,86.16-22.57,125.97c-1.77,2.72-5.21,4.79-8.1,6.97
				c-3.41,2.57-7.07,4.77-11.95,1.92c-4.34-2.53-4.54-5.42-3.02-9.53c4.37-11.8,14.88-21.2,18.67-33.32
				c2.47-7.91,6.37-15.54,7.29-23.78c0.83-7.01,4.2-14.37-4.21-20.13c-4.82-5.54-11.88-6.5-19.52-6.29
				c-33.24,0.94-66.57-2.13-99.76,2.24c-13.47,1.77-27.07,0.39-39.74-4.36C-4.91-62.43-2.82-70-10.45-70.3z"/>
			<path class="st1" d="M166.54,78c1.49,2.61,1.33,5.11-0.71,7.5c-14.19,2.7-28.41,4.56-43.14,4.53
				c-92.8-0.2-185.6-0.22-278.39,0.01c-15.87,0.04-31.3-1.61-46.67-4.38c-0.26-1.83-0.51-3.66-0.77-5.49
				c4.03-6.29,11.49-6.29,18.67-6.45c10.5-0.23,21,0.22,31.47,0.1c5.72-0.2,12.3,1.1,14.33-5.47c2.71-9.41,0.97-18.96,1.63-28.41
				c0.4-5.78-0.44-11.95,6.56-16.01c4.95-1.47,9.93-1.34,14.92-0.17c2.84,1.13,4.92,2.86,6.28,5.15
				c4.23,12.86,1.07,26.01,2.28,38.96c0.88,8.85,9.49,5.36,15.37,6.21c7.97,0.23,15.77,0.28,17.1-8.35
				c1.49-4.57,2.24-9.2,2.19-13.93c0.13-5.12,0.07-10.22-0.04-15.33c0.13-3.88,0.59-7.69,3.35-11.04
				c10.28-4.95,18.06-3.3,23.04,5.72c0.26,0.72,0.5,1.46,0.76,2.18c0.3,1.45,0.31,2.92,0.1,4.38c-2.91,9.27,1.45,19.25-3.97,28.26
				c-0.6,0.66-1.33,1.29-2.25,1.74c-1.52,0.73-1.65,1.1-0.25,1.16c2.44-0.79,4.55-0.36,6.55,0.85c1.14,0.74,2.15,1.53,3.14,2.38
				c29.46,4.1,59.15,2.45,88.74,2.67c4.84,0.04,7.97-1.39,4.22-5.77c-2.33-2.48-4.65-4.96-6.98-7.45c-1.14-2.84,0.98-3.86,3.82-4.47
				c12.23,4.83,24.44,9.31,38.8,6.6c3.61-0.68,7.57,0.76,10.18,3.45c1.66,5.71,5.86,8.03,13.33,7.84
				c13.51-0.34,27.04-0.19,40.57-0.04C156.25,74.98,162.22,73.87,166.54,78z"/>
			<path class="st2" d="M-2.04-65.39c13.81,6.81,29.32,6.82,44.22,5.26c34.91-3.67,69.84-0.72,104.73-1.8
				c9.16-0.28,15.04,3.01,17.11,10.38c-10.64,3.79-20.57-1.7-31.17-1.53C87.78-52.36,42.66-53.36-2.4-52.6
				c-37.42,0.63-74.83-2.61-112.34,4.3c-22.03,4.06-45.79,0.74-68.71-0.96c-0.96,0.26-1.92,0.5-2.88,0.74
				c-4.58-0.44-9.15-0.89-13.73-1.33c-4.68-3.13-0.46-6.74-0.84-10.1c8.8-1.15,10.76-5.26,10.68-12.29
				c-0.29-26.83,0.44-53.67,0.8-80.5c2.28-1.8,4.93-3.04,8.1-3.47c19.52-0.57,39.04-1.15,58.56,0.33c2.05,0.44,3.88,1.22,5.53,2.3
				c5.07,4.54,3.45,10.14,3.63,15.43c0.62,18.82-1.14,37.67,0.97,56.48c0.82,20.4,0.82,20.4,27.66,19.17
				c12.63-2.93,25.26-2.94,37.89,0.01c14.09-0.44,28.61,3.99,42.15-2.47C-4.28-66.4-3.31-66.55-2.04-65.39z"/>
			<path class="st3" d="M155.84,223.72c-3.58,8.58-10.87,10.53-21.86,10.48c-97.11-0.39-194.22-0.25-291.34-0.19
				c-12.48,0.01-25.71,1.99-31.91-10.4c4.86-5.19,12.02-4.38,18.64-4.39c102.63-0.12,205.25-0.13,307.88,0.01
				C143.86,219.25,151.05,218.44,155.84,223.72z"/>
			<path class="st4" d="M150.8-48.25c-1.35,7.66-6.55,10.38-16.3,10.36c-95.56-0.24-191.12,0.25-286.67-0.68
				c-11.18-0.11-26.93,2.39-34.17-9.93c-0.44-0.42-0.49-0.87-0.14-1.34c9.94-3.86,19.85,0.53,29.9,0.1
				c94.46-4.12,189.03-2.84,283.57-2.89C135.22-52.65,144.14-54.22,150.8-48.25z"/>
			<path class="st5" d="M-202.37,85.66c122.73-0.05,245.47-0.11,368.2-0.16c-10.58,4.69-21.32,8.05-33.95,8.02
				C33,93.27-65.89,93.31-164.78,93.46C-178.31,93.48-190.61,90.7-202.37,85.66z"/>
			<path class="st6" d="M150.8-48.25C46.23-48.38-58.33-48.49-162.9-48.69c-7.86-0.02-15.72-0.75-23.58-1.15
				c1.41-4.51,3.33-6.86,10.56-5.26c26.07,5.74,52.23,7.23,78.24-0.98c3.98-1.26,8.9-0.73,13.39-0.73
				c73.26-0.04,146.53,0.38,219.77-0.46c10.99-0.13,18.29,6.5,28.52,5.72c4.7,6.51,4.89,13.01-0.15,19.47
				C161.65-38.6,170.74-51.09,150.8-48.25z"/>
			<path class="st7" d="M131.85,214.52c9.25,0.19,18.51,0.31,27.76,0.61c4.19,0.14,9.47-0.33,7.44,5.48
				c-3.74,1.46-7.74,0.97-11.65,0.98c-105.95,0.02-211.91,0.04-317.86-0.04c-4.88,0-10.22,1.34-14.53-1.88
				c-1.47-2.35-1.31-4.75-0.24-7.15c4.48-6.02,2.33-15.53,14.1-17.8c1.77-0.23,3.37,0.12,4.77,1.03
				c5.19,5.53,0.16,18.59,17.32,15.35c5.22-0.12,10.42-0.15,15.62-0.06c6.28,0.06,12.55,0.07,18.81,0.05
				c3.43-0.13,6.85,0.01,10.27,0.07c3.12,0.03,6.25,0.16,9.36,0.17c5.7,0.69,8.9-2.39,12.2-5.34c3-0.95,5.9-0.39,8.81,0.29
				c4.48,0.91,7.72,3.99,12.38,4.58c4.83,0.61,9.68,0.29,14.52,0.39c4.53-0.02,8.7,0.89,12.36,3.11
				c16.01,0.06,32.02,0.12,48.03,0.17c1.53-1.22,3.3-2.11,5.32-2.69c33.29-1.94,66.6-1.94,99.91-0.04
				C128.57,212.38,130.33,213.3,131.85,214.52z"/>
			<path class="st8" d="M51.05,68.99c4.86,0.91,9.58,2.01,12.96,7.42C50.82,78.9,38.1,77.7,25.59,77.81
				c-20.15,0.18-40.31,0.06-60.46-0.14c-5.12-0.05-12.06,1.67-12.16-5.7c1.83-1.29,3.84-2.3,6.26-2.7
				c3.28-0.59,6.66-0.15,11.59-0.83c-5.59-7.94-11.38-15.48-14.05-24.08c-0.81-2.66-0.95-5.32-0.06-7.99
				c3.36-5.31,7.79-9.23,16.12-7.98c12.16,11.56,23.83,23.34,20.65,40C-6.96,70.67-6.6,72.25-4,72.06
				C14.32,70.7,33.26,76.45,51.05,68.99z"/>
			<path class="st9" d="M47.67,58.42c-1.2,1.04-2.4,2.09-3.6,3.13C27.59,43.34,31.03,18.52,52.1,3.68C72.25-9.05,76.92-9.34,95.75,1
				c10.55,6.49,16,15.59,19.85,25.49c2.64,6.67,2.64,13.34,0,20c-5.24,5.61-3.2,14.7-13.2,18.03c-1.83,0.59-3.34,0.26-4.54-1
				c-1.35-8.01,5-14.66,6.01-22.33c2.29-17.25-7.81-29.83-25.54-31.05C61.78,9,50.52,16.8,48.9,30.19
				C47.75,39.59,51.12,49.1,47.67,58.42z"/>
			<path class="st10" d="M-129.5,25.21c-5.82,9.8-1.38,20.2-2.71,30.26c-0.74,5.62,2.2,11.71-3.19,16.75
				c-3.78,2.55-7.98,2.9-12.5,1.59c-1.62-0.67-2.84-1.67-3.67-2.97c-5.82-12.69,0.55-26.38-4.85-39.12
				c-0.33-2.14-0.32-4.27,0.03-6.4c0.42-2.19,1.84-4.02,3.22-5.86c5.7-5.55,2.04-12.53,4.36-18.6
				c17.41-2.45,12.59,10.18,17.09,16.48c0.82,1.01,1.64,2.02,2.47,3.02C-126.85,22.06-126.76,23.68-129.5,25.21z"/>
			<path class="st11" d="M-176.35,215.12c3.19,8.71,12.18,4.98,18.52,4.99c101.53,0.24,203.06,0.16,304.58,0.19
				c6.76,0,13.53,0.21,20.29,0.32c-2.14,4.78-7.42,2.13-11.19,3.09c-115.06-0.03-230.1-0.07-345.13-0.1
				c-5.2-1.27-14.51,2.81-14.98-4.02c-0.49-7.05,9.22-3.69,14.3-5.18C-185.2,211.89-180.61,211.49-176.35,215.12z"/>
			<path class="st12" d="M-152.65,31.58c5.9,13.28,1.77,26.96,2.51,40.45c-10.1,3.33-20.36,7.16-25.65-5.16
				c1.28-13.99-4.43-28.29,2.88-42.02C-166.25,27.29-157.87,26.33-152.65,31.58z"/>
			<path class="st13" d="M-47.09-62.48c-12.63,2.75-25.26,2.78-37.89-0.01c-0.1-8.18-4.41-16.09-2.31-24.41
				c5.95-4.92,13.77-3.31,20.95-3.95c4.61-0.35,9.24-0.99,13.84,0.13c10.23,4.24,6.82,11.29,5.64,17.89
				C-46.94-69.38-47.02-65.93-47.09-62.48z"/>
			<path class="st14" d="M-66.96,25.5c-0.29,3.55-0.59,7.1-0.88,10.65c-2.77,5.82-2.21,11.66-0.18,17.5
				c0.1,4.46-0.72,8.76-3.39,12.74c-15.26,4.87-23.47,2-24.05-10.15c-0.56-11.78-4.8-24.13,3.69-35.39
				c8.06-0.02,16.12-0.05,24.18-0.07C-65.69,22.2-65.7,23.8-66.96,25.5z"/>
			<path class="st15" d="M-26.71,214.35c-4.74-0.01-9.49-0.02-14.23-0.03c-9.68-15.14-2.2-31.31-4.23-46.91
				c-0.7-5.38-0.72-11.04,4.8-15.35c11.61-0.48,16.48,4.79,15.95,13.32C-25.45,181.7-23,198.12-26.71,214.35z"/>
			<path class="st16" d="M-165.95,148.7c10.24-3.45,20.45-9.65,30.81-0.19c-3.94,9.63-2.54,19.53-2.19,29.38
				c-0.9,10.56,2.8,21.48-3.84,31.57c-9.81,3.99-14.69,3.08-16.88-7.22c-2.98-14.02-1.04-28.19-4.2-42.06
				c-1.51-1.9-3.65-3.42-5.08-5.36C-168.32,152.58-168.14,150.49-165.95,148.7z"/>
			<path class="st17" d="M-40.37,152.06c-0.19,20.76-0.38,41.51-0.57,62.27c-5.41,0.13-10.83,0.27-16.24,0.4
				c-3.66-5.39-5.24-11.17-5.09-17.3c-0.02-9.87-0.15-19.74,0.09-29.61c0.12-4.87-0.47-10.01,4.89-13.71
				C-52.67,147.91-46.28,151.28-40.37,152.06z"/>
			<path class="st18" d="M-91.77,20.85c0.16,10.45,1.03,20.93,0.3,31.34c-0.86,12.32,5.38,16.83,20.05,14.21
				c2.76,14.9-10.5,10.73-20.04,10.99c-5.11-4.13-14.63-0.1-18.49-6.54c-1.43-14.16,2.16-28.47-1.98-42.54
				c-1.21-0.92-2.42-1.85-3.63-2.77c-1.69-1.74-1.73-3.4,0.36-4.97C-107.38,20.66-99.57,20.75-91.77,20.85z"/>
			<path class="st19" d="M131.85,214.52l-1.4,0.21l-1.39-0.28c-5.48-4.87-4.88-10.9-4.9-16.82c-0.08-17.77-0.52-35.54,0.16-53.3
				c0.4-10.47-3.5-16.33-18.12-15.92c-19.72,0.54-39.5,0.54-59.22,0c-14.62-0.4-18.52,5.45-18.12,15.92
				c0.68,17.76,0.25,35.53,0.16,53.3c-0.03,5.92,0.58,11.94-4.9,16.82l-1.39,0.28c0,0-1.41-0.21-1.4-0.21
				c0.04-26.95,0.5-53.91-0.15-80.85c-0.22-9.19,2.34-13.18,14.79-12.89c27.12,0.63,54.28,0.58,81.4,0.02
				c12.18-0.25,15.61,3.68,15.37,12.88C132.04,160.62,132.09,187.58,131.85,214.52z"/>
			<path class="st20" d="M-176.35,215.12c-4.54-0.24-9.08-0.48-13.62-0.72c0.27-19.88,0.54-39.76,0.8-59.65
				c4.58-3.87,9.88-3.4,15.39-1.68c2.26,1.44,2.88,3.36,2.41,5.56c-0.91,1.96-3,2.73-5.21,3.31c-5.5,10.32-0.3,21.25-2.75,31.73
				c-0.41,1.77,0-0.5,0.15,1.32c0.07,0.87,0.77,0.71,1.74-0.47c2.8-0.27,4.73,0.68,6.03,2.62c-0.35,4.98,1.5,10.08-1.42,14.88
				C-174,213.07-175.17,214.1-176.35,215.12z"/>
			<path class="st21" d="M-53.88-89.7c-3.48,0.89-6.97,1.78-10.45,2.67c-7.23-3.74-16.01,0.91-23.24-2.82
				c-3.23-5.47-3.27-9.94,5.56-11.63c3.26-1.31,6.33-2.96,9.98-3.57c1.44-0.32,2.9-0.47,4.39-0.5c1.48,0.05,2.93,0.26,4.36,0.61
				c3.36,1.11,6.25,3.07,9.92,3.66c9.17,0.63,10.25,5.37,8.85,11.38C-47.56-87.68-50.7-87.99-53.88-89.7z"/>
			<path class="st22" d="M-70.9-103.26c-3.03,3.33-7.07,2.57-11.11,1.79c-0.94-4.24-1.88-8.48-2.82-12.71
				c-2.52-8.62-2.05-17.27-0.33-25.92c-0.65-3.86,1.65-6.93,4.04-9.98c6.34-1.06,6.76,4.05,10.01,6.24c0.9,1.06,1.48,2.22,1.79,3.48
				c0.11,1.28,0.02,2.55-0.23,3.82c-1.2,5.75-0.63,11.53-0.54,17.31C-70.75-113.92-67.97-108.49-70.9-103.26z"/>
			<path class="st23" d="M98.22,64.38c1.39,0.05,2.79,0.09,4.17,0.14c-1.34,6.3,2.65,7.81,9.64,7.68
				c14.12-0.26,28.25-0.17,42.38-0.02c5.23,0.05,12.1-1.56,12.13,5.82c-20.18-0.12-40.37-0.65-60.54-0.22
				c-11.26,0.24-16.09-1.9-10.59-11.23C95.96,65.49,96.89,64.77,98.22,64.38z"/>
			<path class="st24" d="M-91.14,154.9c0.93-0.4,1.92-0.57,2.97-0.5c3.99-2.64,8.31-3.1,12.97-1.3c3.25,2.02,3.73,4.78,3.18,7.81
				c-0.79,2.72-3.05,4.7-5.25,6.7c-5.91,6.06-2.68,12.87-2.39,19.45c0.01,1.38-0.28,2.7-0.81,4c-3.9,5.22-2.08,11.48-4.68,16.88
				c-1.68,3.48-3.83,7.31-8.95,2.1c-4.61-15.29-2.06-30.76-1.96-46.17C-95.74,160.4-94.39,157.3-91.14,154.9z"/>
			<path class="st25" d="M-175.79,66.87c6.62,8.01,16.77,4.54,25.65,5.16c-0.01,0,1.1,0.08,1.1,0.08c1.81,1.86,1.88,3.56-0.7,5.02
				c-17.68,2.36-36.04-3.01-53.4,3.04c-1.09-7.36,2.94-10.76,12.09-10.53C-185.72,69.78-179.98,70.99-175.79,66.87z"/>
			<path class="st26" d="M-53.37-101.29c-4,0.51-8.1,1.39-11.01-2.01c-2.04-2.56-0.75-5.08,0.13-7.6c2.7-4.94,2.45-10.19,2.37-15.42
				c-0.06-3.49-0.12-6.97,0.57-10.44c0.57-2.18,1.68-4.12,3.98-5.47c8.89,3.42-2.37,14.53,9.75,16.72c9-2.47,13.88-1.34,8.85,7.18
				c-2.48,4.21-7.63,6.64-11.89,9.61C-49.95-105.86-58.22-105.17-53.37-101.29z"/>
			<path class="st27" d="M-74.02,154.72c-4.72-0.11-9.43-0.22-14.15-0.33c10.18-7.81,20.45-9.52,30.88-0.29
				c-0.23,14.83-0.47,29.66-0.7,44.48c-1.96,0.56-3.53,0.15-4.71-1.23c-4.62-7.79-2.59-16.13-2.83-24.24
				C-65.75,166.09-66.33,159.4-74.02,154.72z"/>
			<path class="st28" d="M-183.57-153.1c-1.95,0.13-3.91,0.25-5.86,0.37c-1.66-6.65,3.58-7.85,9.84-7.89
				c19.17-0.13,38.34-0.21,57.51-0.17c6.39,0.01,11.31,1.59,9.78,8.07c-2.19,1.4-4.32,1.51-6.36-0.21c-0.89-0.23-1.8-0.33-2.73-0.29
				C-142.12-157.08-162.85-157.31-183.57-153.1z"/>
			<path class="st29" d="M-118.66-152.92c2.12,0.07,4.24,0.14,6.36,0.21c-0.12,23.68-0.23,47.37-0.35,71.05
				c-5.66-17.4-1.23-35.13-2.54-52.67C-115.65-140.64-114.15-147.13-118.66-152.92z"/>
			<path class="st30" d="M-125.14,135.18c5.51-3.79,11.1-3.17,16.74-0.2c1.77,1.65,1.63,3.55,1.15,5.51
				c-1.47,3.19-4.14,5.67-7.13,7.97c-4.23,1.62-5.52,10.07-13.21,3.77C-126.37,146.59-128.79,140.6-125.14,135.18z"/>
			<path class="st31" d="M-125.14,135.18c-0.29,6.33-0.58,12.67-0.87,19c-3.41,3.37-10,5.09-8.6,10.96
				c-1.23,4.31,0.95,10.08-7.39,11.32c2.87-9.22-8.04-20.66,6.86-27.95C-122.91,148.42-132.67,137.57-125.14,135.18z"/>
			<path class="st32" d="M-131.73,17.34c-5.22-5.81-5.54-14.95-17.09-16.48c-0.96-8.11,7.2-7.48,12.58-7.33
				c6.3,0.17,4.52,5.59,4.87,8.79C-130.83,7.27-131.55,12.32-131.73,17.34z"/>
			<path class="st33" d="M95.75,1C80.32-7.39,66.32-0.69,52.1,3.68C62.29-10.44,85.42-11.86,95.75,1z"/>
			<path class="st34" d="M-27.18,28.41c-4.54,2.63-9.08,5.26-13.63,7.89c-3.8,1.69-4.69-0.87-6.07-2.71l-1.11,0.16
				c-1.08-2.97-2.08-5.93,0.96-8.6c3.29,0.07,6.29,0.22,9.2-1.94C-27.53,15.59-27.7,22.59-27.18,28.41z"/>
			<path class="st35" d="M-57.33-142.23c-0.06,1.89-0.13,3.78-0.19,5.68c-1.63,1.66-3.78,1.95-6.21,1.54
				c-4.29-1-5.02-4.51-7.39-6.87l0.01,0c-1.95-1.65-2.08-3.52-0.98-5.52c-0.05-3.03,11.6,0.6,5.23-6.02c-0.11-2.13,0.56-4,2.7-5.4
				C-53.34-155.6-57.18-148.42-57.33-142.23z"/>
			<path class="st36" d="M-152.65,31.58c-6.95-1.85-17.92,4.24-20.27-6.71c0.7-5.22,4.75-5.88,10.06-4.84
				c2.72,2.75,7.62,2.74,10.42,5.39C-152.51,27.47-152.58,29.53-152.65,31.58z"/>
			<path class="st37" d="M-50.61-108.72c3.19-3.51,6.74-6.84,9.47-10.56c4.74-6.45-1.55-5.98-6.44-6.23
				c4.37-2.76,10.05-3.76,13.23-0.32c3.38,3.65-0.72,7.52-3.98,10.73C-41.59-111.89-45.36-109.39-50.61-108.72z"/>
			<path class="st38" d="M-47.02,25.15c-0.32,2.87-0.64,5.73-0.96,8.6c-2.88-7.94-10.26-9.11-18.99-8.25
				c-0.21-1.58-0.41-3.15-0.62-4.73C-60.6,21.83-51.34,15.9-47.02,25.15z"/>
			<path class="st39" d="M-173.01,154.59c-5.38,0.06-10.77,0.11-16.15,0.17c4.17-10.94,15.49-3.98,23.21-6.06
				c-0.06,1.49-0.12,2.98-0.18,4.48C-167.63,156.18-170.12,156.03-173.01,154.59z"/>
			<path class="st40" d="M-91.14,154.9c-0.2,2.52-0.4,5.04-0.59,7.56c-8.17,4.25-14.02,3.81-15.71-5.07
				c0.31-1.53,1.16-2.83,2.54-3.9c3.65-1.63,7.05-1.2,10.25,0.83C-93.48,154.51-92.31,154.7-91.14,154.9z"/>
			<path class="st41" d="M-142.84,138.56c-1.24,3.02-4.98,2.35-7.98,2.38c-2.76,0.03-5.84-0.8-4.85-3.79
				c1.03-3.12,4.63-3.46,7.93-3.14C-144.99,134.27-142.42,135.2-142.84,138.56z"/>
			<path class="st42" d="M-71.1-147.39c0,1.83,0,3.67-0.01,5.5c-7.44,0.54-5.7-6.24-10.01-8.2c1.24-1.81,2.47-3.63,3.71-5.44
				C-70.2-155.41-67.62-152.94-71.1-147.39z"/>
			<path class="st43" d="M-71.1-147.39c0.04-3.8-2.08-6.51-6.32-8.14c-0.42-1.68,0.52-2.63,2.49-3.03
				c7.55-3.36,8.08,2.13,10.39,5.38C-60.52-146.66-66.31-147.4-71.1-147.39z"/>
			<path class="st42" d="M-85.16-140.11c0.11,8.64,0.22,17.28,0.33,25.92C-88.53-122.8-89.87-131.43-85.16-140.11z"/>
			<path class="st44" d="M-53.88-89.7c3.12-0.07,6.24-0.14,9.36-0.21c0.37,5.8,2.53,11.76-2.35,17.08
				C-47.61-78.88-46.04-85.57-53.88-89.7z"/>
			<path class="st45" d="M115.59,46.49c0-6.67,0-13.34,0-20C121.59,33.15,121.72,39.82,115.59,46.49z"/>
			<path class="st46" d="M-115.18,20.56c-0.12,1.66-0.23,3.31-0.35,4.97c-4.65-0.1-9.3-0.21-13.96-0.31
				c0.08-1.62,0.16-3.24,0.24-4.86C-124.57,20.43-119.88,20.5-115.18,20.56z"/>
			<path class="st47" d="M-87.57-89.84c7.71,1.14,16.28-2.35,23.24,2.82c-7.65,0.04-15.31,0.08-22.96,0.13
				C-87.38-87.88-87.48-88.86-87.57-89.84z"/>
			<path class="st40" d="M-108.64,140.8c0.08-1.94,0.17-3.88,0.25-5.82c5.99,3.7,2.38,9.08,3.66,13.61c1.72,1.97,1.72,3.9-0.23,5.78
				l-0.66,0.52c-1.99,0.4-3.54-0.1-4.64-1.5C-113.1,148.91-111.53,144.8-108.64,140.8z"/>
			<path class="st6" d="M-200.9-59.93c5.16,3.1-0.91,6.81,0.84,10.1C-207.8-52.79-207.36-56.2-200.9-59.93z"/>
			<path class="st48" d="M-104.97,154.37c0.08-1.92,0.15-3.85,0.23-5.77c4.57,0.51,9.85,0.22,10.09,5.72
				C-98.09,154.34-101.53,154.35-104.97,154.37z"/>
			<path class="st49" d="M-64.54-153.18c-3.4-1.86-5.26-5.69-10.39-5.38c3.51-2.13,6.89-7.7,10.77-0.27
				C-64.29-156.95-64.41-155.07-64.54-153.18z"/>
			<path class="st50" d="M-152.44,25.42c-4.96,0.08-9.92,0.16-10.42-5.39c3.22-0.19,6.45-0.38,9.67-0.57
				C-152.94,21.45-152.69,23.43-152.44,25.42z"/>
			<path class="st51" d="M-2.04-65.39c-0.97,0.12-1.94,0.27-2.9,0.44c-1.84-1.78-3.67-3.57-5.51-5.35
				C-3.77-73.01,0.15-72.63-2.04-65.39z"/>
			<path class="st52" d="M98.22,64.38c-0.93,0.72-1.87,1.44-2.8,2.17c-16.86,0.93-34.81,6.03-47.74-8.13
				c-6.31-11.28-5.19-23.21-2.68-34.7C47.42,12.56,58.16,7.24,71.65,6.41c14.4-0.89,26.96,2.18,33.22,13.98
				C113.16,36,106.95,50.35,98.22,64.38z"/>
			<path class="st53" d="M-120.8,55.91c-7.11-8.47-3.77-17.25-2.23-26C-116.13,38.21-119.16,47.14-120.8,55.91z"/>
			<path class="st54" d="M-46.87,33.59c2.02,0.9,4.05,1.81,6.07,2.71c0.1,2.79,0.19,5.57,0.29,8.36
				c-0.91,9.14,3.95,18.28-0.05,27.42c-2.16-0.03-4.32-0.07-6.47-0.1c-0.26-0.84-0.62-1.66-1.07-2.45
				c-1.44-10.97-1.56-21.94,0.12-32.91C-47.6,35.61-47.24,34.6-46.87,33.59z"/>
			<path class="st55" d="M-111.91,28.3c8.12,8.06,1.7,17.36,3.27,26.01c1.05,5.81,0.22,11.84,0.23,17.77
				c-1.04,0.93-2.05,0.87-3.05-0.04C-111.62,57.46-111.77,42.88-111.91,28.3z"/>
			<path class="st38" d="M-47.97,36.62c-0.04,10.97-0.08,21.94-0.12,32.91c-2.12,0.83-4.23,1.66-6.35,2.48
				c-1.71-1.78-1.7-3.54,0.05-5.29C-45.34,57.65-55.6,45.89-47.97,36.62z"/>
			<path class="st56" d="M-111.47,72.04c1.02,0.04,2.03,0.05,3.05,0.04c6.47,0.07,13.39-0.8,16.97,5.3
				C-98.16,75.69-108.3,82.4-111.47,72.04z"/>
			<path class="st57" d="M-149.74,77.13c0.23-1.67,0.46-3.35,0.7-5.02c4.54,0.04,9.09,0.08,13.63,0.12
				C-136.96,80.02-144.12,77.1-149.74,77.13z"/>
			<path class="st58" d="M-54.39,66.72c-0.02,1.76-0.03,3.53-0.05,5.29c-3.01-0.32-7.92,1.11-7.88-2.68
				C-62.3,65.59-57.43,66.98-54.39,66.72z"/>
			<path class="st38" d="M-68.02,53.65c-3.01-5.85-3.5-11.69,0.18-17.5C-67.9,41.98-67.96,47.82-68.02,53.65z"/>
			<path class="st59" d="M-175.81-70.83c-6.7-6.85-3.62-14.89-3.77-22.4c-0.34-16.82,0.09-33.64,0.21-50.46
				c19-3.9,38.01-3.62,57.04-0.13c0.1,20.46,0.18,40.92,0.33,61.38c0.03,4.12,0.17,8.21-3.47,11.59
				C-142.26-68.21-159.03-68.23-175.81-70.83z"/>
			<path class="st60" d="M-183.57-153.1c0.97-2.85,2.91-4.83,6.89-4.84c16.14-0.05,32.29-0.07,48.43-0.1
				c4.03-0.01,5.89,1.99,6.86,4.83C-142.11-153.18-162.84-153.14-183.57-153.1z"/>
			<path class="st60" d="M-122.34-143.82c-19.02-1.49-38.03-1.93-57.03,0.13C-160.39-149.81-141.37-149.57-122.34-143.82z"/>
			<path class="st61" d="M-175.81-70.83c16.78-0.01,33.56-0.01,50.34-0.02c-16.51,6.06-33.71,2.29-50.65,2.29
				c-0.18,0-0.54-0.73-0.48-1.08C-176.53-70.05-176.09-70.43-175.81-70.83z"/>
			<path class="st62" d="M24.12,214.46c-0.02-26.01,0.43-52.02-0.3-78.02c-0.28-9.73,3.85-12.62,15.54-12.34
				c24.82,0.59,49.69,0.59,74.51,0c11.68-0.28,15.83,2.62,15.55,12.35c-0.74,25.99-0.31,52.01-0.35,78.02
				C94.08,214.46,59.1,214.46,24.12,214.46z"/>
			<path class="st63" d="M-107.86,154.6c0.76,0.01,1.51,0.11,2.24,0.28c-0.2,8.32,6.73,8.1,13.9,7.57
				c0.08,16.53,0.16,33.06,0.25,49.6c-0.82,1.11-1.95,1.93-3.44,2.41c-3.53-0.11-7.06-0.22-10.59-0.33
				c-4.05-1.61-6.27-4.27-6.99-7.82c-1.28-13.12-0.58-26.26-0.53-39.39C-113.01,162.44-113.14,157.73-107.86,154.6z"/>
			<path class="st64" d="M-141.99,176.46c5.05-4.15,2.07-9.56,3.41-14.29c12.72-7.26,15.93,0.87,17.13,7.97
				c2.1,12.39,1.38,24.98,0.33,37.49c-0.41,2.52-1.58,4.76-3.8,6.61c-5.84,0.08-11.67,0.17-17.51,0.25
				c-1.98-1.74-1.97-3.47,0.04-5.19C-142.26,198.35-142.13,187.41-141.99,176.46z"/>
			<path class="st65" d="M-74.02,154.72c8.81-1.14,13.86,0.54,13.36,9.11c-0.66,11.38-0.03,22.8,0.05,34.21
				c2.04,5.65-3.48,8.09-7.33,11.24c-2.11-0.91-4.22-1.82-6.33-2.73c-7.01-14.56-6.98-29.18-0.51-43.84
				C-74.53,160.04-74.27,157.38-74.02,154.72z"/>
			<path class="st66" d="M-142.4,209.3c-0.01,1.73-0.02,3.46-0.04,5.19c-22.42,3.65-15.18-10.4-17.25-18.89
				c-8.04-11.01-3.32-22.95-3.84-34.51c0.47-2.63,2.24-4.71,4.29-6.68c7.36,14.45,2.15,29.51,2.96,44.27
				C-155.81,207.02-152.63,210.52-142.4,209.3z"/>
			<path class="st55" d="M-74.78,162.7c0.17,14.61,0.33,29.23,0.5,43.84c0.18,5.72-2.35,9.17-10.33,8.03
				c1.17-9.03,3.58-17.96,3.34-27.1l-0.15-0.28c-2.53-7.18-2.23-14.39-0.21-21.6C-79.34,164.63-77.06,163.66-74.78,162.7z"/>
			<path class="st67" d="M-81.26,187.48c5.28,9.55,6.82,18.8-3.34,27.1c-3.44-0.04-6.88-0.07-10.32-0.11
				c1.15-0.81,2.3-1.61,3.44-2.42C-83.23,205.17-94.08,193.11-81.26,187.48z"/>
			<path class="st68" d="M-172.83,212.04c-0.3-5.48-0.59-10.97-0.89-16.45c-0.02-0.6-0.05-1.21-0.09-1.82
				c0.35-4.25,0.08-8.62,3.65-12.24c1.45-0.54,2.92-0.58,4.42-0.13c4.23,3.62,2.39,8.23,3.07,12.42c0.06,0.61,0.11,1.23,0.17,1.84
				C-171.43,198.86-167.3,207.44-172.83,212.04z"/>
			<path class="st69" d="M-159.59,159.92c-0.03,11.9-0.06,23.79-0.09,35.69c-0.94,0-1.88,0.02-2.82,0.06c0,0-0.31-0.12-0.31-0.12
				c-0.55-11.43-8.37-22.58-2.04-34.28C-163.57,159.6-161.81,159.15-159.59,159.92z"/>
			<path class="st70" d="M-67.94,209.27c-0.14-4.84,5.23-7.34,7.33-11.23c0.89,0.15,1.76,0.34,2.63,0.56
				c0.27,5.38,0.54,10.75,0.81,16.13C-61.04,213.27-62.62,208.85-67.94,209.27z"/>
			<path class="st71" d="M-124.92,214.24c-0.16-1.7-0.31-3.39-0.47-5.09c3.57-2.45,7.66-3.16,12.2-2.35
				c1.66,0.46,3.18,1.13,4.57,1.99c1.04,1.78,2.08,3.56,3.12,5.34C-111.98,214.17-118.45,214.21-124.92,214.24z"/>
			<path class="st72" d="M-40.56,72.08c-4.52-9.14-5.92-18.29,0.05-27.42c4.21,8.97,13.43,16.12,14.89,26.13
				C-30.63,73.18-35.69,71.86-40.56,72.08z"/>
			<path class="st7" d="M-159.59,159.92c-1.22,0.07-2.44,0.15-3.67,0.22c-2.43,1.92-2.9,4.37-2.93,6.97
				c-1.67,3.55,2.62,11.26-8.66,8.09c-3.38-5.37-2.95-10.51,1.43-15.4c0.14-1.74,0.27-3.48,0.41-5.21c2.29-0.47,4.58-0.94,6.88-1.41
				c2.3,0.41,4.59,0.83,6.89,1.24C-159.36,156.25-159.47,158.09-159.59,159.92z"/>
			<path class="st73" d="M-48,165.92c0,8.78,0,17.55,0,26.33c-0.56,0.01-1.12,0.01-1.68,0.02c0-8.8,0-17.6,0-26.4
				C-49.12,165.88-48.56,165.9-48,165.92z"/>
			<path class="st74" d="M-101.71,30.96c11.2,8.97,2.58,18.2,0.55,27.35C-104.98,49.24-103.98,40.11-101.71,30.96z"/>
			<path class="st55" d="M-101.71,30.96c0.18,9.12,0.36,18.23,0.55,27.35C-107.58,49.27-106.73,40.14-101.71,30.96z"/>
			<path class="st75" d="M-179.71,195.63c-7.61-11.48-2.13-23.65-2.79-35.5c-0.01-0.21,0.76-0.62,1.18-0.64
				c0.52-0.03,1.06,0.26,1.6,0.41C-174.02,171.8-168.06,183.71-179.71,195.63z"/>
			<path class="st76" d="M-179.71,195.63c4.2-11.91,4.2-23.82-0.01-35.73c2.1-0.03,4.2-0.06,6.3-0.09
				c0.25,5.47,0.51,10.94,0.77,16.4c1.97,1.85,2.26,3.95,1.45,6.22c-0.69,4.34,1.09,8.86-1.41,13.08c0,0-1.11,0.08-1.11,0.08
				C-175.71,195.6-177.71,195.61-179.71,195.63z"/>
			<path class="st77" d="M-71.11-141.89c3.25,1.02,5.5,2.85,6.8,5.45c3.01,4.93,0.59,10.12,1.19,15.18
				c-0.11,6.04-0.33,12.07-4.43,17.44c-1.12,0.18-2.23,0.37-3.35,0.55c-4.24-5.15-3.63-10.98-3.59-16.73
				c4.58-5.98-0.99-13.12,3.36-19.12C-71.12-140.04-71.12-140.96-71.11-141.89z"/>
			<path class="st78" d="M-67.56-103.82c-0.02-6.28-0.04-12.56-0.05-18.84c1.51-0.85,2.98-0.8,4.4,0.14
				c4.27,4.07,0.13,9.11,2.37,13.42c-1.18,1.93-2.36,3.86-3.54,5.79C-65.46-103.4-66.51-103.58-67.56-103.82z"/>
			<path class="st79" d="M-71.13-139.11c-1.24,6.36,3.14,13.37-3.36,19.12C-73.13-126.34-77.64-133.36-71.13-139.11z"/>
			<path class="st80" d="M-81.62,165.59c0.07,7.2,0.14,14.4,0.21,21.6C-86.71,180.03-86.33,172.82-81.62,165.59z"/>
			<path class="st81" d="M-64.39-122.67l-1.61,0c0,0-1.61,0.01-1.61,0.01c-0.49-4.84,0.06-9.52,3.29-13.78
				c2.27-0.04,4.53-0.08,6.8-0.12c0,3.75,0,7.5,0.01,11.25C-59.44-123.8-61.44-122.42-64.39-122.67z"/>
			<path class="st35" d="M-64.39-122.67c1.52-2.2,4.02-2.73,6.88-2.64c0.05,5.56,0.65,11.2-3.33,16.22
				C-66.79-112.8-63.26-118.13-64.39-122.67z"/>
			<path class="st82" d="M-111.84,208.65c-4.52,0.17-9.03,0.34-13.55,0.5c0.02-12.65-0.07-25.29,0.11-37.94
				c0.11-7.58-3.58-11.11-13.3-9.04c-1.95-8.99,5.9-7.89,12.58-7.99c5.2-1.19,3.36-8.73,10.84-7.86c2.66,1.1,4.71,2.74,4.67,5.23
				C-110.83,170.59-108.28,189.67-111.84,208.65z"/>
			<path class="st83" d="M-111.84,208.65c-1.71-20.75,3.8-41.76-3.32-62.32c1.14-2.64,3.25-4.53,6.52-5.52
				c0.26,4.6,0.51,9.2,0.78,13.8c-0.25,18.07-0.51,36.13-0.76,54.2c0,0-1.62,0.07-1.62,0.07L-111.84,208.65z"/>
			<path class="st84" d="M77.34,16.92c0.74,7.08,2.45,11.35-0.99,15.75C73.47,27.72,73.51,23.19,77.34,16.92z"/>
			<path class="st85" d="M-139.03-89.82c-0.07,0.77-0.17,1.55-0.28,2.32c-10.95,1.1-14.58-5.74-19.19-11.54
				c-0.8-3.59-1.39-7.16,2.52-9.98c4.29-2.01,8.58-4.01,12.87-6.02c5.88,3.65,5.06,9.48,7.16,14.37
				C-135.04-96.7-136.17-93.1-139.03-89.82z"/>
			<path class="st86" d="M-139.03-89.82c0-3.67-0.01-7.35-0.01-11.02c-2.12-4.77-3.2-9.51,0.65-14.1
				C-124.51-107.11-124.7-99.5-139.03-89.82z"/>
			<path class="st87" d="M-163.2-117.03c-3.33-0.77-10.07,0.55-8.03-4.17c1.87-4.33,6.62-9.61,11.49-10.8
				c4.46-1.1,6.4,5.01,7.52,8.97c-1.14,3.82-5.85,3.97-9.01,5.7C-161.89-117.22-162.55-117.13-163.2-117.03z"/>
			<path class="st88" d="M-155.95-98.15c5.55,3.55,11.1,7.1,16.65,10.65c-0.1,1.24-0.21,2.48-0.31,3.72
				c-6.27,2.36-13.53-1.05-19.65,2.2c-2.97-1.22-3.48-3.36-3.31-5.76c2.25-1.53,1.18-3.92,2.26-5.76
				C-159.38-95.08-158.57-97.12-155.95-98.15z"/>
			<path class="st89" d="M-159.08-92.47c-0.35,2.07-0.67,4.16-3.49,5.14c-0.21-9.9-0.42-19.8-0.63-29.7c0,0,0.86-0.33,0.86-0.33
				c2.18-0.7,3.65-0.14,4.39,1.65C-158.15-107.96-156.38-100.15-159.08-92.47z"/>
			<path class="st90" d="M-159.08-92.47c-0.09-8.23-0.18-16.46-0.28-24.7c1.23-0.92,2.41-0.92,3.52,0.14
				c-0.04,2.67-0.09,5.34-0.13,8.01c0.01,3.62,0.02,7.25,0.02,10.87C-156.04-95.92-156.52-93.82-159.08-92.47z"/>
			<path class="st91" d="M-155.84-117.03c-1.17-0.05-2.34-0.09-3.52-0.14c-1-0.03-1.99-0.1-2.98-0.2
				c-0.89-6.86,8.06-2.24,10.11-5.67C-146.87-118.46-151.47-117.79-155.84-117.03z"/>
			<path class="st92" d="M-159.26-81.57c5.75-5.39,13.07-1.71,19.66-2.21C-145.59-79.73-152.67-82.06-159.26-81.57z"/>
			<path class="st93" d="M-138.39-114.94c-0.22,4.7-0.43,9.4-0.65,14.11c-5.83-3.9-2.15-9.57-4.07-14.2
				C-141.47-117.21-139.9-117.12-138.39-114.94z"/>
			<path class="st94" d="M71.81,170.74c-12.85,0-25.7,0-38.55,0c-0.03-1.12-0.05-2.24-0.08-3.37c28.94,0,57.88,0,91.73,0
				c-16.99,5.71-30.3,2.44-43.02,3.6C78.51,171.34,75.23,169.2,71.81,170.74z"/>
			<path class="st95" d="M81.59,145.83c-15.84-1.11-31.69-2.21-47.53-3.32c0-0.52,0.01-1.04,0.01-1.56c15.85,0,31.7,0,47.55,0
				C83.72,142.58,83.59,144.21,81.59,145.83z"/>
			<path class="st96" d="M68.13,195.51c-11.17,0-22.35,0-33.52,0c11.04-3.85,22.36-2.33,33.57-2.45c1.11,0.56,1.47,1.1,1.08,1.64
				C68.89,195.25,68.51,195.51,68.13,195.51z"/>
			<path class="st97" d="M85.04,193.23c11.19,0,22.38,0,33.58,0c-11.02,3.73-22.37,1.92-33.57,2.15c-1.13-0.48-1.51-0.95-1.13-1.43
				C84.28,193.47,84.65,193.23,85.04,193.23z"/>
			<path class="st98" d="M81.59,145.83c0.01-1.63,0.02-3.26,0.03-4.89c7.96,0,15.93,0,23.89,0c1.07,0.56,1.42,1.11,1.05,1.65
				c-0.37,0.54-0.73,0.81-1.1,0.81C97.43,143.75,89.19,142.74,81.59,145.83z"/>
			<path class="st99" d="M85.04,193.23c0.01,0.72,0.02,1.44,0.01,2.16c-5.59,3.89-11.24,3.14-16.91,0.13
				c-0.01-0.82,0-1.63,0.05-2.45C73.8,193.12,79.42,193.18,85.04,193.23z"/>
			<path class="st100" d="M71.81,170.74c3.49-3.57,6.84-3.3,10.08,0.23C78.39,174.69,75.13,171.92,71.81,170.74z"/>
			<path class="st101" d="M105.46,143.41c0-0.82,0.01-1.64,0.05-2.46c4.73,0.16,9.67-1.34,14.33,1.17
				C115.19,144.62,110.21,143.17,105.46,143.41z"/>
			<path class="st102" d="M-169.39,162.39c1.36-1.99,3.65-2.3,6.14-2.25c0.14,11.8,0.29,23.6,0.44,35.4
				c-5.92-3.76-2.32-9.17-3.63-13.72C-171.08,175.7-164.83,168.51-169.39,162.39z"/>
			<path class="st69" d="M-169.39,162.39c6.03,5.98,2.18,12.93,2.95,19.43c-1.05,0.04-2.1,0.07-3.15,0.08
				c-0.99,1.3-2.01,1.31-3.04,0.03c-0.01-1.91-0.02-3.81-0.03-5.72C-167.33,172.25-170.54,166.99-169.39,162.39z"/>
			<path class="st7" d="M-172.62,181.93c1.01-0.04,2.03-0.05,3.04-0.03c-0.77,4.57,2.09,9.67-3.02,13.6
				C-172.61,190.98-172.62,186.46-172.62,181.93z"/>
		</g>
	</g>
</g>
<path class="st103" d="M258.56,111.61c-1.07-2.61-23.75,6.71-22.68,9.31c1.07,2.61,7.02,2.64,13.28,0.07
	C255.42,118.42,259.63,114.22,258.56,111.61z"/>
<ellipse transform="matrix(0.9055 -0.4244 0.4244 0.9055 -26.7862 115.3812)" cx="245.61" cy="117.82" rx="1.85" ry="5.12"/>
<path class="st103" d="M231.03,121.5c-1.54-3.75-23.01,5.07-21.47,8.82c1.54,3.75,7.59,4.81,13.52,2.38S232.57,125.25,231.03,121.5z
	"/>
<ellipse transform="matrix(0.9055 -0.4244 0.4244 0.9055 -33.2797 106.3798)" cx="222.15" cy="127.89" rx="1.85" ry="5.12"/>
<path class="st84" d="M299.06,282.53c8.32,7.36,12.87,10.67,13.64,9.95c1.16-1.08-6.25-11.32-22.22-30.72"/>
</svg>
