<?xml version="1.0" encoding="utf-8"?>
<!-- Generator: Adobe Illustrator 26.2.1, SVG Export Plug-In . SVG Version: 6.00 Build 0)  -->
<svg version="1.0" id="Layer_1" xmlns="http://www.w3.org/2000/svg" xmlns:xlink="http://www.w3.org/1999/xlink" x="0px" y="0px"
	 viewBox="0 0 526 555" style="enable-background:new 0 0 526 555;" xml:space="preserve">
<style type="text/css">
	.st0{fill:#050508;}
	.st1{fill:#296E9C;}
	.st2{fill:#E2B0AC;}
	.st3{fill:#CBA7AA;}
	.st4{fill:#E0ADA8;}
	.st5{fill:#366689;}
	.st6{fill:#326C9B;}
	.st7{fill:#F8F8FA;}
	.st8{fill:#F8FAFB;}
	.st9{fill:#EB8B84;}
	.st10{fill:#F8F9FB;}
	.st11{fill:#EE8D86;}
	.st12{fill:#A597C6;}
	.st13{fill:#396285;}
	.st14{fill:#2A6F9D;}
	.st15{fill:#E48B83;}
	.st16{fill:#9E96C6;}
	.st17{fill:#A39BA9;}
	.st18{fill:#2A719E;}
	.st19{fill:#286895;}
	.st20{fill:#DFB6B7;}
	.st21{fill:#FED3D0;}
	.st22{fill:#F6D0CB;}
	.st23{fill:#EB8E86;}
	.st24{fill:#E38E87;}
	.st25{fill:#E58F8A;}
	.st26{fill:#2C6993;}
	.st27{fill:#236D9D;}
	.st28{fill:#33729C;}
	.st29{fill:#2F6C9A;}
	.st30{fill:#ADC1D6;}
	.st31{fill:#F5B5AE;}
	.st32{fill:#FED4CF;}
	.st33{fill:#73859B;}
	.st34{fill:#788DA4;}
	.st35{fill:#E4E0EC;}
	.st36{fill:#FBF9FC;}
	.st37{fill:#E5E0EA;}
	.st38{fill:#F08B83;}
	.st39{fill:#E6DFE8;}
	.st40{fill:#A293BB;}
	.st41{fill:#F0ECF0;}
	.st42{fill:#AE8C93;}
	.st43{fill:#446E91;}
	.st44{fill:#EBDDE3;}
	.st45{fill:#81A0BA;}
	.st46{fill:#266289;}
	.st47{fill:#FDD5D1;}
	.st48{fill:#24648D;}
	.st49{fill:#EF8D85;}
	.st50{fill:#FEBFB8;}
	.st51{fill:#2A6F9E;}
	.st52{fill:#F0DEE2;}
	.st53{fill:#7794C3;}
	.st54{fill:#2771A1;}
	.st55{fill:#F0DDE0;}
	.st56{fill:#EEDEE4;}
	.st57{fill:#2D719E;}
	.st58{fill:#050000;}
	.st59{fill:#EEDEE3;}
	.st60{fill:#2D6288;}
	.st61{fill:#E8E1E9;}
	.st62{fill:#FCDDDB;}
	.st63{fill:#F3DDDF;}
	.st64{fill:#37739D;}
	.st65{fill:#EDDFE5;}
	.st66{fill:#778CA4;}
	.st67{fill:#E8DFE7;}
	.st68{fill:#2E5E80;}
	.st69{fill:#36709C;}
	.st70{fill:#356285;}
	.st71{fill:#322B32;}
	.st72{fill:#F7D9D9;}
	.st73{fill:#8DB0CB;}
	.st74{fill:#637A95;}
	.st75{fill:#EFDDE1;}
	.st76{fill:#504650;}
	.st77{fill:#3E729C;}
	.st78{fill:#EBDFE5;}
	.st79{fill:#8994AB;}
	.st80{fill:#3C749C;}
	.st81{fill:#F5DBDC;}
	.st82{fill:#FBDCDA;}
	.st83{fill:#F5DBDD;}
	.st84{fill:#D69B9E;}
	.st85{fill:#FCDFDC;}
	.st86{fill:#E6DDE7;}
	.st87{fill:#FBDEDC;}
	.st88{fill:#FADCDB;}
	.st89{fill:#A999BA;}
	.st90{fill:#F8D8D7;}
	.st91{fill:#FEE1DE;}
	.st92{fill:#33709A;}
	.st93{fill:#F6D8D8;}
	.st94{fill:#BBB7C7;}
	.st95{fill:#E9E0E8;}
	.st96{fill:#7E879A;}
	.st97{fill:#EADFE6;}
	.st98{fill:#C5BAC9;}
	.st99{fill:#FAD9D8;}
	.st100{fill:#336487;}
	.st101{fill:#E3DE00;}
	.st102{fill:#070000;}
	.st103{fill:#CCD61B;}
	.st104{fill:#EFE400;}
	.st105{fill:#11121D;}
	.st106{fill:#898493;}
	.st107{fill:#236F9F;}
	.st108{fill:#336488;}
	.st109{fill:#E0ABA6;}
	.st110{fill:#2570A1;}
	.st111{fill:#FCFBFB;}
	.st112{fill:#2F678F;}
	.st113{fill:#DC8C85;}
	.st114{fill:#266F9F;}
	.st115{fill:#778DA5;}
	.st116{fill:#E08F8B;}
	.st117{fill:#9C9CCE;}
	.st118{fill:#24648E;}
	.st119{fill:#8D9DCE;}
	.st120{fill:#BFDDED;}
	.st121{fill:#296999;}
	.st122{fill:#988FA7;}
	.st123{fill:#E48B82;}
	.st124{fill:#2C6288;}
	.st125{fill:#A293BA;}
	.st126{fill:#A198C8;}
	.st127{fill:#838FA5;}
	.st128{fill:#676A7E;}
	.st129{fill:#F3D3D1;}
	.st130{fill:#26709E;}
	.st131{fill:#FDFDFE;}
	.st132{fill:#2E678F;}
	.st133{fill:#3E779E;}
	.st134{fill:#7D9EB9;}
	.st135{fill:#EC8A81;}
	.st136{fill:#316A9A;}
	.st137{fill:#F9FBFC;}
	.st138{fill:#F0F6F8;}
	.st139{fill:#2772A1;}
	.st140{fill:#286995;}
	.st141{fill:#246994;}
	.st142{fill:#23648E;}
	.st143{fill:#709CCC;}
	.st144{fill:#4873A1;}
	.st145{fill:#6C9ACA;}
	.st146{fill:#6E9CCC;}
	.st147{fill:#ED8C85;}
	.st148{fill:#FCC4BE;}
	.st149{fill:#5D596A;}
	.st150{fill:#AA97A6;}
	.st151{fill:#CD8D8D;}
	.st152{fill:#B8D1E6;}
	.st153{fill:#2A658C;}
	.st154{fill:#2A6B9A;}
	.st155{fill:#608CB9;}
	.st156{fill:#709DCE;}
	.st157{fill:#5C7AA9;}
	.st158{fill:#E48F8C;}
	.st159{fill:#296F9F;}
	.st160{fill:#25648D;}
	.st161{fill:#EDF9FB;}
	.st162{fill:#2E5F83;}
	.st163{fill:#497598;}
	.st164{fill:#A092B7;}
	.st165{fill:#3B6689;}
	.st166{fill:#2C6A98;}
	.st167{fill:#6494C2;}
	.st168{fill:#6292C2;}
	.st169{fill:#2F6E9D;}
	.st170{fill:#7C9EB9;}
	.st171{fill:#2D6894;}
	.st172{fill:#C7B1C1;}
	.st173{fill:#29658E;}
	.st174{fill:#C1E2F3;}
	.st175{fill:#2E5E81;}
	.st176{fill:#DC8B84;}
	.st177{fill:#2B6288;}
	.st178{fill:#326992;}
	.st179{fill:#537A99;}
	.st180{fill:#3D6280;}
	.st181{fill:#E49590;}
	.st182{fill:#D09CA1;}
	.st183{fill:#8A707A;}
	.st184{fill:#A77074;}
	.st185{fill:#886C75;}
	.st186{fill:#E79793;}
	.st187{fill:#93656C;}
	.st188{fill:#DF9796;}
	.st189{fill:#7C7385;}
	.st190{fill:#987885;}
	.st191{fill:#E69793;}
	.st192{fill:#866B73;}
	.st193{fill:#B87A7B;}
	.st194{fill:#E59894;}
	.st195{fill:#3C607D;}
	.st196{fill:#A69AC6;}
	.st197{fill:#94A3B7;}
	.st198{fill:#DE9490;}
	.st199{fill:#A86F73;}
	.st200{fill:#93A6BA;}
	.st201{fill:#EEEDEF;}
	.st202{fill:#57769E;}
	.st203{fill:#577794;}
	.st204{fill:#A498C7;}
	.st205{fill:#D1EEFC;}
	.st206{fill:#28709F;}
	.st207{fill:#266B98;}
	.st208{fill:#8092C1;}
	.st209{fill:#486685;}
	.st210{fill:#5C657E;}
	.st211{fill:#8796AE;}
	.st212{fill:#AEA5BA;}
	.st213{fill:#89717D;}
	.st214{fill:#506883;}
	.st215{fill:#F9F9FD;}
	.st216{fill:#A09BC8;}
	.st217{fill:#30648C;}
	.st218{fill:#A698BD;}
</style>
<g>
	<g>
		<path class="st0" d="M256.48,144.44c-8.76-16.51-2.66-32.62,2.01-48.44c2.06-6.98,7.06-1.4,10.75-0.37
			c3.56,0.55,6.72-1.19,10.08-1.75c0.56-0.55,1.57-1.08,1.61-1.67c0.89-12.76,6.96-15.27,17.61-8.96c3.24-0.25,6.48-0.47,9.7,0.14
			c18.52-10.2,38.19-17.29,58.9-21.56c2.16-2.07,4.49-1.59,6.87-0.45c8.96,0,17.93,0.01,26.89,0.01c2.32-1.11,4.6-1.75,6.63,0.56
			c19.17,4.8,38.09,9.6,54.13,22.51c20.17,16.22,30.03,37,31.54,62.23c0.43,7.22,0.38,14.46,0.54,21.69c1.04,3.04,2.1,6.09-0.7,8.83
			c-3.96,18.43-6.63,37.16-13.9,54.8c-6.19,15.03-13.76,29.15-25.35,40.77c-5.24,5.25-11.68,11.04-18.91,5.25
			c-7.49-5.99-2.41-12.77,1.82-19.03c14.6-21.65,25-44.95,27.27-71.3c-1.97-3.29-0.01-7.28-1.9-10.58
			c-1.25-4.42-4.13-7.25-8.56-8.56c-5.12-1.94-10.43-1.46-15.68-1.46c-47.42-0.02-94.83,0.02-142.25-0.04
			c-5.65-0.01-11.36,0.55-16.9-1.07c-3.09-1.34-6.58-1.78-9.36-3.88c-1.5-1.01-2.68-2.32-3.33-4.02c0.33-2.98,1.12-6.07-1.72-8.45
			C262.07,147.29,259.03,146.22,256.48,144.44z"/>
		<path class="st1" d="M459.81,165.75c3.69,2.16,4.88,5.44,4.28,9.52c-6.32,3.79-14.03-0.62-20.32,3.39
			c-4.42,0.98-8.9,0.59-13.36,0.59c-117.75,0.02-235.51,0.04-353.26-0.04c-5.91,0-12.35,1.66-17.27-3.53
			c-5.74-0.33-11.49-0.66-17.23-0.99c-5.86-11.11,2.3-9.83,8.86-9.95c1.21-0.02,2.42,0.09,3.62,0.29
			c23.69-0.98,47.41-0.58,71.12-0.63c5.15-0.01,9.51-1.21,12.68-5.49c2.91-1.92,4.47-0.37,5.66,2.17l0.78-0.27
			c1.4,1.65,3.35,2.12,5.36,2.51c24.59,0.58,49.13-1.65,73.73-0.98c76.07,3.25,152.17,2.27,228.26,2.41
			C455.11,164.74,457.6,164.36,459.81,165.75z"/>
		<path class="st2" d="M449.46,510.85c1.38,9.38-4.77,9.16-11.32,9.15c-61.16-0.09-122.33-0.05-183.49-0.05
			c-60.35,0-120.71-0.04-181.06,0.05c-6.57,0.01-12.71,0.2-11.19-9.2c3.34-4.85,8.55-4.07,13.29-4.07
			c120.17-0.11,240.34-0.11,360.51,0C440.94,506.73,446.16,505.95,449.46,510.85z"/>
		<path class="st3" d="M59.88,175.67c73.29-0.16,146.58-0.46,219.87-0.45c55.06,0,110.12,0.39,165.17,0.61
			c1.03,0.46,1.73,1.22,2.1,2.28c-1.06,5.74-5.61,4.85-9.54,4.85c-122.7,0.03-245.4,0.01-368.11,0.05
			C64.13,183.01,59.31,182.91,59.88,175.67z"/>
		<path class="st4" d="M446.96,345.34c-1.12,6.8-6.58,4.8-10.58,4.8c-124.73,0.05-249.46-0.02-374.19-0.06
			c-2.29-4.94,1.01-6.48,4.77-7.57c3.15-0.91,6.44-0.71,9.68-0.71c118.49-0.05,236.99-0.05,355.48,0.04
			C437.26,341.83,442.83,340.76,446.96,345.34z"/>
		<path class="st5" d="M40.34,340.38c0.02-3.83,0.04-7.66,0.06-11.49c10.2-3.75,20.83-0.58,31.16-1.87
			c1.25-0.44,2.55-0.76,3.85-0.99c6.78,0.87,13.58,2.31,20.3-0.4c1.76-0.48,3.57-0.67,5.39-0.69c5.45-1.49,13.46,3.66,15.72-6.09
			c0.47-14.17-0.01-28.31,0.25-42.44c0.09-5.23-0.31-10.76,5.79-13.47c0.87,0.14,1.74,0.28,2.61,0.42
			c6.32,6.84,2.76,15.23,3.54,22.92c0.44,4.34,0.09,8.77,0.1,13.15c-0.47,7.65,1.92,15.22,0.46,22.94
			c-1.64,8.68-5.77,13.61-15.52,13.39c-16.23-0.37-32.48-0.11-48.72,0.01c46.86-0.49,93.74-2.53,140.56-1.98
			c45.46,0.53,90.92,0.45,136.38,0.61c38.93,0.13,77.86,0.04,116.8,0.49c1.53,0.27,2.94,0.83,4.24,1.67
			c1.37,1.09,1.69,2.43,0.97,4.01l0.13,0.2c-4.38,3.01-9.39,2.13-14.19,2.13c-131.14,0.05-262.27,0.04-393.41-0.02
			C51.26,342.87,45.33,344.38,40.34,340.38z"/>
		<path class="st6" d="M125.51,299.29c-0.01-11.98-0.03-23.96-0.04-35.94c6.45-0.05,12.9-0.1,19.35-0.15
			c4.35,3.88,4.44,9.14,4.56,14.33c0.21,9.16,0.05,18.32,0.1,27.48c0.1,18.53,0.11,18.53,19.48,19.75
			c6.75-2.43,16.91,4.55,20.25-7.3c-0.12-12.92-0.12-25.81,0.04-38.69c0.07-5.62-0.07-11.42,4.91-15.55
			c7.98-0.03,15.96-0.07,23.94-0.1c6.56,14.29,2.62,29.44,3.52,44.18c0.37,6.02,0.36,12.1-0.33,18.13
			c-0.27,1.47-0.84,2.82-1.68,4.06c-5.16,3.88-7.81,0.02-10.62-3.39c-1.51-3.17-1.62-6.52-1.22-9.92
			c2.12-12.39,1.45-24.9,1.02-37.37c-0.11-3.26,0.93-9.46-6.33-6.22c-5.26,17.26-2.86,34.55-0.77,51.85
			c-0.39,7.98-4.76,11.36-12.59,11.21c-7.66-0.15-15.33,0.08-22.98-0.11c-6.25-1.43-12.66-0.97-18.98-1.57
			c-12.45-4.65-10.04-16.27-12.22-25.73c-1.45-8.16-0.2-16.46-1.05-24.51c-0.63,7.54,1.93,15.27-2.31,22.3
			C123.89,308.81,128.49,300.7,125.51,299.29z"/>
		<path class="st7" d="M206.62,422.94c6.22-3.58,12.42-3.09,18.61,0.08c0.57,0.48,1.14,0.96,1.72,1.43c0.86,1.23,1.5,2.56,1.94,3.99
			c1.52,22.66,2.21,45.32-1.07,67.93c-0.69,1.41-1.69,2.55-2.99,3.45c-6.87,2.34-13.63,3.25-19.89-1.67
			c-3.6-4.94-2.6-10.69-2.58-16.17c0.1-17.9-0.63-35.8,0.4-53.69c0.34-1.51,0.98-2.88,1.92-4.11
			C205.34,423.77,205.98,423.36,206.62,422.94z"/>
		<path class="st8" d="M194.15,263.22c-0.05,15.68,0.04,31.37-0.24,47.05c-0.07,3.74,1.94,8.12-2.19,11.15
			c-7.54,2.22-14.94,2.5-22.06-1.52c-1.97-1.61-3.44-3.76-3.35-6.17c0.6-16.95-4.21-34.23,3.02-50.78
			C177.61,263.04,185.88,263.13,194.15,263.22z"/>
		<path class="st9" d="M175.9,160.59c-1.29-9.42-2.58-18.85-3.88-28.27c14.6-7.52,30.3-5,44.95-2.25
			c8.96,1.68,4.29,12.04,3.66,18.87c-0.06,3.23-0.13,6.46-0.19,9.69c-0.59,2.45-2.16,3.92-4.6,4.5
			C202.5,162.67,188.88,166.64,175.9,160.59z"/>
		<path class="st10" d="M91.4,418.07c3.97-9.25,12.12-10.23,19.63-2.36c1.11,2.04,2.17,4.09,2.89,6.31
			c1.17,19.24,0.38,38.5,0.43,57.76c0.01,3.23-0.35,6.43-2.53,9.11c-5.83,4.06-11.87,3.77-18.03,0.87
			c-4.35-4.09-3.4-9.51-3.53-14.59c-0.42-16.32,0.61-32.65-0.6-48.96c-0.42-1.42-0.52-2.86-0.31-4.33
			C89.78,420.48,90.47,419.21,91.4,418.07z"/>
		<path class="st11" d="M225.76,497.49c0.02-24.04,0.04-48.08,0.06-72.12c4.56-4.32,10.12-1.6,15.21-2.17
			c0.48-0.12,0.97-0.21,1.46-0.3c4.48,7.42,2.27,15.6,2.04,23.32c-0.51,17.03,2.77,34.24-2.01,51.09
			C236.99,503.13,231.4,502.94,225.76,497.49z"/>
		<path class="st12" d="M247.92,277.31c5.88,9.62,11.2,19.63,17.8,28.73c5.75,7.93,4.93,13.23-3.68,17.55
			c-0.95,3.97-4.04,5.51-7.54,6.62c-1.83,0.35-3.61,0.17-5.34-0.52c-1.67-0.84-3.02-2.04-4.14-3.52c-6-10.99-12.3-21.82-18.39-32.77
			c-2.37-4.26-4.87-8.52-2.8-13.7c3.72-5.4,8.41-9.11,15.42-8.78C242.87,272.07,245.2,274.95,247.92,277.31z"/>
		<path class="st13" d="M449.46,510.85c-71-0.17-142.01-0.45-213.01-0.48c-58.02-0.02-116.04,0.27-174.05,0.42
			c-7.28-0.25-14.57-0.49-21.86-0.74c-3.43-3.89-3.52-7.77,0.05-11.63c4.75-0.18,9.51-0.36,14.26-0.54
			c6.5-4.34,12.93-4.81,19.27,0.3c-0.32,6.92-5.56,6.69-10.34,6.85c33.01-1.56,66.11-0.72,99.19-0.76
			c100.01-0.1,200.02-0.22,300.03,0.18c2.66,1.39,2.57,3.3,1.07,5.49C459.2,510.24,454.33,510.55,449.46,510.85z"/>
		<path class="st14" d="M332.72,323.36c-5.87-7.27-11.73-14.54-17.6-21.81c-1.19-2.47-1.98-5.04-1.94-7.81
			c-0.08-8.01-0.05-16.02-0.02-24.02c-0.14-3.27,0.74-6.2,2.99-8.65c1.57-6.66,5.94-11.3,11.21-15.28l0.23-0.22
			c2.3-2.64,4.8-5.06,8.08-6.51c4.08,0.17,8.01-2.8,12.2-0.59c1.06,1.6,1.24,3.32,0.74,5.14c-1.72,3.95-5.51,5.67-8.7,8.07
			c-12.98,9.76-17.05,23.05-14.04,38.35c2.82,14.36,12.19,23.75,26.46,26.47c15.31,2.92,28.84-1.05,38-14.89
			c1.99-3,3.8-6.18,6.94-8.24c1.7-0.93,3.5-1.22,5.41-0.93c1.26,0.33,2.29,1.01,3.09,2.04c-0.12,10.87-8.74,16.6-14.66,23.97
			c-2.5,3.69-5.53,6.87-9.13,9.52c-2.55,1.41-5.21,2.43-8.18,2.38c-1.14-0.07-2.26-0.29-3.35-0.63c-6.84-3.02-13.85-3.07-20.97-1.07
			c-1.78,0.39-3.56,0.48-5.38,0.4C339.56,328.64,335.62,327.02,332.72,323.36z"/>
		<path class="st15" d="M300.85,497.39c-0.56-1.38-1.12-2.76-1.68-4.14c0.99-1.14,2.18-2.03,3.54-2.68
			c1.41-0.47,2.84-0.89,4.28-1.28c31.57-1.48,63.16-0.29,94.74-0.7c15.57-0.2,17.85-2.93,17.27-18.66
			c-0.7-19.26-1.25-38.53-0.08-57.8c0.77-12.76-2.04-15.76-14.86-15.98c-32.39-0.55-64.79,0.8-97.18-0.72
			c-1.45-0.37-2.88-0.8-4.3-1.28c-1.35-0.69-2.52-1.6-3.52-2.73c-0.2-0.69-0.3-1.4-0.32-2.12c4.18-3.39,9.19-2.68,13.99-2.69
			c33.63-0.09,67.26,0.05,100.88-0.09c4.07-0.02,8.15-0.3,11.54,2.59c-0.06,36.15-0.12,72.31-0.17,108.46
			c-3.31,4.81-8.46,4.05-13.18,4.07c-32.63,0.14-65.25,0.14-97.88,0C309.21,501.61,304.03,502.35,300.85,497.39z"/>
		<path class="st16" d="M171.47,328.53c-26.27,0.51-26.23,0.51-26.29-25.56c-0.03-13.26-0.24-26.51-0.36-39.76
			c1.75,0.02,3.5,0.04,5.25,0.05c18.06,2.07,18.16,2.07,18.01,20.84c-0.08,10.06,0.83,20.15-0.59,30.16
			c-0.5,3.56,0.52,6.3,2.95,8.73C171.73,324.67,172.9,326.37,171.47,328.53z"/>
		<path class="st17" d="M40.34,340.38c137.71,0,275.42,0,413.13,0.03c3.64,0,7.28,0.24,10.92,0.36c-0.05,0.68-0.15,1.36-0.28,2.03
			c-5.93,2.79-12.22,0.67-18.31,1.34c-128.31,0.15-256.61-0.29-384.91,0.22c-6.82-1.24-14.03,1.6-20.65-1.89
			C40.22,341.77,40.25,341.07,40.34,340.38z"/>
		<path class="st18" d="M55.32,54.31c-0.01-1.59-0.03-3.18-0.04-4.77c2.33-2.62,5.42-3.42,8.74-3.44
			c23.43-0.13,46.86-0.53,70.29,0.22c1.62,0.05,3.14,0.71,4.55,1.46c1.31,0.78,1.97,1.96,1.95,3.47c-2.58,4.47-6.99,3.04-10.82,3.07
			c-12.06,0.12-24.13,0.04-36.19,0.04c10.71,0.01,21.42,0,32.12,0.01c4.9,0.01,9.88-0.23,12.08,5.61
			c1.35,29.45,1.51,58.87-0.04,88.3c-0.8,2.34-2.28,4.11-4.48,5.26c-22.04,3.19-44.23,0.37-66.34,1.61
			c-2.49-0.52-4.08-2.08-5.06-4.33c-2.36-29.23-0.63-58.51-0.97-87.71c0.04-1.2,0.23-2.44,0.53-3.61c-0.25-1.77,3.19-2.44,1.39-4.68
			c-0.83,0.25-1.6,0.41-2.42,0.51C58.7,55.57,56.9,55.48,55.32,54.31z"/>
		<path class="st19" d="M300.85,497.39c41.38,1.52,82.76,1.19,124.13,0.17c-0.01,0,0.47,1.06,0.47,1.06
			c12.99,2.39,26.3-1.29,39.26,1.98c0.29,1.75-0.39,2.92-2.07,3.51c-4.69,1.82-9.59,1.24-14.42,1.24
			c-75.63,0.04-151.26,0.06-226.89-0.05c-5.1-0.01-10.59,1.51-15.17-2.28c-1.26-5.09,2.82-3.34,4.96-3.61
			c4.64-0.59,9.41,0.72,14-0.92c0.05-0.44,0.27-0.78,0.66-1.01c5.6,0.99,11.19,1.09,16.76-0.17c0.89,0.46,1.78,0.91,2.67,1.37
			c17.69,1.08,35.38,1.08,53.06,0C299.11,498.25,299.98,497.82,300.85,497.39z"/>
		<path class="st20" d="M59.9,342.92c129.1,0.05,258.2,0.1,387.31,0.15c0.85,0.44,1.16,0.93,0.94,1.47
			c-0.23,0.56-0.47,0.84-0.73,0.84c0,0-0.44-0.04-0.45-0.04c-123.41,0.01-246.81-0.03-370.22,0.18c-4.95,0.01-11.82-3.48-14.56,4.56
			c-1.89-1.02-2.33-2.79-2.47-4.71C58.18,344.43,58.24,343.61,59.9,342.92z"/>
		<path class="st21" d="M84.07,187.75c-4.66-0.57-9.57,1.24-15.53-1.93c4.61-0.21,7.73-0.47,10.85-0.47
			c117.55-0.02,235.09-0.03,352.64,0.03c4.31,0,9.02-1.33,12.7,2.37c-3.38,2.05-7.12,1.15-10.7,1.16
			c-113.08,0.05-226.17,0.05-339.25,0C91.19,188.9,87.45,189.8,84.07,187.75z"/>
		<path class="st22" d="M84.07,187.75c120.22,0,240.43,0,360.65,0c-3.67,3.69-8.38,2.37-12.68,2.37
			c-111.76,0.07-223.53,0.07-335.29,0C92.45,190.12,87.74,191.44,84.07,187.75z"/>
		<path class="st23" d="M222.85,119.84c0.01,2.41,0.02,4.81,0.03,7.22c-1.06,1.75-2.31,3.48-4.53,3.44
			c-15.48-0.25-31.01,1.81-46.42-1.14c-2.89-8.56-2.78-15.94,7.7-19.19c2.26-1.55,4.8-0.93,7.26-0.94c1.5-0.01,3.01,0.01,4.51,0.02
			c1.03-0.05,2.06-0.05,3.09-0.04c1.59-0.04,3.18-0.03,4.77-0.01c1.11-0.02,2.2,0.04,3.3,0.15c2.35,0.17,4.22,1.41,6.08,2.66
			C212.13,116.86,220.08,113.71,222.85,119.84z"/>
		<path class="st24" d="M122.87,262.94c-3.78,15.72-0.8,31.68-1.72,47.51c-0.25,4.36-0.34,8.74-0.5,13.1
			c-2.06,1.54-4.04,1.37-5.96-0.24c-6.62-19.19-2.93-38.85-2.42-58.33c0.15-5.58,1.1-11.17,1.16-16.76c-0.77-2.1-0.3-5.53-2.47-6.06
			c-1.88-0.46-1.54,2.92-2.39,4.52c-1.16,7.16,0.31,14.16,0.98,21.22c0.49,5.09,0.93,10.34-3.32,14.42
			c-3.72,1.72-5.13-1.81-7.48-3.23c-1.35-1.08-2.51-2.33-3.38-3.84c-1.06-3.43-0.28-6.67,1.1-9.83c0.69-0.88,1.43-1.72,2.22-2.51
			c3.78-7.63,1.98-15.8,2.01-23.71c0.02-7.67,4.45-8.07,10.24-8.13c5.96-0.06,9.96,0.81,10.09,8.31
			C121.16,247.21,118.91,255.36,122.87,262.94z"/>
		<path class="st25" d="M55.4,495.58c-0.08-24.21-0.17-48.43-0.25-72.64c4.9-2.42,10.11-0.69,15.15-1.12
			c2.19,0.36,2.96,1.89,3.22,3.85c-0.05,1.82-0.77,3.36-2.06,4.61c-0.83,0.68-1.78,1.16-2.8,1.5c-1.82,0.57-3.92,0.68-4.91,2.79
			c-1.11,10.35,0.05,20.7-0.57,30.99c-0.39,6.41,2.96,9.42,8.32,11.37c1.15,0.86,2.01,1.92,2.65,3.19
			C76.43,496.89,73.98,498.91,55.4,495.58z"/>
		<path class="st26" d="M140.09,51.96c0-0.8,0-1.6-0.01-2.4c0.13-1.54,0.96-2.6,2.3-3.29c1.02-0.2,1.76,0.15,2.17,1.12
			c0.01,37.89,0.02,75.79,0.03,113.68c-1.49-0.81-2.98-1.62-4.47-2.42c-1.23-1.06-2.06-2.37-2.49-3.93
			c0.09-30.05-0.01-60.1,0.09-90.15C137.74,60.27,136.54,55.64,140.09,51.96z"/>
		<path class="st27" d="M55.32,54.31c1.46-0.78,2.93-1.57,4.39-2.35c3.58,4.11,2.36,9.12,2.38,13.79
			c0.11,27.14,0.04,54.29,0.06,81.43c-0.85,6.86,4.66,16.17-7.3,18.75l-0.04-0.02c-1.44-0.79-1.58-1.76-0.41-2.92
			C54.7,126.76,55.01,90.54,55.32,54.31z"/>
		<path class="st28" d="M405.77,294.49c-0.83-0.03-1.66-0.05-2.49-0.08c-6.6-5.98-1.39-14.16-4.01-20.88
			c-1.03-0.25-1.85-0.74-2.55-1.49c-4.33-12.44-13.74-19.79-25.2-25.12c-0.65-0.99-0.91-2.08-0.82-3.25
			c1.09-2.88,3.07-4.82,6.11-5.61c11.48-2.39,14.48,10.29,23.15,12.9c6.5,4.98,8.46,12.18,9.75,19.71
			c-0.81,7.07,0.05,14.19-0.76,21.26c-0.31,1.27-0.77,2.49-1.38,3.65C407.07,295.04,406.47,294.68,405.77,294.49z"/>
		<path class="st29" d="M187.02,112.74c-3.11,0.98-5.06-1.35-7.4-2.57c0,0-0.52-0.25-0.52-0.25c-3.42-6.38-4.29-13.36-4.84-20.42
			c0.71-8.65-1.82-17.52,1.91-25.94c1.66-8.13,0.27-18.26,12.71-19.39c0.38,0.43,0.77,0.85,1.16,1.28c0.7,1.65,0.72,3.33,0.21,5.04
			c-2.57,4.38-4.16,9.11-5.05,14.1c0.69,9.19-2.36,18.72,2.61,27.5c0.72,1.68,1.02,3.44,1.01,5.26
			C187.26,102.36,190.78,107.98,187.02,112.74z"/>
		<path class="st30" d="M175.9,160.59c14.43,0.07,28.85,0.14,43.28,0.22c16.64-2.23,33.43,0.16,50.08-1.67
			c2.23,0.82,4.46,1.64,6.69,2.47c-0.74,5.04-4.78,2.96-7.35,3c-15.31,0.22-30.62,0.11-45.93,0.11
			c-25.03-0.38-50.08,1.02-75.09-0.87c-0.74-1.01-1.48-2.02-2.21-3.03C155.54,160.73,165.72,160.66,175.9,160.59z"/>
		<path class="st31" d="M425.15,389.1c-42.14,0.07-84.28,0.13-126.41,0.2c0.75-0.92,1.5-1.85,2.25-2.77
			c13.18-2.57,26.5-0.81,39.75-1.07c25.02-0.48,50.05,0.29,75.08-0.34c3.15-0.08,6.49-0.35,9.41,1.48
			C425.2,387.43,425.17,388.26,425.15,389.1z"/>
		<path class="st32" d="M425.23,386.6c-41.41-0.03-82.83-0.05-124.24-0.08c3.68-3.64,8.37-2.27,12.66-2.32
			c33.88-0.39,67.76-0.66,101.64-0.94C418.95,383.24,422.55,383.61,425.23,386.6z"/>
		<path class="st33" d="M149.72,399.69c-0.17,0.56-0.06,1.07,0.32,1.51c2.33,6.3,0.16,12.91,1.33,19.3
			c2.49,4.01,2.66,8.44,2.34,12.95c0.38,18.82,3.42,37.73-2,56.35c-1.53,2.2-3.64,2.56-6.06,1.85c-1.25-0.94-1.99-2.2-2.22-3.74
			c0.87-22.98,0.18-45.98,0.4-68.95c1.44-9.16-1.53-15.08-11.74-15.68c-1.18-0.68-2.02-1.64-2.54-2.89c0.12-1.52,0.91-2.44,2.4-2.8
			C137.87,398.34,144.23,395.39,149.72,399.69z"/>
		<path class="st34" d="M374.39,328.49c2.44-0.86,4.87-1.72,7.31-2.59c23.98,2.47,48.03,0.71,72.05,1.35
			c4.28,0.11,8.84-1.46,12.84,1.43l-0.23-0.22c2.54,3.95,1.97,7.97,0.29,12.01l-1.18,0.2c0,0-1.2-0.11-1.2-0.11
			c-0.06-0.83-0.12-1.66-0.19-2.5c-4.04-4.56-9.52-3.6-14.65-3.63c-20.91-0.12-41.82,0.16-62.73-0.2
			C382.09,334.16,375.67,336.3,374.39,328.49z"/>
		<path class="st35" d="M247.87,325.63c0.59,0.85,1.17,1.71,1.76,2.56c-10.38,5.68-20.73,5.85-31.04-0.17
			c-0.17-21.64-0.33-43.27-0.5-64.91c1.62,1.56,3.25,3.11,4.87,4.66c3.29,4.57,1.61,9.54,1.18,14.41
			c-0.36,8.72,1.27,17.39,0.68,26.12c-0.57,8.43,2.06,14,11.9,13.54C240.82,321.65,244.55,323.19,247.87,325.63z"/>
		<path class="st36" d="M223.02,279.85c-2.73-4.01-2.74-8.03-0.06-12.07c2.82-1.4,5.73-2.66,8.45-4.23
			c7.56-4.38,11.04-2.01,11.07,6.39c-0.17,1.54-1.04,2.33-2.58,2.42c-4.84,2.52-9.69,5.04-14.53,7.56
			C224.54,281.39,223.76,281.37,223.02,279.85z"/>
		<path class="st37" d="M332.72,323.36c3.88,1.02,7.76,2.03,11.64,3.05c0.29,3.03-1.92,3.93-4.14,4.82
			c-25.22,1.56-50.46,0.46-75.69,0.6c-3.62,0.02-7.28-0.28-9.71-3.63c1.6-2.79,4.63-3.36,7.21-4.62
			C285.61,327.28,309.17,327.73,332.72,323.36z"/>
		<path class="st38" d="M300.96,493.19c-0.6,0.02-1.2,0.04-1.8,0.06c-0.04-33.94-0.08-67.89-0.11-101.83
			c0.64,0.02,1.27,0.03,1.91,0.04c3.48,3.46,3.54,7.91,3.55,12.36c0.08,25.67,0.08,51.35,0,77.02
			C304.49,485.28,304.47,489.74,300.96,493.19z"/>
		<path class="st39" d="M466.58,328.68c-23.67-0.1-47.34-0.19-71.01-0.3c-4.76-0.02-9.68,0.71-13.87-2.48
			c1.31-4.78,6.71-4.43,9.42-7.45c-2.32,7.37,2.11,7.59,7.6,7.54c18.49-0.18,36.98-0.15,55.47-0.01
			C458.43,326.02,463.17,324.55,466.58,328.68z"/>
		<path class="st40" d="M169.59,325.82c-5.13-0.53-5.83-4.32-4.78-7.94c3.7-12.68,1.14-25.62,2.19-38.37
			c0.79-9.53-0.97-15.95-12.65-14.41c-1.33,0.18-2.86-1.19-4.29-1.84c6.42-0.11,12.85-0.21,19.27-0.32
			c1.49,18.92-2.26,38.02,2.06,56.84C172.3,322.24,171.83,324.29,169.59,325.82z"/>
		<path class="st41" d="M150.42,432.93c-0.07-4.13-0.14-8.25-0.21-12.38c0.67-1.3,1.41-1.4,2.21-0.11
			c4.82,0.06,9.64,0.12,14.46,0.18c2.72,1.21,4.12,3.41,4.71,6.22c0.29,2.96-0.34,5.58-2.86,7.48
			C162.36,437.27,156.17,437.9,150.42,432.93z"/>
		<path class="st42" d="M71.81,427.8c0.04-1.56,0.08-3.12,0.13-4.68c0.71-0.22,1.42-0.45,2.14-0.67c1.29,0.84,2.23,1.96,2.84,3.36
			c1.06,23.58,2.87,47.18-1.03,70.7c-0.56,0.49-1.13,0.98-1.7,1.47c-6.45-0.03-12.9-0.06-19.35-0.1c0.08-0.79,0.26-1.56,0.56-2.3
			c16.58,0.26,16.58,0.26,16.41-16.84C65.9,461.76,66.57,444.78,71.81,427.8z"/>
		<path class="st43" d="M227.88,78.34c8.1,0.49,7.07,6.73,4.5,10.16c-5.31,7.09-8.77,16.58-19.11,18.74
			c-3.67-3.78-2.77-7.74-0.49-11.76c3.51-5.55,11.28-7.51,12.68-14.88C226.07,79.64,226.88,78.89,227.88,78.34z"/>
		<path class="st44" d="M54.98,44.96c0.94-0.72,1.88-2.07,2.82-2.07c28.1-0.09,56.19-0.07,84.29,0.06c0.92,0,1.83,1.41,2.74,2.16
			c-7.33,3.22-15.08,1.87-22.66,1.94c-18.11,0.17-36.23,0.11-54.34,0.02C63.45,47.05,58.89,47.84,54.98,44.96z"/>
		<path class="st45" d="M54.98,44.96c29.95,0.05,59.9,0.1,89.85,0.15c0.06,0.78-0.03,1.54-0.26,2.28c-0.73,0.04-1.45,0.13-2.17,0.26
			c-29.08,0.9-58.15,1.51-87.22-0.31C54.93,46.56,54.87,45.76,54.98,44.96z"/>
		<path class="st46" d="M55.17,47.33c29.07,0.1,58.15,0.2,87.22,0.31c-0.77,0.64-1.54,1.28-2.31,1.92
			c-28.27-0.01-56.54-0.02-84.81-0.02C54.88,48.82,54.85,48.09,55.17,47.33z"/>
		<path class="st47" d="M429.65,392.36c0,25.99,0,51.98,0,77.97c-0.38,0.01-0.77,0.01-1.15,0.02c0-25.94,0-51.88,0-77.81
			C428.88,392.48,429.26,392.42,429.65,392.36z"/>
		<path class="st48" d="M98.54,265.31c1.05,3.27,0.62,6.29-1.52,9.03c-5.55,6.62-12.22,5.36-19.09,2.71
			c-3.28-3.3-5.83-6.84-3.63-11.83c1.65-0.64,3.3-1.29,4.95-1.93C85.49,265.73,92.35,262.33,98.54,265.31z"/>
		<path class="st49" d="M101.71,408.64c-3.85-1.01-9.65,1.64-9.24-4.84c0.34-5.4,5.46-4.84,9.32-4.74c3.68,0.09,8.99-1.19,8.74,4.93
			C110.28,410.2,104.6,407.37,101.71,408.64z"/>
		<path class="st50" d="M171.93,129.36c16.97-1.02,34.17,2.9,50.95-2.3c-0.78,7.29,2.34,14.98-2.26,21.88
			c-0.27-16.95-0.27-16.98-17.02-16.92c-10.53,0.04-21.06,0.19-31.58,0.3C171.99,131.33,171.96,130.34,171.93,129.36z"/>
		<path class="st51" d="M215.64,95.57c-2.17,3.61-2.67,7.57-2.37,11.68c-1.31,1.12-3.96,0.23-4.29,2.83c-6.48,1-5.56-4.09-6.43-7.71
			c-0.05-1.92,0.04-3.84,0.38-5.73c1.55-3.91,1.92-8.08,2.53-12.2c0.36-1.12,0.92-2.14,1.63-3.08c1.98-1.85,4.18-1.45,6.41-0.62
			c0.97,0.48,1.82,1.15,2.55,1.95c1.4,2.38,0.79,4.9,0.52,7.4C216.28,91.9,215.68,93.69,215.64,95.57z"/>
		<path class="st52" d="M74.3,265.23c0.89,3.07,1.78,6.15,2.67,9.22c6.75,17.42,7.76,34.76-0.68,51.98
			c-1.58,0.65-3.06,0.48-4.45-0.52c4.62-16.84,2.66-33.84,1.2-50.82C72.74,271.67,69.8,268.01,74.3,265.23z"/>
		<path class="st53" d="M188.88,44.16c4.4-8.45,4.4-8.45,12.39,0.23c3.22,3.68,4.49,8.3,6.2,12.7c0.25,2.54-0.44,4.59-3.04,5.59
			c-5.1,0.53-5.85-4.14-8.26-6.83c-1.29-0.88-2.47-1.87-3.47-3.07c-1.98-2.24-0.8-6.12-4.04-7.72L188.88,44.16z"/>
		<path class="st54" d="M376.81,238.05c-0.4,3.01-1.77,5.11-5.09,5.4c-7.04,2.05-14.32,0.69-21.45,1.48
			c-1.27-0.16-2.28-0.76-3.03-1.79c0-1.49,0-2.98,0-4.47c-1.44-0.81-1.51-1.74-0.23-2.78l-0.05,0.1c9.69-1.38,19.36-1.88,29.02,0.26
			C376.58,236.7,376.86,237.3,376.81,238.05z"/>
		<path class="st55" d="M269.26,159.13c-16.58,4.1-33.39,1.21-50.09,1.68c0.43-0.73,0.85-1.45,1.27-2.18
			c14.6-1.15,29.48,2.63,43.88-2.35c0.72-0.83,1.42-0.81,2.09,0.05C267.35,157.26,268.3,158.19,269.26,159.13z"/>
		<path class="st56" d="M317.5,260.48c-0.69,2.33-1.38,4.66-2.08,6.99c-1.8,9.13-1.66,18.27-0.06,27.42
			c-0.08,2.22-0.16,4.44-0.25,6.66c-6.57-9.23-6.33-32.61,0.43-41.08C316.2,259.19,316.86,259.19,317.5,260.48z"/>
		<path class="st57" d="M298.25,498.69c-17.69,3.04-35.38,3.04-53.07,0C262.87,498.69,280.56,498.69,298.25,498.69z"/>
		<path class="st58" d="M335.9,299.21"/>
		<path class="st37" d="M130.86,398.93c-0.15,0.77-0.19,1.54-0.14,2.33c5.62,12.82,4.24,17.71-6.33,22.51
			c-4.65,0.26-9.36,0.72-13.2-2.81c-0.05-1.75-0.11-3.5-0.16-5.25c4.85,2.23,9.7,4.3,14.53-0.04c3.11-5.31-0.82-11.62,2.39-16.92
			l0.03-0.03C129.03,397.51,129.99,397.58,130.86,398.93z"/>
		<path class="st57" d="M463.7,500.55c-12.73-1.11-25.69,2.35-38.26-1.93c12.84-0.03,25.69-0.06,38.53-0.08
			c0.65,0.54,0.82,1.02,0.53,1.43C464.22,500.36,463.96,500.55,463.7,500.55z"/>
		<path class="st59" d="M407.56,295.58c-0.54-1.01-1.08-2.03-1.62-3.04c0.64-0.95,1.22-1.94,1.73-2.97
			c1.32-6.24-0.46-12.69,1.27-18.91c0.34-1.13,0.91-2.12,1.74-2.97c4.21,8.61,2.68,17.51,1.1,26.34
			C411.45,295.95,410.59,299.53,407.56,295.58z"/>
		<path class="st60" d="M213.43,83.35c-1.67-0.78-3.33-1.56-5-2.34c-2.7-1.81-3.27-4.6-3.5-7.54c0.54-5.25-1.78-11.65,5.69-14.15
			c0.13,3.04,0.25,6.07,0.38,9.11C215.32,72.84,215.89,77.85,213.43,83.35z"/>
		<path class="st61" d="M71.84,325.91c0.88,0.03,1.75,0.06,2.63,0.09c0.79,0.57,1.04,1.1,0.73,1.61c-0.29,0.49-0.58,0.73-0.87,0.73
			c-11.31,0.19-22.62,0.37-33.93,0.56C50.38,322.63,61.41,327.44,71.84,325.91z"/>
		<path class="st15" d="M222.85,119.84c-4.67-2.61-11.84,0.12-14.51-6.75c0.31-1.38,1.02-1.54,2.07-0.67
			C214.91,114.3,223.53,109.36,222.85,119.84z"/>
		<path class="st62" d="M447.02,178.11c-0.7-0.76-1.4-1.52-2.1-2.28c6.39-0.19,12.78-0.38,19.17-0.57c0.9,4.15,0.96,8.3-0.13,12.43
			C462.21,177.68,455.01,177.21,447.02,178.11z"/>
		<path class="st63" d="M176.16,91.29c0.98,6.21,1.96,12.42,2.94,18.63c-6.12-5.96-5.78-14.08-7.3-21.58
			c0.63-0.83,1.46-1.11,2.47-0.84C175.44,88.49,175.81,89.88,176.16,91.29z"/>
		<path class="st64" d="M375.98,236.25c-9.67-0.08-19.34-0.17-29.02-0.26C356.67,232.06,366.35,231.53,375.98,236.25z"/>
		<path class="st65" d="M317.5,260.48c-0.65,0-1.31,0-1.96-0.01c0.03-8.01,4.6-12.4,11.82-14.68
			C324.18,250.76,319.35,254.63,317.5,260.48z"/>
		<path class="st66" d="M176.16,91.29c-0.69-0.98-1.38-1.97-2.07-2.95c-1.49-8.11-2.19-16.21,0.4-24.25
			c0.56-0.18,1.12-0.36,1.69-0.53C176.17,72.8,176.16,82.04,176.16,91.29z"/>
		<path class="st67" d="M410.69,267.69c-0.12,1.03-0.23,2.06-0.35,3.09c-0.43,0.12-0.86,0.24-1.29,0.36
			c-0.35-0.27-0.71-0.54-1.06-0.81c0.14-7.61-5.28-12.95-8.03-19.38C408.35,253.47,408.6,261.17,410.69,267.69z"/>
		<path class="st39" d="M174.49,64.08c-0.13,8.08-0.27,16.17-0.4,24.25c0,0-1.14,0-1.14,0s-1.14,0-1.14,0
			C172.92,80.28,169,71.66,174.49,64.08z"/>
		<path class="st68" d="M205.49,57.14c-2.51-3.89-3.76-8.19-4.22-12.75c5.21,1.04,6.2,5.3,7.29,9.48
			C209.65,56.92,208.09,57.51,205.49,57.14z"/>
		<path class="st69" d="M205.49,57.14c1.02-1.09,2.04-2.18,3.07-3.28c1.85,1.38,2.25,3.31,2.07,5.46c-4.03,4.33-1.45,9.69-2.3,14.52
			c-1.86,0.9-3.01-0.14-4.07-1.46c-0.85-1.39-1.37-2.91-1.64-4.51c-0.28-2.1-0.73-4.24,0.89-6.07
			C205.2,60.68,205.61,59.03,205.49,57.14z"/>
		<path class="st70" d="M54.39,162.99c0.14,0.97,0.28,1.95,0.41,2.92c-6.21-0.03-13.31-1.3-12.15,8.77
			c-0.55,0.39-1.15,0.56-1.82,0.53c-4.11-3.7-3.42-7.64-0.61-11.69C44.94,163.34,49.66,163.16,54.39,162.99z"/>
		<path class="st71" d="M256.48,144.44c3.94,0.47,10.25-3.02,9.33,5.55c-0.94,1.72-2.08,2.91-4.19,1.59
			C258.41,150.26,257.38,147.39,256.48,144.44z"/>
		<path class="st72" d="M168.62,425.38c-0.58-1.59-1.16-3.17-1.74-4.76c6-4.84,13.05-1.55,19.56-2.51c0.31,0.46,0.62,0.92,0.94,1.38
			c-0.28,1.09-0.85,1.98-1.76,2.65c-4.3,2.56-9.44,1.04-13.92,2.79C170.68,425.2,169.66,425.35,168.62,425.38z"/>
		<path class="st65" d="M335.93,241.12c-2.78,1.48-5.55,2.97-8.33,4.45c1.67-6.92,6.07-9.89,13.15-8.96
			C341.15,240.24,337.03,239.09,335.93,241.12z"/>
		<path class="st73" d="M213.43,83.35c0.14-5.12-0.58-10.11-2.43-14.91c6.01,1.03,3.07,8.35,7.47,10.51
			c1.18,1.59,1.09,3.2,0.06,4.82c-1.08,0.66-2.14,0.6-3.19-0.08C214.71,83.51,214.08,83.4,213.43,83.35z"/>
		<path class="st74" d="M218.49,83.33c-0.01-1.46-0.01-2.92-0.02-4.38c3.07-1.31,6.02-4.37,9.41-0.61
			c-0.02,0.92-0.03,1.84-0.05,2.76c-1.2,1.32-1.95,3.19-4.11,3.35C221.93,84.31,220.07,84.44,218.49,83.33z"/>
		<path class="st75" d="M130.86,398.93c-0.96-0.07-1.92-0.13-2.88-0.2c7.41-3.4,14.74-4.93,21.74,0.96
			C143.43,399.44,137.15,399.18,130.86,398.93z"/>
		<path class="st76" d="M261.62,151.57c1.41-0.54,2.82-1.09,4.21-1.61c1.45-0.04,4.09-0.48,4.22-0.09c1.11,3.27-2.44,4.24-3.65,6.45
			c-0.7-0.04-1.39-0.06-2.09-0.05C263.41,154.71,262.52,153.14,261.62,151.57z"/>
		<path class="st77" d="M210.42,112.41c-0.75,0.04-1.44,0.26-2.07,0.67c-2.42-0.26-4.83-0.53-7.25-0.79c-2-3.13-0.98-6.3-0.15-9.47
			c0.44-1.03,1.06-1.93,1.86-2.72c1.05-0.58,2.06-0.51,3.02,0.2c0.39,3.47-0.92,7.49,3.16,9.78
			C209.46,110.86,209.94,111.64,210.42,112.41z"/>
		<path class="st78" d="M186.43,420.51c0-0.8,0-1.6,0-2.4c6.46,1.02,13.58-2.6,19.43,2.72C199.31,425.1,192.82,425.65,186.43,420.51
			z"/>
		<path class="st79" d="M186.43,420.51c6.48,0.11,12.95,0.22,19.43,0.32c0.11,0.76,0.36,1.46,0.77,2.11c0,0-0.51,0.38-0.51,0.38
			l-0.53-0.35c-4.14,4.29-9.35,3.52-14.5,3.01c-1.27-0.3-2.41-0.86-3.43-1.66c-1.01-0.95-1.33-2.1-0.94-3.44L186.43,420.51z"/>
		<path class="st80" d="M98.54,265.31c-6.42-0.73-13.21,1.98-19.29-2.01c6.48-0.13,12.96-0.27,19.45-0.4
			C98.64,263.7,98.59,264.51,98.54,265.31z"/>
		<path class="st81" d="M447.41,345.38c-0.13-0.76-0.2-1.53-0.21-2.31c5.64-0.09,11.27-0.19,16.91-0.28
			C459.3,348.49,452.88,343.9,447.41,345.38z"/>
		<path class="st82" d="M279.32,93.88c-2.61,4.88-5.98,5.4-10.08,1.75C272.27,93.15,275.3,90.69,279.32,93.88z"/>
		<path class="st67" d="M152.42,420.44c-0.74,0.05-1.47,0.08-2.21,0.11c-0.06-6.45-0.11-12.9-0.17-19.34
			C154.51,407.17,151.35,414.06,152.42,420.44z"/>
		<path class="st83" d="M59.9,342.92c-0.06,0.82-0.12,1.63-0.19,2.45c-6.46-1.16-13.67,2.69-19.47-2.9
			C46.79,342.62,53.34,342.77,59.9,342.92z"/>
		<path class="st84" d="M73.75,422.83c-0.61,0.09-1.22,0.18-1.82,0.29c-5.6-0.06-11.19-0.12-16.78-0.18
			c5.89-4.7,13.02-0.82,19.31-2.78c0.22,0.35,0.43,0.69,0.65,1.04C75.09,422.1,74.66,422.66,73.75,422.83z"/>
		<path class="st85" d="M493.04,177.21c0.23-2.94,0.47-5.89,0.7-8.83c3.38,4.48,2.36,9.3,0.92,16.69
			C493.78,180.84,493.41,179.02,493.04,177.21z"/>
		<path class="st75" d="M127.95,398.75c-0.83,5.63,1.94,11.77-2.39,16.92C126.29,410.02,123.48,403.88,127.95,398.75z"/>
		<path class="st86" d="M91.4,418.07c-0.02,0.84-0.03,1.68-0.05,2.52c-5.56,4.45-11.22,4.39-16.96,0.36c0,0,0.07-0.78,0.07-0.79
			C79.71,416.29,85.76,418.81,91.4,418.07z"/>
		<path class="st11" d="M225.24,423.02c5.73-3.38,11.48-3.37,17.25-0.11c0,0-0.19,0.2-0.19,0.2c-5.44,1.51-10.85,2.06-16.19-0.37
			L225.24,423.02z"/>
		<path class="st87" d="M407.53,61.96c-2.21-0.19-4.42-0.37-6.63-0.56c3.71-3.11,7.78-2.51,14.02-0.8
			C411.14,61.29,409.34,61.62,407.53,61.96z"/>
		<path class="st88" d="M374.01,61.39c-2.29,0.15-4.58,0.3-6.87,0.45c-1.49-0.21-2.98-0.43-4.47-0.64
			C366.54,59.26,370.34,58.27,374.01,61.39z"/>
		<path class="st89" d="M239.9,272.35c0.86-0.81,1.72-1.61,2.58-2.42c3.26,1.41,4.78,4.08,5.44,7.38
			C244.84,276.31,241.81,275.23,239.9,272.35z"/>
		<path class="st90" d="M36.78,340.73c-2.17-3.32-1.61-6.22-0.73-9.46C39.18,334.28,37.55,337.24,36.78,340.73z"/>
		<path class="st91" d="M308.24,83.4c-3.27,2.54-6.5,2-9.7-0.14C301.82,80.3,305.05,80.24,308.24,83.4z"/>
		<path class="st92" d="M335.93,241.12c1.61-1.51,3.21-3.01,4.82-4.52c2.09-0.24,4.18-0.48,6.26-0.72c0.08,0.93,0.15,1.85,0.23,2.78
			C343.46,239.49,339.69,240.3,335.93,241.12z"/>
		<path class="st93" d="M37.91,175.56c-3.77-3.97-3.59-7.99-0.17-12.06C39.73,167.49,39.45,171.52,37.91,175.56z"/>
		<path class="st94" d="M40.58,498.42c-0.02,3.88-0.03,7.75-0.05,11.63c-0.87,0.06-1.74,0.13-2.61,0.19
			c-2.07-4.04-2.11-8.07,0.02-12.1C38.82,498.24,39.7,498.33,40.58,498.42z"/>
		<path class="st95" d="M466.64,340.48c-0.1-4-0.19-8.01-0.29-12.01C470.37,332.37,470.17,336.38,466.64,340.48z"/>
		<path class="st96" d="M463.7,500.55c0.15-0.66,0.24-1.33,0.27-2.01c0.81-0.12,1.62-0.25,2.44-0.37c2.27,4,2.23,8.01,0.02,12.01
			l-1.19,0.01c0,0-1.16-0.26-1.16-0.26c-0.03-1.49-0.06-2.97-0.09-4.46c-0.73-0.56-0.98-1.12-0.74-1.69
			c0.24-0.57,0.48-0.85,0.72-0.85C464.07,502.12,463.98,501.33,463.7,500.55z"/>
		<path class="st97" d="M466.42,510.19c-0.01-4-0.01-8.01-0.02-12.01C470.3,502.17,470.34,506.18,466.42,510.19z"/>
		<path class="st98" d="M37.91,175.56c-0.06-4.02-0.11-8.04-0.17-12.06c0.82,0,1.65,0.01,2.47,0.01c0.2,3.9,0.4,7.8,0.61,11.69
			C39.85,175.32,38.88,175.44,37.91,175.56z"/>
		<path class="st99" d="M37.94,498.14c-0.01,4.03-0.02,8.06-0.02,12.1C34.2,506.2,34.16,502.17,37.94,498.14z"/>
		<path class="st100" d="M222.97,163.93c13.79-0.14,27.57-0.19,41.36-0.47c3.91-0.08,8.18,1.4,11.62-1.87
			c8.28,2.44,16.8,2.11,25.28,2.09c47.8-0.1,95.61-0.32,143.41-0.33c5.1,0,10.61-1.43,15.18,2.39
			c-78.95,0.06-157.89,0.12-236.84,0.18c-0.89-0.44-1.18-0.89-0.89-1.33C222.37,164.15,222.67,163.93,222.97,163.93z"/>
		<path class="st101" d="M273.75,125.88c-1.74,4.03-4.24,2.93-6.34,2.25c-2.06-0.67-5.52-0.76-5-3.79c0.61-3.55,4.3-3.08,6.66-2.39
			C270.97,122.5,272.4,124.68,273.75,125.88z"/>
		<path class="st102" d="M372.48,64.56c7.45,0,14.9,0,22.36,0c0.02,0.37,0.05,0.75,0.07,1.12c-7.38,0-14.77,0-22.15,0
			C372.67,65.3,372.58,64.93,372.48,64.56z"/>
		<path class="st103" d="M300.89,107.46c-1.26,2.54,3.52,7.55-3.15,7.81c-1.37,0.05-3.61,0.1-3.61-2.05
			c-0.01-4.55,2.82-5.95,6.98-5.48L300.89,107.46z"/>
		<path class="st104" d="M301.11,107.74c-0.23-2.56,0.07-5.15,3.25-5.14c1.68,0,2.09,2.03,1.77,3.72c-0.85,4.42-3.32,1.57-5.24,1.14
			C300.89,107.46,301.11,107.74,301.11,107.74z"/>
		<path class="st105" d="M322.49,122.15c0.99,0.38,1.98,0.77,2.98,1.15c-0.14,0.26-0.21,0.67-0.42,0.75
			c-2.15,0.77-3.46-0.31-4.44-2.07l1.01-0.57L322.49,122.15z"/>
		<path class="st106" d="M322.49,122.15c-0.63-0.02-1.26-0.08-1.89-0.18c0.39-0.56,0.77-1.13,1.16-1.69
			C322.01,120.9,322.25,121.53,322.49,122.15z"/>
		<path class="st107" d="M54.84,165.92c5.45-4.57,4.9-10.85,4.86-16.98c0.58-0.83,1.38-1.1,2.36-0.88c1.17,0.85,1.52,2.32,2.5,3.31
			c0.83,0.8,1.66,1.61,2.49,2.41c16.65-2.68,33.41-0.42,50.1-1.22c5.13-0.25,10.38,1.06,15.4-1c0.93-0.89,1.86-1.77,2.79-2.66
			c0.88-0.79,1.83-0.88,2.84-0.25c1.46,2.31-0.32,5.43,1.92,7.55c0,0.81,0.01,1.62,0.01,2.43c2.4,6.9,1.14,10.12-7.39,9.88
			c-19.87-0.56-39.76-0.15-59.64-0.19c-5.69-0.01-11.07,0.88-16.66,2.38C50.28,172.36,55.07,167.74,54.84,165.92z"/>
		<path class="st108" d="M222.97,163.93c0,0.66,0,1.33,0,1.99c-21.29,0-42.57,0.05-63.86-0.03c-3.92-0.02-8.13,1.05-11.53-2.06
			C172.71,163.68,197.84,161.79,222.97,163.93z"/>
		<path class="st109" d="M444.07,516.87c-125.47,0-250.94,0-376.41,0c0-0.38,0-0.75,0-1.13c125.47,0,250.94,0,376.41,0
			C444.07,516.11,444.07,516.49,444.07,516.87z"/>
		<path class="st110" d="M349.56,326.33c7.72-3.14,15.47-6.67,22.08,2.05c2.84,4.94,7.69,3.59,11.96,3.61
			c23.47,0.08,46.94-0.07,70.4,0.16c3.47,0.03,10.2-2.49,7.77,5.92c-139.04,0-278.08,0-417.69,0c1.74-6.93,6.24-4.72,9.24-4.75
			c19.47-0.23,38.96-0.51,58.42,0.06c10.16,0.3,14.08-3.91,13.8-13.5c-0.21-6.86-0.02-13.72-0.01-20.59
			c1.65,2.4,3.31,4.81,4.96,7.21c0.68-0.76,1.5-1.3,2.46-1.66c1.59-0.19,2.96,0.25,4.11,1.37c4.35,3.23,2.31,8.08,3.26,12.2
			c1.1,4.8,0.55,10.79,7.21,12.49c5.35,3.01,11.64-0.8,16.98,2.32c7.95,0,15.89-0.15,23.83,0.04c6.83,0.17,10.63-2.48,10.3-9.67
			c0.73-0.88,1.66-1.45,2.78-1.73c3.69-0.33,6.54,1.27,8.93,3.9c2.66,1.61,5.32,3.23,7.98,4.84c0.71,0.04,1.43,0.08,2.14,0.13
			c41.2-0.05,82.41,0.45,123.58-0.25C346.52,329.99,348.27,328.47,349.56,326.33z"/>
		<path class="st111" d="M74.33,328.33c0.03-0.78,0.07-1.56,0.14-2.34c4.91-12.5,1.08-25.5,2.18-38.22
			c0.38-4.42,0.23-8.88,0.33-13.33c6.68-0.04,13.35-0.07,20.04-0.11c1.05,0.28,2.09,0.57,3.12,0.85
			c6.36,17.58,7.48,35.23,0.73,52.99c-1.67,0.48-3.34,0.95-5.01,1.43c-6.24-0.04-12.47-0.04-18.71,0
			C76.21,329.18,75.27,328.76,74.33,328.33z"/>
		<path class="st112" d="M461.77,338.08c-1.36-6.42-6.58-4.76-10.68-4.79c-22.51-0.12-45.03,0.05-67.54-0.16
			c-4.35-0.04-10.16,2.28-11.91-4.74c0.92,0.03,1.83,0.07,2.75,0.1c3.61,3.96,8.36,2.15,12.57,2.19
			c22.63,0.19,45.26,0.12,67.89,0.07c5.15-0.01,10.17-0.16,9.22,7.31c0,0-1.16,0.01-1.16,0.01L461.77,338.08z"/>
		<path class="st113" d="M100.87,328.18c-0.24-17.66-0.48-35.33-0.73-52.99c3.54,1.23,3.34,4.24,3.42,7.12
			c6.54,7.13,4.03,15.94,4.01,24.05c-0.02,7.39,1.41,13.32,8.16,17.16c1.64,0.01,3.27,0.02,4.91,0.02
			C116.11,333.78,107.65,327.44,100.87,328.18z"/>
		<path class="st110" d="M77.15,329.61c6.24-1.03,12.47-1.05,18.71,0C89.62,331.49,83.39,331.49,77.15,329.61z"/>
		<path class="st114" d="M198.63,265.38c11.38-1.89,16.42,2.48,14.65,14.22c-1.86,12.28,3.59,25.24-3.37,37.08
			c-3.56,3.22-7.33,4.85-11.75,1.52C197.16,300.58,196.34,282.96,198.63,265.38z"/>
		<path class="st115" d="M254.82,328.21c29.15,0.13,58.29,0.26,87.44,0.39c0.79,1.8,0.21,2.89-1.72,3.28
			c-38.08,0.3-76.16,0.06-114.24,0.1c-2.77,0-5.71,0.68-8.19-1.31c0,0,0.2-0.05,0.2-0.05c0.09-0.87,0.18-1.73,0.27-2.59
			c10.35,0.06,20.7,0.11,31.04,0.17C251.36,328.2,253.09,328.2,254.82,328.21z"/>
		<path class="st116" d="M169.59,325.82c0.6-2.02,1.2-4.03,1.8-6.04c6.84-0.26,13.86-2.74,20.32,1.64c2.63,4.49,2.11,7.45-3.85,7.45
			c-5.46-0.01-10.93-0.22-16.4-0.34C170.84,327.63,170.22,326.72,169.59,325.82z"/>
		<path class="st117" d="M132.93,305.82c-0.82,0.23-1.63,0.46-2.45,0.68c-0.03-10.5-0.07-20.99-0.1-31.49
			c1.52-1.82,5.02-4.12,5.12-1.16C135.84,284.52,140.18,295.73,132.93,305.82z"/>
		<path class="st118" d="M198.63,265.38c-0.01,14.01-0.08,28.03,0.01,42.04c0.02,3.89-1.04,8.12,2.47,11.29
			c1.29,1.47,1.51,3.04,0.44,4.73c-0.98,0.05-1.95,0.11-2.93,0.16C194.89,304.19,194.58,284.78,198.63,265.38z"/>
		<path class="st119" d="M132.93,305.82c4.49-9.48,1.77-19.5,2.03-29.27c0.08-3-2.73-1.86-4.58-1.53c0.03-2.73,0.91-4.88,4.14-4.44
			c3.24,0.44,3.21,3.25,3.18,5.59c-0.13,10.02-0.41,20.04-0.65,30.06C135.67,306.09,134.3,305.95,132.93,305.82z"/>
		<path class="st120" d="M201.55,323.44c-0.15-1.58-0.3-3.15-0.44-4.73c2.42-2.9,5.66-2.28,8.81-2.04c1.7,2.96,1.95,5.99,0.42,9.1
			C206.9,326.87,204.05,325.8,201.55,323.44z"/>
		<path class="st121" d="M164.49,333.23c-5.66-0.8-11.81,1.98-16.98-2.32C153.18,331.59,159.32,328.86,164.49,333.23z"/>
		<path class="st57" d="M205.53,425.39c0.21,24.17,0.42,48.34,0.63,72.5c-0.57,0.25-1.14,0.5-1.71,0.75
			c-4.03-1.79-4.93-5.51-5.83-9.26c-0.3-2.04-0.15-4.04,0.43-6.01c0.09-14.34-0.21-28.66,0.02-42.99c0.08-4.77-0.05-9.61,2.7-13.89
			C202.73,425.16,203.99,424.8,205.53,425.39z"/>
		<path class="st122" d="M217.57,431.99c0,14.16,0,28.32,0,42.49c-0.48,0-0.96,0.01-1.44,0.01c0-14.16,0-28.32,0-42.49
			C216.61,432,217.09,431.99,217.57,431.99z"/>
		<path class="st123" d="M226.11,422.74c5.4,0.12,10.8,0.25,16.19,0.37c-0.59,1.61,1.33,5.92-2.75,3.89
			c-4.62-2.3-9.18-1.13-13.74-1.63C225.91,424.49,226.01,423.62,226.11,422.74z"/>
		<path class="st57" d="M225.1,498.5c-6.03,4.06-12.81,1.18-19.18,2.06c-0.53-0.48-0.73-0.98-0.62-1.51
			c0.12-0.55,0.25-0.82,0.41-0.82c0,0,0.44-0.33,0.44-0.33C212.47,498.1,218.79,498.3,225.1,498.5z"/>
		<path class="st124" d="M205.53,425.39c-0.69,0.02-1.38,0.04-2.07,0.06c-4.07,3.54-8.51,4.14-13.34,1.65
			c-1.31-0.83-1.72-1.99-1.24-3.46c5.57-0.22,11.15-0.45,16.72-0.67C205.57,423.78,205.55,424.59,205.53,425.39z"/>
		<path class="st125" d="M91.68,422.56c4.07,14.98,0.92,30.25,1.84,45.36c0.41,6.81,0.34,13.66,0.49,20.49
			c0.72,0.81,1.47,1.58,2.27,2.31c4.92,2.26,9.64,2.23,14.12-1.15c1.07-0.81,1.64-1.86,1.72-3.2c0.58-18.01-1.26-36.04,1.04-54.01
			c1.62-0.49,2.96-0.09,4.05,1.19c6.03,19.63,3.48,39.49,1.56,59.31c-0.27,2.82-2.32,5.05-4.69,6.77
			c-7.9,2.76-15.74,3.51-23.42-0.75c-2.3-2.57-2.77-5.76-2.74-8.99c0.25-21.22-1.25-42.45,0.82-63.65
			C89.33,424.7,90.32,423.48,91.68,422.56z"/>
		<path class="st126" d="M113.31,432.66c0.01,15.55,0.07,31.09-0.03,46.64c-0.02,3.88,1.02,8.05-2.07,11.42
			c-0.76-0.42-1.06-0.91-0.89-1.45c0.17-0.57,0.37-0.86,0.6-0.86c0.09-22.49,0.18-44.97,0.27-67.46c4.05,0.02,8.1,0.04,12.15,0.06
			c0.41,1.09,0.26,2.11-0.43,3.04C119.68,426.9,116.17,429.42,113.31,432.66z"/>
		<path class="st127" d="M91.68,422.56c-0.18,1.02-0.37,2.04-0.55,3.06c-0.93,0.52-1.93,0.83-2.99,0.97
			c-3.68-0.31-7.44-0.03-10.95-1.52c-0.88-0.6-1.69-1.28-2.44-2.04c0,0-0.98-0.2-0.99-0.2c0.28-0.6,0.49-1.23,0.63-1.89
			c5.66-0.12,11.31-0.24,16.97-0.36C91.49,421.24,91.6,421.9,91.68,422.56z"/>
		<path class="st86" d="M110.92,488.41c0.12,0.77,0.22,1.54,0.29,2.31c0,0-0.26,0.21-0.26,0.21c-5.55,3.22-11.1,3.32-16.68,0.07
			c-0.09-0.87-0.18-1.73-0.27-2.6C99.64,488.41,105.28,488.41,110.92,488.41z"/>
		<path class="st128" d="M235.06,484.34c2.28-0.06,4.05,1.07,4.47,3.12c0.56,2.76-1.19,4.66-3.86,4.88
			c-2.72,0.22-4.6-1.48-4.54-4.27C231.18,485.86,232.93,484.74,235.06,484.34z"/>
		<path class="st129" d="M223.02,279.85c0.78-0.02,1.57,0,2.35,0.07c1.84,11.38,9.76,19.76,14.71,29.6
			c2.68,5.33,5.19,10.74,7.78,16.12c-32.72,1.14-26.67,1.16-27.35-25.51C220.34,293.2,220.86,286.44,223.02,279.85z"/>
		<path class="st130" d="M205.72,498.23c0.08,0.78,0.15,1.56,0.21,2.34c4.09,3.9,9.22,2.33,13.9,2.33
			c81.38,0.09,162.76,0.05,244.14,0.05c0.01,0.85,0.01,1.69,0.02,2.54c-4.4,2.7-9.3,2.37-14.16,2.37
			c-131.26-0.01-262.51-0.01-393.77-0.01c-2.03,0-4.06,0.12-6.07-0.05c-2.67-0.22-6.73,0.43-6.35-3.56
			c0.44-4.73,4.18-1.61,6.61-1.66c8.24-0.17,17.15,3.03,23.95-4.59c0,0-0.03,0.06-0.03,0.06c3.02-6.78,0.44-13.99,1.62-20.91
			c0.64-1.26,1.67-1.96,3.08-2.1c13.84,0.74,8.75,11.82,10.56,19.13c0.39,1.15,0.71,2.34,0.94,3.53c7.83,4.79,16.21,3.13,24.46,1.81
			c11.95-1.9,23.75-3.51,35.9-0.7c9.57,2.21,19.16-1.07,28.76-1.61c5.79-0.33,5.67-6.23,8.97-8.84c4.54-1.65,8.29,0.75,12.21,2.36
			C202.35,493.22,204.03,495.73,205.72,498.23z"/>
		<path class="st131" d="M347.24,243.13c0.83,0,1.66,0,2.49,0c7.42-0.48,15.06-3.23,21.91,2.12c15.9,2.18,23.88,12.23,27.12,27
			c2.64,6.18,1.99,12.65,1.68,19.09c-0.47,1.1-1.08,2.11-1.84,3.03c-8.08,16.8-20.15,26.48-40.16,26.75
			c-24.4,0.33-46.83-28.23-33.73-56.45C329.61,254.12,337.78,248.29,347.24,243.13z"/>
		<path class="st132" d="M398.6,294.38c-0.23-0.77-0.29-1.54-0.17-2.33c3.47-6.03-1.79-13.05,2.19-19.02
			c0.11-0.39,0.09-0.89,0.34-1.13c0.46-0.44,1.07-0.73,1.62-1.08c0.24,7.87,0.47,15.74,0.71,23.61
			C401.72,294.4,400.16,294.39,398.6,294.38z"/>
		<path class="st133" d="M315.36,294.89c-3.79-9.15-3.87-18.29,0.06-27.42C315.41,276.61,315.38,285.75,315.36,294.89z"/>
		<path class="st134" d="M342.47,330.4c-0.05-0.6-0.12-1.2-0.21-1.8c0.7-0.73,1.4-1.46,2.1-2.19c1.73-0.03,3.46-0.05,5.2-0.08
			c0.82,1.35,1.65,2.69,2.47,4.03C348.85,332.87,345.66,332.71,342.47,330.4z"/>
		<path class="st38" d="M303.39,391.43c35.71,0,71.42,0.29,107.12-0.2c9.58-0.13,12.71,2.71,12.49,12.36
			c-0.59,26.23-0.48,52.49-0.05,78.73c0.14,8.5-2.77,11.18-11.22,11.1c-36.11-0.36-72.22-0.17-108.34-0.18
			c-2.69-25.16-0.7-50.39-1.08-75.58C302.17,408.93,300.85,400.07,303.39,391.43z"/>
		<path class="st135" d="M303.39,391.43c0,33.94,0,67.87,0,101.81c-0.81,0.01-1.62,0-2.43-0.05c0-33.91,0-67.82,0-101.73
			C301.76,391.44,302.57,391.43,303.39,391.43z"/>
		<path class="st136" d="M162.28,289.23c-2.22,5.37,3.18,15.45-3.7,15.6c-7.28,0.15-3.36-9.81-3.45-15.08
			c-0.1-5.9-3.33-16.89,2.99-16.83C165.77,272.99,159.96,283.6,162.28,289.23z"/>
		<path class="st137" d="M132.59,68.9c0.15,24.07,0.17,48.13,0.56,72.19c0.1,5.98-1.42,8.72-8.06,8.51
			c-16.91-0.53-33.84-0.47-50.76-0.64c-5.22-1.42-6.24-4.99-6.19-10.01c0.23-23.38,0.26-46.77,0-70.15
			c-0.07-6.16,1.7-8.62,8.21-8.46c15.39,0.36,30.8,0.48,46.18-0.05C129.33,60.06,131.96,62.87,132.59,68.9z"/>
		<path class="st54" d="M140.11,156.22c-2.6-1.83-2.4-4.59-2.43-7.27c-2.67-23.52-0.4-47.12-1.26-70.66
			c-0.23-6.33,1.35-12.79-1.15-18.98c-14.01-5.57-28.63-0.98-42.88-2.52c-4.46-0.48-9.54,1.55-15.82-4.81c22.98,0,43.25,0,63.51,0
			C140.1,86.71,140.1,121.47,140.11,156.22z"/>
		<path class="st138" d="M132.59,68.9c-2.47-4.24-4.87-7.65-11.05-7.41c-14.19,0.57-28.43,0.48-42.63,0.06
			c-7.79-0.23-9.63,3.32-9.55,10.26c0.26,21.82,0.23,43.64-0.01,65.46c-0.05,4.89,1.42,8.59,4.98,11.69
			c-5.03,1.32-7.53-0.11-7.5-5.79c0.15-25.81,0.11-51.63,0.02-77.44c-0.02-4.48,1.5-6.58,6.29-6.54c17.83,0.14,35.67,0.23,53.5-0.03
			C134.9,59.03,133.11,64.15,132.59,68.9z"/>
		<path class="st139" d="M62.13,148.95l-1.21,0c0,0-1.21,0-1.21,0c0-32.33,0-64.66,0-96.99c0.81,0,1.62,0,2.43,0
			c1.4,1.32,2.71,2.69,2.44,4.85c0,0.81-0.01,1.61-0.01,2.42c-2.72,19.11-0.41,38.34-1.26,57.49
			C62.83,127.46,64.72,138.29,62.13,148.95z"/>
		<path class="st140" d="M62.13,148.95c0-25.71-0.05-51.42,0.06-77.13c0.02-4.27-1.33-8.94,2.37-12.58c0,30.71,0,61.43,0,92.14
			C63.75,150.57,62.94,149.76,62.13,148.95z"/>
		<path class="st141" d="M135.27,59.3c3.72,3.64,2.33,8.31,2.35,12.57c0.11,25.69,0.05,51.38,0.05,77.08
			c-0.78,0-1.55-0.01-2.33-0.03C135.32,119.04,135.3,89.17,135.27,59.3z"/>
		<path class="st142" d="M132.55,151.57c-10.74,4.82-22.03,1.46-33.05,2.09c-10.78,0.62-21.63,0.13-32.45,0.12
			c9.9-4.89,20.42-1.65,30.64-2.16C109.29,151.04,120.93,151.54,132.55,151.57z"/>
		<path class="st27" d="M64.57,56.81c-0.81-1.62-1.63-3.23-2.44-4.85c3.41,0.32,7.01-0.81,10.65,1.54
			C71.62,58.53,67.32,55.99,64.57,56.81z"/>
		<path class="st143" d="M193.89,51.98c1.67,0.06,3.35,0.12,5.02,0.18c0.93,18.66,1.06,37.34,0.73,56.02
			c-0.04,1.41-0.39,2.74-1.05,3.98c-1.51-0.02-3.03-0.04-4.54-0.05c-4.31-3.59-3.85-8.59-3.88-13.38c-0.08-12.07-0.1-24.13,0-36.2
			C190.39,58.65,190.2,54.64,193.89,51.98z"/>
		<path class="st144" d="M193.57,61.7c0.16,16.8,0.31,33.61,0.47,50.41c-1.02-0.02-2.04-0.03-3.05-0.04
			c-2.38-2.56-3.47-5.57-3.22-9.06c2.25-8.83-0.95-17.64-0.09-26.48c0.46-4.75-0.75-9.74,2.2-14.11
			C190.92,61.19,192.15,60.95,193.57,61.7z"/>
		<path class="st145" d="M189.1,105.04c0.63,2.34,1.27,4.69,1.89,7.03c-1.33,0.22-2.66,0.44-3.98,0.66
			c0.78-5.04-5.59-9.84-0.53-15.03C189.5,99.39,190.86,101.67,189.1,105.04z"/>
		<path class="st146" d="M198.59,112.16c0-0.63,0-1.27-0.01-1.9c-2.1-4.91-0.66-7.52,4.9-7.43c0.31,3.43-0.65,6.54-2.38,9.46
			C200.26,112.25,199.43,112.21,198.59,112.16z"/>
		<path class="st147" d="M115.74,323.53c-9.4,1.9-13.64-0.72-12.42-11.37c1.13-9.83,0.24-19.89,0.24-29.85
			c4.34-6.21,2.66-12.87,1.15-19.36c-1.57-6.76-1.98-13.28,1.36-19.63c3.28-1.81,6.51-1.89,9.69,0.24c2.35,3.98,3.17,8.45,2.3,12.8
			C113.61,278.65,116.69,301.15,115.74,323.53z"/>
		<path class="st148" d="M115.76,243.57c-3.28,2.12-6.51,1.89-9.69-0.24c-0.08-3.62,0-7.97,4.43-8.22
			C116.04,234.8,115.8,239.6,115.76,243.57z"/>
		<path class="st149" d="M62.84,427.96c1.46,0.73,2.91,1.46,4.37,2.19c3.61,11.59,1.97,23.23,0.31,34.88
			c-1.66,2.36-2.65,6.95-6.54,1.97C62.1,454.01,58.47,440.8,62.84,427.96z"/>
		<path class="st150" d="M64.6,461.72c0.87-10.52,1.74-21.05,2.61-31.57c0.74,0.04,1.47,0.08,2.21,0.13
			c2.75,14.58,0.56,29.29,1.19,43.92c-1,3.92-3.4,3.63-6.23,2.04C61.79,471.36,68.67,466.62,64.6,461.72z"/>
		<path class="st151" d="M64.54,474.68c1.6,0.49,3.21,0.99,4.81,1.48c0.81,0.54,1.09,1.09,0.84,1.66c-0.25,0.57-0.51,0.86-0.78,0.86
			c-3.47-0.22-8.99,1.07-9.01-3.6c-0.07-15.72-4.21-31.73,2.44-47.11c-1.4,13.61-0.89,27.24-0.32,40.87
			C64.18,470.44,64.64,472.46,64.54,474.68z"/>
		<path class="st84" d="M69.41,478.67c-0.02-0.84-0.04-1.67-0.06-2.51c0.02-15.3,0.04-30.59,0.06-45.88c0.8-0.83,1.6-1.65,2.39-2.48
			c0,16.98,0,33.96,0,50.95C71.01,478.72,70.21,478.7,69.41,478.67z"/>
		<path class="st64" d="M371.64,245.25c-6.98-4.04-14.6-1.45-21.91-2.12c7.38-3.19,14.71-3.58,21.99,0.32
			C371.68,244.05,371.65,244.65,371.64,245.25z"/>
		<path class="st152" d="M400.62,273.02c-0.22,6.4,2.19,13.1-2.19,19.02c0.21-6.6-2.95-13.25,0.32-19.79
			C399.4,272.44,400.02,272.7,400.62,273.02z"/>
		<path class="st153" d="M407.91,291.76c-0.61,0.36-1.27,0.62-1.96,0.78c0.55-7.42-2.34-15.14,2.04-22.21c0,0,0.35-0.29,0.35-0.29
			C409.75,277.31,410.42,284.57,407.91,291.76z"/>
		<path class="st154" d="M189.1,105.04c-0.87-2.44-1.74-4.89-2.61-7.34c-0.04-1.56-0.09-3.12-0.13-4.68
			c-4.64-8.06-1.41-16.85-2.36-25.25c0.27-4.93-0.27-10.32,6.56-11.56c2.45,1.43,2.07,3.33,0.87,5.35
			C189.84,76.02,194.12,90.78,189.1,105.04z"/>
		<path class="st155" d="M186.11,66.25c0.08,8.93,0.16,17.85,0.24,26.78c-7-1.59-4.51-7.3-4.71-11.5
			c-0.31-6.62,0.12-13.27,0.23-19.9C186.25,60.48,184.37,65.01,186.11,66.25z"/>
		<path class="st156" d="M186.11,66.25c-1.41-1.54-2.82-3.08-4.23-4.62c2.24-4,1.7-9.61,6.99-11.82c3.02,1.37,4.77,3.19,2.36,6.51
			C187.26,58.48,186.32,62.18,186.11,66.25z"/>
		<path class="st157" d="M191.22,56.32c-0.79-2.17-1.57-4.34-2.36-6.51c-0.06-1.58-0.13-3.17-0.19-4.75
			c5.23-0.29,4.88,3.57,5.21,6.93c-0.1,3.24-0.21,6.48-0.31,9.72c-0.72-0.03-1.44-0.08-2.15-0.13
			C191.36,59.82,191.29,58.07,191.22,56.32z"/>
		<path class="st158" d="M150.42,432.93c6.13-0.12,12.27-0.25,18.4-0.37c2.74,1.59,3.79,4.22,3.8,7.11
			c0.06,17.61,1.65,35.26-0.95,52.83c-5.52,8.2-13.02,7.67-21.07,4.7c-2.1-1.69-2.48-3.82-1.57-6.26
			C149.49,471.6,149.95,452.27,150.42,432.93z"/>
		<path class="st159" d="M113.31,432.66c-1.74-7.84,1.4-11.11,9.34-9.89c5.45-0.39,9.02-3.32,11.22-8.16
			c1.41-0.34,2.8-0.35,4.22-0.05c4.96,0.68,8.27,2.84,8.09,8.43c-0.71,21.86,1.48,43.76-1.16,65.59c-0.03,0.63-0.09,1.25-0.16,1.88
			c-4.39,4.95-9.39,4.43-14.64,1.62c-4.42-4.48-4.1-10.29-4.26-15.9c-0.22-7.66-0.48-15.36,0.02-22.99
			c0.58-8.89-1.96-15.73-10.22-19.91C114.95,433.08,114.13,432.87,113.31,432.66z"/>
		<path class="st160" d="M145.02,488.58c-0.01-18.95-0.48-37.92,0.18-56.85c0.29-8.31-1.89-13.65-10.04-16.04
			c0.32-0.45,0.64-0.91,0.95-1.37c2.3-1.84,4.92-2.56,7.85-2.21c1.85,0.47,2.38,2.13,3.22,3.52c0.07,21.33,0.16,42.66,0.19,63.99
			C147.37,482.76,147.91,486.13,145.02,488.58z"/>
		<path class="st161" d="M130.5,490.65c4.79-0.07,9.57-0.13,14.36-0.2c1.39,0.16,2.79,0.32,4.17,0.48c0.28,1.65,0.58,3.31,0.87,4.96
			c0.66,1.51,0.25,2.63-1.24,3.35c-6.28-0.25-12.62,1-18.83-0.85C128.1,495.65,128.11,493.05,130.5,490.65z"/>
		<path class="st162" d="M147.18,415.61c-0.77-0.88-1.54-1.76-2.3-2.64c-4.15-2.95-6.9-0.56-9.47,2.47c0,0-0.24,0.24-0.25,0.24
			c-0.77,0-1.55,0.02-2.32,0.04c-1.84-4.78-2.19-9.53,0.24-14.23C144.5,399.54,149.15,404.3,147.18,415.61z"/>
		<path class="st163" d="M133.07,401.48c-0.08,4.74-0.16,9.49-0.24,14.23c0.31,7.64-4.71,7.66-10.18,7.05
			c0.29-0.56,0.51-1.14,0.67-1.75c5.04,0.47,7.13-1.72,6.91-6.81c-0.19-4.3,0.29-8.63,0.48-12.95
			C131.51,401.27,132.29,401.35,133.07,401.48z"/>
		<path class="st164" d="M169.25,493.25c-0.14-20.23-0.28-40.46-0.43-60.69c-0.07-2.39-0.14-4.78-0.2-7.18
			c0.24-0.81,0.49-1.63,0.74-2.44c4.98-1.89,9.98-1.8,14.98-0.07c-15.33,16.25-7.02,36.26-8.67,54.66
			C175.12,483.56,178.09,490.69,169.25,493.25z"/>
		<path class="st165" d="M76.78,476.32c-1.08,7.21,2.4,14.98-2.62,21.72c0.19-25,0.39-50,0.59-75.01c0.7-0.05,1.39,0,2.08,0.17
			c0.99,1.03,1.81,2.17,2.49,3.43c1.02,2.75,0.94,5.64,1.02,8.51c0.04,9.64,0.1,19.28-0.02,28.91
			C80.25,468.43,80.65,473,76.78,476.32z"/>
		<path class="st166" d="M223.04,83.37c1.6-0.76,3.19-1.51,4.79-2.27c0.88,8.95-7.2,10.42-12.19,14.46
			c-1.95-1.28-2.29-3.22-2.19-5.33C216.4,87.61,219.33,84.94,223.04,83.37z"/>
		<path class="st80" d="M80.81,269.14c4.85-1.9,8.54-1.69,13.8-0.24C89.4,270.56,85.72,270.5,80.81,269.14z"/>
		<path class="st167" d="M205.82,100.3c-0.79,0.19-1.59,0.32-2.4,0.39c-6.79-1.24-3.03-6.33-3.63-9.83
			c1.99-6.65-4.3-15.84,6.16-19.9c0.79,0.96,1.57,1.91,2.36,2.87c0.04,2.39,0.08,4.78,0.11,7.17c-0.16,0.76-0.21,1.52-0.17,2.3
			c-2.63,3.74,0.2,8.37-2.03,12.18C206.09,97.09,205.96,98.69,205.82,100.3z"/>
		<path class="st168" d="M223.04,83.37c-2.06,3.86-4.71,6.91-9.59,6.87c0.63-2.18,1.26-4.36,1.89-6.54c1.05-0.12,2.1-0.24,3.15-0.37
			C220.01,82.81,221.54,81.32,223.04,83.37z"/>
		<path class="st69" d="M206.22,95.48c0.05-4.16-1.22-8.54,2.03-12.17C207.98,87.43,209.58,91.87,206.22,95.48z"/>
		<path class="st169" d="M202.98,92.86c-0.43,2.64-3.02,5.41,0.45,7.83c0.03,0.71,0.04,1.43,0.05,2.14
			c-3.31,1.38-4.46,4.17-4.9,7.43c-3.59-19.39-4.52-38.76,0.33-58.11c1.53,3.21,3.06,6.42,4.59,9.63c0.78,1.59,1.56,3.18,2.34,4.77
			C199.59,74.76,202.62,83.95,202.98,92.86z"/>
		<path class="st170" d="M407.91,291.76c0.14-7.24,0.29-14.48,0.43-21.71c0.66,0.25,1.33,0.49,2,0.73
			C409.74,277.8,413.26,285.29,407.91,291.76z"/>
		<path class="st171" d="M202.98,92.86c-1.57-9.04-6.28-18.42,2.87-26.3c0.04,1.47,0.08,2.94,0.11,4.41
			C201.06,77.74,204.79,85.67,202.98,92.86z"/>
		<path class="st172" d="M183.94,422.99c-4.86-0.02-9.72-0.03-14.58-0.05c5.34-4.43,11.52-1.82,17.36-2.05
			c0.06,0.81,0.13,1.63,0.19,2.44c-0.34,0.23-0.68,0.47-1.02,0.7C184.99,424.13,184.33,423.81,183.94,422.99z"/>
		<path class="st57" d="M130.51,497.78c6.28,0.02,12.56,0.05,18.84,0.07c5.86-2.29,12.14,0.21,18.02-1.56
			c4.97-1.54,11.27-0.46,13.72-6.96c2.54-17.14,1.6-34.35,1.68-51.51c0.03-5.27-0.04-10.43,3.87-14.63c0,0,0.24,0.14,0.24,0.14
			c0.66,0.06,1.32,0.17,1.97,0.31c0.05,0.58,0.09,1.15,0.14,1.73c0.95,1.1,1.76,2.29,2.44,3.57c2.32,18.49,0.11,37.08,1.29,55.61
			c-0.05,1.5-0.58,2.79-1.6,3.89c-1.89,11.13-9.19,13.09-19.49,13.59c-21.99,1.06-43.99-2.87-65.96,0.81
			c-5.92,0.99-12.26,0.66-16.72-4.77c0.92-1.43,1.92-1.5,3.03-0.21c7.14-0.01,14.28-0.02,21.43-0.03
			C119.11,494.56,124.81,492.9,130.51,497.78z"/>
		<path class="st173" d="M342.47,330.4c3.19-0.01,6.38-0.02,9.56-0.03c-2.53,3.63-6.41,2.83-9.94,2.83
			c-37.95,0.04-75.9,0.04-113.85,0.01c-3.55,0-7.38,0.73-10.14-2.54C259.56,330.57,301.02,330.49,342.47,330.4z"/>
		<path class="st130" d="M189,427.93c0-0.86,0-1.71,0.01-2.57c4.82,0.03,9.63,0.06,14.45,0.09c0.01,16.4,0.06,32.81-0.02,49.21
			c-0.02,3.89,1.03,8.1-2.39,11.33c-2.05,0.8-3.67-0.2-5.28-1.25c-5.36-2.3-5.64-6.76-5.78-11.82
			C189.57,457.92,191.48,442.88,189,427.93z"/>
		<path class="st174" d="M198.56,483.6c0.83,0.8,1.66,1.59,2.48,2.39c-0.13,1.58-0.25,3.15-0.38,4.73
			c-3.94,2.39-7.63,3.72-9.53-2.29c0.26-0.72,0.43-1.46,0.53-2.22C192.97,482.73,195.07,481.34,198.56,483.6z"/>
		<path class="st126" d="M130.51,497.78c-5.7,0.01-11.39,0.03-17.09,0.04c4.86-14.49,1.33-29.41,2.25-44.1
			c0.43-6.79,0.08-13.63,0.09-20.44c12.1-2.93,15.58,2.23,14.88,13.88c-0.87,14.45-0.17,28.99-0.15,43.49
			C130.51,493.03,130.51,495.4,130.51,497.78z"/>
		<path class="st175" d="M92,497.85c-1.01,0.07-2.02,0.14-3.03,0.21c-0.01-0.79-0.02-1.58-0.05-2.37
			c-2.99-6.14,0.62-13.17-2.64-19.27c-1.89-14.49-0.64-29.04-0.79-43.57c0.14-2.22,0.56-4.36,1.89-6.23c0.56-0.47,1.13-0.94,1.7-1.4
			c0.7,0.03,1.38,0.16,2.04,0.41C91.42,449.69,91.71,473.77,92,497.85z"/>
		<path class="st176" d="M94.28,491.01c5.56-0.02,11.12-0.05,16.68-0.07C105.43,498.77,99.87,498.68,94.28,491.01z"/>
		<path class="st177" d="M76.78,425.43c-0.01-0.74,0.01-1.49,0.04-2.23c4.17,0.15,8.68-1.69,12.26,2.01c0,0-0.17,0.21-0.17,0.21
			C84.87,428.87,80.82,428.87,76.78,425.43z"/>
		<path class="st178" d="M76.78,476.32c0-14.57,0-29.13,0-43.7c1.58-0.24,2.87,0.26,3.88,1.48c3.47,13.58,3.18,27.17,0.18,40.79
			c-0.54,0.5-1.09,0.99-1.63,1.48C78.4,476.35,77.59,476.34,76.78,476.32z"/>
		<path class="st57" d="M88.88,476.27c0.02,6.47,0.03,12.94,0.05,19.41c-4.9-5.61,0.86-16.53-9.71-19.32c0,0,0.05-0.21,0.05-0.21
			c0.65-0.65,1.36-1.22,2.13-1.72c0.87-0.33,1.77-0.51,2.71-0.56c0.93,0.03,1.84,0.23,2.71,0.56
			C87.56,474.98,88.24,475.6,88.88,476.27z"/>
		<path class="st179" d="M361.86,255.65c4.93,6.59-0.53,15.28,4.46,21.85c-5.7,2.22-5.52-1.72-5.66-5.34
			C361.25,266.67,359.36,261.01,361.86,255.65z"/>
		<path class="st180" d="M361.86,255.65c-0.18,5.69-0.35,11.38-0.53,17.07c-0.54-0.05-1.09-0.1-1.63-0.14
			C359.92,266.87,356.74,260.74,361.86,255.65z"/>
		<path class="st68" d="M359.7,272.58c0.55,0.04,1.09,0.08,1.64,0.14c0.53,2.76,1.62,4.95,4.99,4.78c-0.51,2.57-2.32,5.19-4.57,4.35
			C357.16,280.15,359.77,275.86,359.7,272.58z"/>
		<path class="st181" d="M310.83,408.74c1.88-2.66,4.7-2.75,7.55-2.75c30.17,0.01,60.33,0.01,90.5,0.01c2.48,0,4.8,0.41,6.58,2.35
			c-14.11,5.27-28.77,1.13-43.12,2.49c-6.08,0.6-12.17,0.69-18.25,0C339.69,409.64,325.06,413.29,310.83,408.74z"/>
		<path class="st182" d="M310.67,439.77c1.81-0.74,3.62-2.12,5.43-2.13c31.36-0.14,62.72-0.15,94.08-0.01
			c1.75,0.01,3.49,1.57,5.24,2.4c-4.25,4.08-9.65,3.41-14.82,3.44c-17.68,0.1-35.37,0.03-53.05,0.05
			c-8.29-0.03-16.58,0.04-24.87-0.07C318.33,443.4,313.91,443.46,310.67,439.77z"/>
		<path class="st183" d="M310.83,408.74c14.59-0.02,29.17-0.05,43.76-0.07c1.4,1.41,1.41,2.79-0.08,4.15
			c-11.34,0.11-22.69,0.37-34.02,0.22C316.88,412.99,311.87,414.93,310.83,408.74z"/>
		<path class="st184" d="M310.67,439.77c12.25,0.12,24.5,0.24,36.75,0.36c0.83,2.64,9.91-1.75,4.98,5.79
			c-13.83-0.67-27.76,1.67-41.51-1.34C310.32,443,308.32,441.48,310.67,439.77z"/>
		<path class="st185" d="M415.39,471.37c1.03,6.41-4.14,4.56-6.92,4.6c-10.7,0.15-21.41-0.21-32.12-0.38
			c-2.73-1.52-4.67-3.11-0.48-5.26c6.17-0.16,12.34-0.04,18.51-0.08C401.38,470.76,408.49,469.09,415.39,471.37z"/>
		<path class="st186" d="M393.55,471.05c-6.47,0.26-12.93,0.52-19.4,0.78c-6.91,3.73-14.47,3.04-21.9,3.21
			c-11.89-0.19-23.79,0.35-35.68-0.34c-2.32-0.33-4.32-1.28-5.84-3.1c3.55-3.91,8.28-2.49,12.56-2.51
			c23.42-0.11,46.85-0.03,70.27-0.02c0.89,0.44,1.19,0.88,0.89,1.32C394.14,470.83,393.85,471.05,393.55,471.05z"/>
		<path class="st187" d="M354.64,444.42c-2.41-1.43-4.81-2.86-7.22-4.29c22.67-0.03,45.34-0.07,68.01-0.1
			c0.08,0.74,0.06,1.48-0.06,2.22c-13.2,5.37-27.07,1.05-40.5,2.72c-1.21,0.25-2.42,0.61-3.56,1.09c-4.62,0.74-9.27-0.75-13.91,0.12
			C356.22,446.01,355.3,445.42,354.64,444.42z"/>
		<path class="st188" d="M354.64,444.42c0.61,0.23,1.25,0.36,1.91,0.38c4.3-0.06,8.6,0.02,12.9-0.1c0.73-0.02,1.46-0.08,2.19-0.19
			c0.94-0.74,1.9-0.75,2.9-0.12c0.55,1.06,0.36,1.99-0.47,2.83c-5.18,2.94-10.95,3.39-16.36,1.92c-12.69-3.47-25.55-0.94-38.26-2.09
			c-2.79-0.25-7.18,3.16-8.55-2.46C325.48,444.53,340.06,444.47,354.64,444.42z"/>
		<path class="st189" d="M354.51,412.81c0.03-1.38,0.05-2.77,0.08-4.15c5.73,0.01,11.45,0.02,17.18,0.02
			c14.28,2.81,28.88-1.05,43.14,2.05c-15.01,4.96-30.53,0.84-45.72,2.57c-4.07-0.74-8.14-0.78-12.22,0
			C356.15,413.14,355.33,412.98,354.51,412.81z"/>
		<path class="st190" d="M310.72,471.6c1.69,0.04,3.38,0.08,5.06,0.12c12.05,2.22,24.22,0.23,36.32,1.08
			c2.38,0.91,4.12,2.02,1.37,4.48c-15.08-0.3-30.2,1.69-45.21-1.15C309.09,474.62,309.91,473.11,310.72,471.6z"/>
		<path class="st191" d="M308.27,476.13c15.43-0.03,30.87-0.06,46.3-0.08c0.81-0.63,1.68-0.75,2.62-0.29
			c0.64,0.78,0.85,1.66,0.58,2.64C341.28,477.61,324.56,481.61,308.27,476.13z"/>
		<path class="st192" d="M414.91,410.74c-14.36-1.08-28.96,2.69-43.14-2.05c14.56-0.11,29.13-0.22,43.69-0.34
			c0.17,0.63,0.4,1.26,0.45,1.9C415.92,410.39,415.26,410.58,414.91,410.74z"/>
		<path class="st193" d="M374.07,444.92c-0.81-0.14-1.63-0.27-2.44-0.41c14.36-4.89,29.19-0.8,43.73-2.26
			c0.03,0.82,0.07,1.64,0.1,2.47C401.68,446.85,387.88,446.56,374.07,444.92z"/>
		<path class="st194" d="M374.07,444.92c13.8-0.07,27.6-0.13,41.4-0.2c-13.52,5.41-27.64,1.1-41.41,2.5
			C374.06,446.45,374.06,445.69,374.07,444.92z"/>
		<path class="st189" d="M356.93,476.36c-0.8,0-1.58-0.1-2.35-0.31c-0.81-0.74-1.62-1.48-2.43-2.21c-0.91-0.46-1.21-0.92-0.91-1.37
			c0.3-0.45,0.61-0.67,0.93-0.67c7.33,0.01,14.65,0.02,21.98,0.03c0.74,1.26,1.48,2.51,2.21,3.76c-2.38,0.25-4.77,0.51-7.15,0.77
			C365.11,474.79,361.02,477.08,356.93,476.36z"/>
		<path class="st186" d="M393.55,471.05c0-0.66,0-1.32,0-1.98c7.27,0.86,14.97-2.24,21.85,2.3
			C408.11,471.26,400.83,471.16,393.55,471.05z"/>
		<path class="st195" d="M356.93,476.36c4.09-3.64,8.18-3.71,12.28-0.01c-3.43,2.81-7.4,2.56-11.43,2.05
			C357.62,477.67,357.33,476.99,356.93,476.36z"/>
		<path class="st195" d="M356.97,413.31c4.07-3.69,8.15-3.72,12.22,0C365.11,416.39,361.04,416.37,356.97,413.31z"/>
		<path class="st196" d="M113.11,96.21c7.51,2.16,12.57,6.29,12.78,14.82c0.22,8.74-3.84,14.11-12.19,16.45
			c-3.78-2.36-3.69-6.22-3.93-9.96C110.55,110.36,107.46,102.61,113.11,96.21z"/>
		<path class="st197" d="M89.07,138.62c-4.73-9.26-4.24-18.91-2.77-28.84c0.68-4.59-0.19-9.41-0.36-14.13
			c-0.11-0.6-0.21-1.2-0.32-1.81c0.65-1.16,1.62-1.85,2.94-2.07c2.12-0.03,3.74,0.83,4.9,2.6c0.67,1.18,1.12,2.44,1.38,3.77
			c-0.43,11.54,1.39,23.1-0.29,34.63C93.76,135.67,91.85,137.56,89.07,138.62z"/>
		<path class="st198" d="M74.6,93.94c0.38-10.4,9.58-14.18,16.17-18.98c2.12-1.55,6.68,5.5,7.69,10.4
			c-2.19,5.27-8.97,3.1-11.86,7.23c-0.21,0.37-0.43,0.73-0.66,1.09C82.19,94.86,78.4,94.49,74.6,93.94z"/>
		<path class="st199" d="M86.6,92.59c-0.51-9.66,7.71-5.13,11.86-7.23c0.97,2.49,3.07,2.93,5.41,2.96
			c-0.44,10.79-6.34,8.29-12.52,5.08C89.76,93.13,88.18,92.86,86.6,92.59z"/>
		<path class="st200" d="M89.07,138.62c0.83-1.53,1.66-3.06,2.5-4.59c5.24-4.72,11.67-3.25,17.8-3.4c3.23,0.74,2.28,3.96,3.5,5.89
			C105.37,142.11,97.04,138.35,89.07,138.62z"/>
		<path class="st201" d="M91.35,93.4c4.08-1.91,10.86,2.75,12.52-5.08c3.13,1.55,6.73,2.64,7.04,7c-0.19,1.91-1.18,3.27-2.84,4.19
			c-1.69,0.68-3.44,0.83-5.23,0.59c-3.85-1.08-8.21-0.94-11.11-4.41C91.59,94.93,91.46,94.17,91.35,93.4z"/>
		<path class="st202" d="M108.04,97.68c0.96-0.79,1.91-1.58,2.87-2.36c0.77,0.2,1.51,0.49,2.2,0.89c-0.03,7.09-0.07,14.17-0.1,21.26
			c-1.36,0.66-2.51,0.41-3.48-0.74C106.04,110.61,106.05,104.22,108.04,97.68z"/>
		<path class="st203" d="M110.88,117.46c0.71-0.01,1.43,0,2.14,0.01c0.23,3.34,0.46,6.68,0.69,10.01c-0.28,3.01-0.56,6.03-0.85,9.04
			c-2-1.02-2.08-2.95-2.29-4.82c-1.08-0.85-1.86-1.91-2.35-3.19C107.33,124.4,107.18,120.47,110.88,117.46z"/>
		<path class="st138" d="M74.6,93.94c3.78-0.09,7.56-0.18,11.34-0.27c0.14,0.66,0.14,1.32-0.01,1.98
			C82.12,95.27,78.05,96.63,74.6,93.94z"/>
		<path class="st149" d="M64.54,474.68c-2.12-1.45-2.45-3.52-2.03-5.84c2.32-1.9,2-4.56,2.08-7.11
			C68.27,466.05,67.57,470.37,64.54,474.68z"/>
		<path class="st204" d="M186.65,423.19c-0.09,24.15-0.17,48.31-0.26,72.46c-5.32,3.22-11.65-0.68-16.99,2.37
			c-6.68-0.06-13.37-0.12-20.05-0.18c0.12-0.67,0.3-1.32,0.55-1.95c6.51-0.42,13.34,1.43,19.35-2.65
			c5.2-10.59,1.53-21.85,2.43-32.77c0.52-6.34,0.79-12.85-0.06-19.12c-1.37-10.13,1.51-16.68,12.31-18.37
			C184.84,423.06,185.75,423.12,186.65,423.19z"/>
		<path class="st205" d="M135.4,415.44c0.92-3.19-2.91-8.51,3.48-9.18c4.19-0.44,6.11,2.58,6,6.7
			C142.06,415.09,138.98,416.22,135.4,415.44z"/>
		<path class="st206" d="M79.01,432.73c-0.74-0.04-1.49-0.07-2.23-0.1c0-2.4,0-4.8,0-7.19c4.05,0,8.09,0,12.14-0.01
			c0,1.63,0,3.25,0.01,4.88c-0.74,0.71-1.52,1.37-2.35,1.99c-1.93,0.93-3.94,1.19-6.03,0.68C80.03,432.89,79.52,432.81,79.01,432.73
			z"/>
		<path class="st207" d="M198.56,483.6c-2.3,0.87-4.6,1.74-6.89,2.61c-5.44-7.23-2.25-15.53-2.62-23.3
			c-0.56-11.63-0.08-23.31-0.05-34.97c4.9,13.1,1.76,26.67,2.01,39.99C191.14,474.9,192.45,480.06,198.56,483.6z"/>
		<path class="st208" d="M169.41,498.03c5.18-4.25,11.34-1.46,16.99-2.37C181.33,500.67,175.11,497.54,169.41,498.03z"/>
		<path class="st209" d="M86.29,430.47c0.88-0.06,1.75-0.11,2.63-0.17c-0.01,15.33-0.03,30.65-0.04,45.98
			c-0.77,0-1.54-0.02-2.31-0.06C80.6,461,80.96,445.75,86.29,430.47z"/>
		<path class="st210" d="M81.51,476.18l-1.12,0.02c0,0-1.12-0.04-1.12-0.04c-0.08-14.48-0.17-28.96-0.25-43.44
			c0,0,0.39-0.04,0.39-0.04c1.64-0.7,2.88-0.26,3.71,1.31C83.82,448.1,86.48,462.29,81.51,476.18z"/>
		<path class="st211" d="M81.19,432.72l-0.9,0.01c0,0-0.89-0.04-0.89-0.04c1.45-3.34,4.33-2.29,6.89-2.22
			c0.09,15.25,0.18,30.5,0.27,45.75c-0.81,0.06-1.61,0.12-2.42,0.18c-2.76-10.65-0.46-21.5-1.35-32.21
			C82.48,440.35,84.46,436.15,81.19,432.72z"/>
		<path class="st212" d="M81.19,432.72c6.04,9.23,1.61,19.49,2.78,29.2c0.57,4.76,0.15,9.65,0.17,14.48
			c-0.88-0.07-1.76-0.14-2.64-0.21C81.4,461.69,81.3,447.21,81.19,432.72z"/>
		<path class="st213" d="M352.16,471.79c-0.02,0.68-0.03,1.36-0.02,2.04c-12.09-1.15-24.48,2.58-36.36-2.12
			C327.91,471.74,340.04,471.77,352.16,471.79z"/>
		<path class="st214" d="M369.45,444.7c-4.27,3.58-8.57,3.74-12.9,0.1C360.82,440.92,365.12,441.22,369.45,444.7z"/>
		<path class="st215" d="M110.71,129.52c0.16,0.74,0.11,1.46-0.14,2.18c-5.9,4.29-12.58,2.31-19.01,2.34
			c0.06-12.78,0.11-25.57,0.17-38.35c3.99,0.37,8.35-1.28,11.78,2.13c0.15,1.73-0.32,3.31-1.2,4.79
			c-6.37,7.37-5.51,13.83,2.46,19.39C107.47,123.94,109.02,126.78,110.71,129.52z"/>
		<path class="st216" d="M101.22,100.48c0.76-0.89,1.53-1.77,2.29-2.66c1.51-0.05,3.02-0.09,4.53-0.14
			c4.21,6.13,1.93,13.18,2.83,19.78c-0.05,4.02-0.11,8.04-0.16,12.06c-2.46-1.56-4.92-3.11-7.38-4.67
			C97.04,117.2,93.99,109.28,101.22,100.48z"/>
		<path class="st217" d="M181.32,471.79c-1.37,1.43-2.75,2.87-4.12,4.3c-3.09-15.25-2.39-30.53-0.38-45.81c1.5,1.48,3,2.97,4.5,4.45
			C179.68,447.08,179.68,459.44,181.32,471.79z"/>
		<path class="st164" d="M176.82,430.28c-0.57,15.28-1.22,30.56,0.38,45.81C172.2,460.86,172.79,445.59,176.82,430.28z"/>
		<path class="st208" d="M181.32,471.79c-3.04-12.35-3.06-24.71,0-37.06C181.32,447.08,181.32,459.44,181.32,471.79z"/>
		<path class="st218" d="M101.22,100.48c-3.12,8.45-0.08,16.37,2.11,24.37C90.79,114.05,90.55,111.29,101.22,100.48z"/>
	</g>
</g>
</svg>
