<?xml version="1.0" encoding="utf-8"?>
<!-- Generator: Adobe Illustrator 26.2.1, SVG Export Plug-In . SVG Version: 6.00 Build 0)  -->
<svg version="1.1" id="Layer_1" xmlns="http://www.w3.org/2000/svg" xmlns:xlink="http://www.w3.org/1999/xlink" x="0px" y="0px"
	width="130px" height="130px" viewBox="0 0 404 477" style="enable-background:new 0 0 404 477;" xml:space="preserve">
<style type="text/css">
	.st0{fill:#010101;}
	.st1{fill:#070707;}
	.st2{fill:#606060;}
	.st3{fill:#5E5E5E;}
	.st4{fill:#F2F2F2;}
	.st5{fill:#C9C9C9;}
	.st6{fill:#F3F3F3;}
	.st7{fill:#777777;}
	.st8{fill:#D6D6D6;}
	.st9{fill:#D5D5D5;}
	.st10{fill:#292929;}
	.st11{fill:#D3D3D3;}
	.st12{fill:#D2D2D2;}
	.st13{fill:#F5F5F5;}
	.st14{fill:#FBFBFB;}
	.st15{fill:#0F0F0F;}
	.st16{fill:#FEFEFE;}
	.st17{fill:#BDBDBD;}
	.st18{fill:#595959;}
	.st19{fill:#282828;}
	.st20{fill:#FAFAFA;}
	.st21{fill:#494949;}
	.st22{fill:#4A4A4A;}
	.st23{fill:#535353;}
	.st24{fill:#151515;}
	.st25{fill:#484848;}
	.st26{fill:#DEDEDE;}
	.st27{fill:#808080;}
	.st28{fill:#4D4D4D;}
	.st29{fill:#4B4B4B;}
	.st30{fill:#737373;}
	.st31{fill:#888888;}
	.st32{fill:#3D3D3D;}
	.st33{fill:#161616;}
	.st34{fill:#4F4F4F;}
	.st35{fill:#DADADA;}
	.st36{fill:#BCBCBC;}
	.st37{fill:#222222;}
	.st38{fill:#C0C0C0;}
	.st39{fill:#2B2B2B;}
	.st40{fill:#101010;}
	.st41{fill:#F8F8F8;}
	.st42{fill:#8A8A8A;}
	.st43{fill:#555555;}
	.st44{fill:#666666;}
	.st45{fill:#616161;}
	.st46{fill:#2D2D2D;}
	.st47{fill:#1C1C1C;}
	.st48{fill:#313131;}
	.st49{fill:#E8E8E8;}
	.st50{fill:#181818;}
	.st51{fill:#030303;}
	.st52{fill:#838383;}
	.st53{fill:#1B1B1B;}
	.st54{fill:#F1F1F1;}
	.st55{fill:#2A2A2A;}
	.st56{fill:#B2B2B2;}
	.st57{fill:#E0E0E0;}
	.st58{fill:#373737;}
	.st59{fill:#212121;}
	.st60{fill:#0E0E0E;}
	.st61{fill:#020202;}
	.st62{fill:#A3A3A3;}
	.st63{fill:#969696;}
	.st64{fill:#A0A0A0;}
	.st65{fill:#6D6D6D;}
	.st66{fill:#171717;}
	.st67{fill:#B4B4B4;}
	.st68{fill:#EBEBEB;}
	.st69{fill:#050505;}
	.st70{fill:#6B6B6B;}
	.st71{fill:#E4E4E4;}
	.st72{fill:#0C0C0C;}
	.st73{fill:#404040;}
	.st74{fill:#0A0A0A;}
</style>
<g>
	<path class="st0" d="M304.32,391.25c-22.73,0-45.46,0-68.19,0.01c-1.13-1.08-2.03-2.3-2.71-3.65c-2.22-8.02-1.32-16.03,0.28-24.01
		c1.53-7.57,2.2-15.24,0.3-22.73c-2.69-10.61-0.29-20.56,3.85-30.26c3.5-8.21,1.51-14.77-5.23-20.71
		c-10.28-9.06-20.44-18.3-27.85-29.54c-10.03-15.21-12.68-30.86-1.39-46.71c8.33-12.11,5.9-23.05-2.06-34.97
		c-16.63-24.89-15.19-38.4,5.2-61.1c9.1-10.13,10.89-20.57,5.79-32.51c-8.35-19.52-12.69-39.25,4.2-56.75
		c4.27-4.43-11.29-10.68,2.05-10.71c4.68-0.01,4.12-4.47,9.55-4.05c25.26,1.99,53.52-3.82,65.48,25.77
		c1.72,4.27,4.27,7.67,8.33,10.56c4.94,3.51,6.26,8.91,6.26,14.5c0,6.55-8.86,7.48-9.69,9.03c-5.03,9.43-20.76,13.42-17.29,26.94
		c2.93,5.92-3.24,6.01-6.27,8.11c-4.63,8.3-11.34,12.74-22.18,10.64c-2.38-0.46-6.13-1.19-7.12,2.56c-0.75,2.85,0.27,5.37,2.97,6.95
		c6.34,3.73,9.74,9.67,14.02,14.96c1.55,0.43,2.3,1.41,2.35,2.86c9.76,23.99,18.93,48.12,21.81,73.79
		c3.21,7.37-1.49,15.7,3.37,22.86c13.96,7.77,26.37,17.27,37.72,27.95c0.36,3.12-0.95,5.11-4.54,5.54
		c-11.29-3.49-17.63-13.87-29.6-18.12c-1.56,7.51,0.38,13.74,2.63,20.09c4.78,13.52,4.13,26.41-6.23,38.02
		c-4.68,5.24-7.7,11.44-10.82,17.52c-11.38,22.18-7.53,31.19,17.23,40.77c6.6,2.55,15.29,3.81,10.78,13.66
		C306.37,389.47,305.36,390.38,304.32,391.25z"/>
	<path class="st0" d="M19.46,369.78c9.37-39.62,35.37-68.31,72.17-89.44c7.42-4.26,9.59-8.74,11.28-16.5
		c6.05-27.62,9.32-56.73,34.92-77.14c2.04-1.62,3.55-3.32,2.94-5.66c-1-3.8-4.74-2.46-7.27-2.37c-14.25,0.54-21.12-6.54-24.64-18.22
		c-2.29-7.63-9.6-14.88-15.72-16.76c-14.4-4.43-8.6-11.51-4.08-16.7c4.19-4.8,8.55-9.52,12.15-14.72
		c7.88-11.38,19.31-15.08,33.72-15.89c7.22-0.41,16.81,9.02,22.24-2.89c-0.6,6.32,13.93,2.4,9.34,11.41
		c-1.48,2.9,1.41,3.83,2.88,5.31c10.24,10.34,10.75,22.69,4.72,33.97c-8.43,15.75-6.32,28.14,8.15,39.37
		c2.91,2.26,4.74,5.69,7.06,8.58c1.45,12.07,2.4,24.06-3,35.71c-2.14,4.63-2.86,9.79-0.81,14.53c11.4,26.36-2.71,45.82-22.41,62.03
		c-12.02,9.89-19.62,18.42-10.78,32.82c0.46,0.76,0.76,1.8,0.57,2.62c-3.69,15.98,0.6,31.95-0.03,47.93
		c-0.68,1.3-1.57,2.47-2.66,3.51c-19.78-0.01-39.57-0.02-59.35-0.02c-1.91-0.81-3.86-1.56-5.24-3.11c-3.13-6.43,2.68-7.75,6.96-9.4
		c4.98-1.92,10.03-3.58,14.59-6.36c8.2-4.99,10.44-11.33,6.55-19.69c-2.52-5.42-5.61-10.53-9.69-15.01
		c-11.46-12.58-17.59-25.89-8.5-41.88c0.66-1.16,0.73-2.6,0.33-3.93c-0.11-0.37-0.52-0.68-1.68-2.11
		c-15.04,8.55-26.61,20.58-37.83,32.7c-10.17,10.98-18.15,23.34-23.96,36.84c-2.25,5.23-3.18,11.54-10,14.25
		C19.92,373.23,18.21,372.44,19.46,369.78z"/>
	<path class="st1" d="M340.33,296.38c-5.2-6.62-10.4-13.23-15.6-19.85c1.05-1.83,2.11-3.66,3.16-5.48
		c25.95,21.18,40.57,48.46,50.81,78.11c0.87,2.51,2,4.95,3.01,7.42c2.51,2.5,0.07,6.15,2.42,8.68c-0.11,1.63-0.22,3.26-0.33,4.89
		c-0.78,1.17-0.95,2.76-2.72,3.25c-9.93-24.39-18.06-49.53-35.75-70.67C342.23,301.56,340.71,299.34,340.33,296.38z"/>
	<path class="st2" d="M68.87,465.16c87.64,0,175.28,0,262.93,0c0,0.46,0,0.91,0,1.37c-87.52,0-175.04,0-262.56,0
		C69.12,466.07,69,465.61,68.87,465.16z"/>
	<path class="st3" d="M230.21,431.65c-70.4,0-140.79,0-211.19,0c0-0.64-0.01-1.28-0.01-1.91c70.4,0,140.8,0,211.2,0
		c0.97,0.43,1.29,0.85,0.97,1.28C230.86,431.44,230.54,431.65,230.21,431.65z"/>
	<path class="st3" d="M230.21,431.65c0-0.64,0-1.28,0-1.91c50.71,0,101.43,0,152.14,0c0.01,0.64,0.01,1.28,0.02,1.91
		C331.65,431.65,280.93,431.65,230.21,431.65z"/>
	<path class="st4" d="M262.94,456.38c-3.39,1.45-6.32,2.1-6.11-2.84c-3.24-3.93,1.18-10.56-5.63-13.23
		c-1.97,0.88-3.95,1.76-5.92,2.65c-3.4,0.3-6.31-0.8-8.94-2.66c-2.95,0.96-5.9,1.93-8.85,2.89l-0.47-0.41
		c5.23-4.65,34.9-7.83,39.41-3.86c4.52,3.97,1.74,9.32,2.18,14.07c-0.48,0.44-0.96,0.88-1.44,1.33c-4.35-2.1-2.47-5.64-2.51-8.84
		C263,449,266.05,453.12,262.94,456.38z"/>
	<path class="st5" d="M342.83,421.44c-6.38,2.9-13.36,1.81-16.85-2.66c-3.18-4.07,1.56-9.44,4.73-13.06
		c4.95-5.65,8.13-2.87,9.45,2.99c2.95,2.66,3.38,6.21,4.13,9.65C344.34,419.6,343.85,420.62,342.83,421.44z"/>
	<path d="M150.43,388.4c28.46-0.07,56.92-0.13,85.39-0.2c0.11,1.02,0.21,2.04,0.32,3.06c-28.65,0.01-57.3,0.02-85.95,0.03
		C150.27,390.32,150.35,389.36,150.43,388.4z"/>
	<path d="M304.38,388.83c26.91,0,53.82,0.01,80.73,0.01c-1.72,4-5.6,2.9-8.8,2.89c-24-0.09-47.99-0.31-71.99-0.48
		C304.34,390.44,304.36,389.64,304.38,388.83z"/>
	<path class="st6" d="M221.11,418.24c-5.47,11.81-15.35,4.45-23.53,4.48c-1.48-1.55-2.68-3.23-3.05-5.31
		c-0.33-2.04-0.22-4.06,0.24-6.07c0.78-2.74,2.26-4.99,5.29-6.12c2.19-0.9,4.38-1.8,6.57-2.69c3.69,3.38,3.2,7.92,4.13,12.04
		C212.99,418.66,217.85,416.62,221.11,418.24z"/>
	<path d="M87.31,388.76c1.18,0.83,2.35,1.67,3.53,2.5c-24.59-0.01-49.18-0.01-73.77-0.02c-0.39-3.33,2.35-4.17,4.93-5.16
		C43.84,385.32,65.86,381.38,87.31,388.76z"/>
	<path class="st7" d="M288.82,419.59c-5.21,1.15-8.99,0.36-8.41-5.43c0.33-3.39,0.74-9.06,4.78-8.14c4.72,1.08,11.16,3.74,12.26,8.9
		C297.93,417.16,294.8,422.81,288.82,419.59z"/>
	<path class="st8" d="M309.96,442.88c4.78-2.29,9.63-4.87,12.25,2.31c0.72,3.78,2.92,7.59-0.25,11.3
		c-5.29-0.02-9.61-2.13-13.46-5.23c-4.06-1.33-1.59-3.63-1.03-5.65C308.31,444.7,309.14,443.79,309.96,442.88z"/>
	<path class="st9" d="M198.34,442.8c3.75-1.94,7.53-3.02,11.45-0.36c2.68,1.76,4.44,3.83,2.95,7.04c-3.81,3.88-8.04,6.76-14.24,4.96
		C195.19,450.6,194.69,446.72,198.34,442.8z"/>
	<path class="st10" d="M221.11,418.24c-4.63,2.36-9.18,7.18-14.14,0.42c1.96-3.35,0.68-6.99,1.1-10.48
		c0.49-4.04,3.26-3.65,6.32-2.78c3.11,1.42,5.37,3.64,7.11,6.33c0.55,1.17,0.44,2.3-0.34,3.37
		C221.15,416.15,221.13,417.19,221.11,418.24z"/>
	<path class="st11" d="M363.47,415.41c4.26-1.37,0.29-9.91,8.34-7.96c5.64,1.37,7.5,4.9,6.65,9.91l-1.2,0.24l1.23,0.07
		c-3.05,6.17-7.51,0.52-11.22,1.11C364.98,418.62,363.72,417.48,363.47,415.41z"/>
	<path class="st12" d="M159.6,442.83c2.88-0.82,5.76-1.64,8.64-2.46c5.77,4.12,3.13,8.25,0.01,12.38c-1.61,4.7-6.92,1.05-9.53,3.49
		C155.14,451.56,154.51,447.04,159.6,442.83z"/>
	<path class="st13" d="M132.44,453.85c0.3,1.77,2.67,4.43-1.07,4.83c-4.26,0.45-4.92-2.89-5.3-5.92c-3.28-2.51-1.81-7.25-5.42-9.61
		c2.86-8.92,8.75-6.23,14.73-3.18C134.32,444.59,130.24,448.67,132.44,453.85z"/>
	<path class="st14" d="M380.81,436.9c-14.56,0-29.12,0-43.68,0c0-0.45,0-0.9-0.01-1.35c14.49,0,28.98,0,43.47,0
		C380.66,436,380.73,436.45,380.81,436.9z"/>
	<path class="st0" d="M60.52,418.43c0.1-5.24,0.2-10.49,0.29-15.73c0.81-6.22,4.17-4.28,7.65-1.99c2.84,4.34,2.37,9.29,3.13,14.02
		c0.03,1.42-0.52,2.64-1.62,3.66l0.28,0.38C66.85,422.35,63.47,425.52,60.52,418.43z"/>
	<path class="st6" d="M170.9,421.45c-6.7,4.78-13.72,3.19-20.78,0.86c0.21-1.26,0.56-2.5,1.04-3.7c3.11-5.04,0.02-11.72,5.14-16.23
		c0.97-0.02,1.93,0.02,2.89,0.13c0.87,0.83,1.59,1.76,2.18,2.77c1.2,3.05,0.81,6.42,2.27,9.4c0.71,0.73,1.42,1.46,2.2,2.12
		c1.78,1.16,4.29,0.65,5.94,2.12C172.27,419.99,171.97,420.84,170.9,421.45z"/>
	<path class="st5" d="M197.66,416.03c-0.02,2.23-0.05,4.45-0.07,6.68c-7.7,1.96-14.96,2.99-17.31-6.63
		c-3.02-2.83-3.07-5.62,0.12-8.37c0.94-0.99,1.88-1.98,2.82-2.97c1.29-0.54,2.47-0.38,3.56,0.45c2.52,2.81,1.29,6.86,3.94,9.55
		C193.11,414.96,195.76,413.94,197.66,416.03z"/>
	<path class="st15" d="M25.46,421.64c-12.01-5.98-12.41-12.97-1.27-22.87c0.37,8.09-5.19,15.88,4.31,20.03
		C29.25,421.31,28.55,422.54,25.46,421.64z"/>
	<path class="st14" d="M64.09,436.88c-13.58,0-27.15,0-40.73,0c-0.01-0.39-0.02-0.79-0.02-1.18c13.58,0,27.15,0,40.73,0
		C64.08,436.09,64.08,436.49,64.09,436.88z"/>
	<path class="st16" d="M298.34,453.71c-1.77,0-3.53,0.01-5.3,0.01c-3.62-4.3-2.17-8.86-0.81-13.41c4.6-0.57,8.63,0.95,12.58,2.8
		C304.89,447.78,306.21,453.07,298.34,453.71z"/>
	<path class="st17" d="M315.16,423.81c-3.96,0.08-7.41-0.68-7.41-4.71c0-4.36,4.97-3.53,7.67-4.64c3.63-1.49,6.95,0.39,6.78,4.2
		C322.05,422.29,318.51,423.43,315.16,423.81z"/>
	<path class="st18" d="M168.25,452.75c-0.94-4.13,5.13-8.26-0.01-12.38c6.91-0.78,4.42,3.81,4.6,6.77c0.34,5.41,1.83,8.58,8,3.87
		l1.45-0.08C179.03,460.6,173.74,457.3,168.25,452.75z"/>
	<path class="st19" d="M221.17,415.1l0.19-0.42c-3.26-8.79,0.74-9.84,8.65-6.71c0.18,0.85,0.72,1.8,0.47,2.52
		c-1.19,3.48,5.93,7.42,0.15,10.08C225.65,422.87,225.22,415.79,221.17,415.1z"/>
	<path class="st20" d="M357.57,445.91c-2.97-6.26,1.18-4.51,5.19-4.27c5.58,0.33,5.12,5.24,4.43,6.58
		c-2.72,5.32-6.42,2.92-9.63-0.17c-0.98-0.47-1.31-0.95-0.98-1.42C356.91,446.15,357.24,445.91,357.57,445.91z"/>
	<path class="st21" d="M236.34,440.29c3.15,0.41,7.19-1.66,8.94,2.66c-3.32,3.89,0.38,9.08-3.28,15.77
		C239.25,451.06,242.01,444.33,236.34,440.29z"/>
	<path class="st22" d="M153.54,421.44c-1.14,0.29-2.28,0.58-3.42,0.87c-9.06-7.63,0.38-13.23,2.59-19.63
		C156.23,408.82,154.62,415.14,153.54,421.44z"/>
	<path class="st23" d="M268.61,452.97c12.3,1.22,2.94-8.74,7.88-11.58c6.86,2.62,4.94,8.97,3.54,13c-1.57,4.51-7.51,1.15-11.5,1.5
		c0.09-0.55,0.18-1.1,0.27-1.65l-0.66-0.57L268.61,452.97z"/>
	<path class="st24" d="M117.34,405.25c2.78,4.58,5.56,9.16,8.34,13.73c1.57,3.3-1.09,3.44-3.39,3.58c-3.14,0.2-5.55-0.74-6.06-3.96
		c0.87-4.17-5.6-3.78-5.59-7.42C111.97,408.36,112.08,404.4,117.34,405.25z"/>
	<path class="st25" d="M69.96,418.38c-0.21-0.79-0.14-1.56,0.2-2.3c-3.17-4.53-0.67-8.64,1.17-12.8c0.99-1.05,2.24-1.51,3.75-1.39
		c3.38,1.82,2.51,4.25,1.16,6.75C76.87,413.34,86.24,422.71,69.96,418.38z"/>
	<path class="st26" d="M149.87,440.38c2.14-0.02,4.29-0.04,6.43-0.06c1.95,5.34,1.94,10.67,0.01,16.01
		c-2.09,0.01-4.18,0.02-6.28,0.03C147.83,451.05,148.23,445.72,149.87,440.38z"/>
	<path class="st22" d="M20.21,388.67c-1.05,0.86-2.1,1.71-3.14,2.57c-5.43-7.73-0.48-14.49,2.39-21.46
		c1.01,0.97,2.02,1.95,3.03,2.92C26.82,378.63,23.8,383.68,20.21,388.67z"/>
	<path class="st27" d="M298.34,453.71c4.99-2.1,3.04-7.7,6.47-10.59c0.64,0.14,1.28,0.15,1.92,0.01c1.34,0.42,2.34,1.36,3.56,1.95
		c-0.6,2.06-1.19,4.12-1.79,6.18C306.67,457.4,303.57,459.21,298.34,453.71z"/>
	<path class="st28" d="M105.58,440.13c3.12,0.9,8.8-2.39,8.61,3.89c-0.1,3.45,2.38,8.69-5.06,8.9c-4-2.16-3.93-6.05-4.88-9.5
		C104.21,442.16,104.68,441.07,105.58,440.13z"/>
	<path class="st3" d="M185.7,405.17c-0.84-0.07-1.67-0.21-2.49-0.42c5.75-3.85,11.38-3.85,16.86,0.47
		c-0.92,1.77-1.85,3.54-2.77,5.31c-4.59,3.23-6.74-0.05-9.08-2.81C187.46,406.81,186.62,405.96,185.7,405.17z"/>
	<path class="st29" d="M215.83,407.82c-13.38-3.45-2.3,9.67-8.86,10.84c-0.11-5.38-0.22-10.76-0.33-16.14
		c3.86,0.11,7.73,0.22,11.59,0.33C220.46,405.72,220.31,407.64,215.83,407.82z"/>
	<path class="st30" d="M215.83,407.82c2.14-1.12,2.5-2.95,2.39-4.97c4.14,1.29,12.43-5.32,11.78,5.11
		c-6.64-1.76-7.91,2.19-8.65,6.71C219.52,412.4,217.68,410.11,215.83,407.82z"/>
	<path class="st31" d="M67.45,402.63c-2.26-4-4.47-3.25-6.64,0.07c-2.2-2.38-3.43-5.19,1.42-5.25c5.57-0.07,11.85-2.4,16.6,2.5
		c-1.1,1.28-2.74,1.9-4.14,2.81l-0.96,0.03l-0.91-0.27C71.06,404.06,69.28,404.07,67.45,402.63z"/>
	<path class="st32" d="M117.34,405.25c-1.78,2.07-3.55,4.14-5.33,6.2c-1.22,0.32-2.26,0.08-3.11-0.8c-0.57-4.2-2.56-9.43,3.09-11.33
		C115.96,398,116.89,402.19,117.34,405.25z"/>
	<path class="st33" d="M108.91,410.65c1.03,0.26,2.07,0.53,3.11,0.79c1.77,1.69,3.54,3.37,5.3,5.06c-0.97,0.8-1.91,0.77-2.81-0.1
		c-2.99-0.16-6.68-2.61-8.18,2.08c-0.12,4.48-2.53,4.76-6.17,2.79C102.81,417.56,102.53,411.84,108.91,410.65z"/>
	<path class="st34" d="M268.67,410.74c2.2,4.26,3.65,8.36-2.73,10.82c-2.46,1.38-3.47-0.07-4.32-1.84
		c-0.33-3.51-2.03-7.22,1.71-10.17C265.39,408.91,267.24,409.04,268.67,410.74z"/>
	<path class="st17" d="M218.12,440.37c1.28,0.82,2.57,1.65,3.85,2.47c2.08,3.5,4.18,6.99,5.35,10.86c-2.19,3.22-5.58,3.1-9.07,2.67
		C214.22,451.06,214.19,445.73,218.12,440.37z"/>
	<path class="st35" d="M114.51,416.41c0.95-0.42,1.89-0.39,2.81,0.1c0.47,7.31,3.73,6.82,8.36,2.47c2.07,0.76,4.14,1.52,6.22,2.28
		c0.87,0.4,1.29,0.92,1.25,1.56c-0.04,0.7-0.17,1.05-0.4,1.05C126.28,422.18,114.98,430.25,114.51,416.41z"/>
	<path class="st36" d="M105.58,440.13c0.04,0.94,0.08,1.88,0.12,2.82c1.25,4.02,2.66,8.07-2.49,10.88
		c-1.22,0.82-2.43,1.63-3.65,2.45c-1.84-5.4-2.17-10.77,0.33-16.09C101.78,440.16,103.68,440.15,105.58,440.13z"/>
	<path class="st37" d="M180.39,407.71c-0.04,2.79-0.08,5.58-0.12,8.37c-1.93,3.52-5.46,4.72-9.38,5.37
		c0.34-0.87,0.69-1.74,1.03-2.61c0.06-4.73,0.31-9.45,1.51-14.09c1.27-0.69,2.45-0.57,3.52,0.35
		C178.1,405.97,179.25,406.84,180.39,407.71z"/>
	<path class="st38" d="M342.83,421.44c-0.02-0.77-0.02-1.54,0-2.31c0.36-3.49-0.77-7.31,2.68-10.13c0.69-0.76,1.38-1.51,2.07-2.27
		c0.45,0.6,0.9,1.2,1.36,1.81c4.2,3.61-1.06,8.87,2.63,12.57C348.89,426.28,345.75,421.39,342.83,421.44z"/>
	<path class="st13" d="M227.33,453.7c-5.8-1.98-6.93-5.87-5.36-10.86c1.69-0.02,3.37-0.05,5.05-0.07c0,0,0.46,0.41,0.46,0.41
		C226.27,446.67,232.66,450.26,227.33,453.7z"/>
	<path class="st39" d="M132.44,453.85c-2.92-5.31-9.09-11.19,2.94-13.88c1.6,1.16,3.2,2.33,4.81,3.49
		c-1.57,1.56-3.64,2.75-4.36,4.94C134.69,450.22,133.57,452.03,132.44,453.85z"/>
	<path class="st40" d="M149.87,440.38c0.06,5.33,0.11,10.65,0.17,15.98c-2.91-0.61-10.18,1.91-3.9-5.06
		C148.75,448.39,142.85,442.48,149.87,440.38z"/>
	<path class="st41" d="M264.99,146.45c-0.78-0.95-1.57-1.91-2.35-2.86"/>
	<path class="st1" d="M290.17,243.1c-7.34-6.86-2.25-15.23-3.37-22.86C291.54,227.42,287.84,235.63,290.17,243.1z"/>
	<path class="st42" d="M120.64,443.15c9.27-0.28,4.59,5.95,5.42,9.61C116.34,453.26,122.12,446.51,120.64,443.15z"/>
	<path class="st43" d="M182.29,450.93l-1.45,0.08c-1.28-3.39-1.79-6.78,0.65-11.11C186.07,443.77,185.42,447.22,182.29,450.93z"/>
	<path class="st44" d="M45.32,446.27c6.61,0,13.22,0,23.33,0C58.57,449.17,51.94,448.63,45.32,446.27z"/>
	<path class="st45" d="M357.57,445.91c0.13,0.71,0.13,1.42,0,2.14c-7.15,0-14.3,0-21.44,0C343.1,444.65,350.38,445.84,357.57,445.91
		z"/>
	<path class="st46" d="M351.58,421.11c-5.31-3.42-0.56-8.59-2.63-12.57c4.74-1.76,6.18,2.36,8.93,4.16l0.26-0.29
		C350.81,412.1,352.33,417.32,351.58,421.11z"/>
	<path class="st47" d="M345.52,409c-0.47,3.47,1.53,7.48-2.68,10.13c-4.34-2.74-0.59-7.2-2.68-10.42
		C341.94,408.81,343.73,408.9,345.52,409z"/>
	<path class="st48" d="M132.75,423.87c-0.28-0.87-0.57-1.74-0.85-2.61c4.04-3.37,2.93-8.64,3.59-10.06
		C132.66,412.94,145.87,421.82,132.75,423.87z"/>
	<path class="st49" d="M262.92,410.6c-2.97,3.08,4.65,5.58,0.57,8.71c-2.63,1.11-4.99,1.08-6.76-1.35c-0.74-1.9-1.48-3.8-2.22-5.7
		c1.39-1.71,2.93-3.19,5.53-3.16C261.19,409.29,262.16,409.77,262.92,410.6z"/>
	<path class="st50" d="M99.89,440.18c-0.11,5.36-0.22,10.73-0.33,16.09c-2.34-0.04-5.88,0.78-6.79-0.28
		c-2.79-3.26,2.13-2.04,3.15-3.35C98.87,448.85,92.93,442.8,99.89,440.18z"/>
	<path class="st51" d="M292.23,440.32c0.27,4.47,0.54,8.94,0.81,13.41c-1.58,2.2-6.27,2.6-5.26,1.28
		C291.38,450.29,285.61,443.66,292.23,440.32z"/>
	<path class="st16" d="M384.14,365.27c-2.58-2.48-2.72-5.53-2.42-8.68c1.73-1.18,3.93-3.65,5.09-3.29c3.08,0.93,1.62,3.02,0.34,5.03
		C385.79,360.44,385.11,362.93,384.14,365.27z"/>
	<path class="st52" d="M25.46,421.64c1.01-0.95,2.02-1.89,3.04-2.84c2.85-0.17,5.69-0.33,8.54-0.5c1.55,0.94,1.73,2.06,0.52,3.35
		C33.52,425.25,29.48,424.34,25.46,421.64z"/>
	<path class="st1" d="M268.8,454.25c-0.29,0.52-0.38,1.07-0.27,1.65c-1.86,0.16-3.73,0.32-5.59,0.48c0-5.18,0-10.35,0-16.58
		C269.13,444.31,262.48,451.21,268.8,454.25z"/>
	<path class="st53" d="M198.34,442.8c0.13,3.89-2.07,8.09,1.85,11.48c0.03,0.54,0.07,1.08,0.1,1.62c-11.82-1.92-3.51-9.8-5.25-14.7
		c0.48-0.05,1.12-0.29,1.42-0.1C197.18,441.56,197.72,442.22,198.34,442.8z"/>
	<path class="st54" d="M262.92,410.6c0,0-0.99-0.06-0.99-0.06l-0.98,0.16c-3.3-1.2-2.74-3.23-1.39-5.42c6.44-2.89,9-0.42,9.12,5.45
		C266.75,410.69,264.83,410.65,262.92,410.6z"/>
	<path class="st26" d="M211.81,449.35c-0.68-2.3-1.35-4.6-2.02-6.9c1.95-0.71,3.89-1.41,5.84-2.12c1.88,5.33,1.88,10.66,0,15.99
		c-1.18-1.19-2.37-2.39-3.55-3.58C211.25,451.66,211.2,450.53,211.81,449.35z"/>
	<path class="st55" d="M363.47,415.41c1.27,1.12,2.53,2.25,3.8,3.37c-0.89,1.37-2.45,3.98-2.58,3.92c-4.63-2.05-6.71-5.6-6.57-10.27
		c0.01-0.02-0.28,0.31-0.26,0.29C359.28,414.39,360.79,415.9,363.47,415.41z"/>
	<path class="st16" d="M103.2,453.83c2.81-3.25,1.81-7.23,2.49-10.88c5.78,2,2.35,6.63,3.43,9.97
		C107.75,456.42,105.36,454.52,103.2,453.83z"/>
	<path class="st56" d="M135.82,448.4c-3.17-0.67-3.74-3.03-2.22-4.77c1.5-1.72,4.33-1.29,6.59-0.16c2.32,1.89,1.81,4.16,0.21,5.88
		C138.78,451.09,137.01,450.11,135.82,448.4z"/>
	<path class="st57" d="M153.54,421.44c-0.28-6.25-0.55-12.5-0.83-18.75c1.19-0.1,2.39-0.2,3.59-0.3
		C154.97,408.69,158.43,415.56,153.54,421.44z"/>
	<path class="st58" d="M321.96,456.49c1.05-3.75-2.88-7.59,0.25-11.3c1.73-0.13,3.46-0.26,5.19-0.39
		C323.71,447.97,329.54,454.81,321.96,456.49z"/>
	<path class="st59" d="M251.19,440.3c11.27,1.1,3.09,9.06,5.63,13.23C250.83,450.58,255.38,443.9,251.19,440.3z"/>
	<path class="st60" d="M37.55,421.66c-0.17-1.12-0.35-2.24-0.52-3.35c0.44-0.7,0.49-1.43,0.15-2.18c-0.32-1.98,0.4-3.52,2.69-3.74
		c2.91-0.28,4.44,1.08,4.22,3.84C44.28,420.39,42.13,422.24,37.55,421.66z"/>
	<path class="st61" d="M215.63,456.32c0-5.33,0-10.66,0-15.99c0.83-0.14,1.67-0.13,2.5,0.03c0.04,5.33,0.09,10.67,0.13,16
		l-1.32,0.07L215.63,456.32z"/>
	<path class="st62" d="M60.52,418.43c3,6.02,6.47,0.54,9.73,0.34c0.11,6.08-4.76,5.45-8.71,4.79
		C57.89,422.93,57.4,420.72,60.52,418.43z"/>
	<path class="st63" d="M44.1,416.22c-2.24-3.69-4.54-4.08-6.91-0.1c-3.13-3.19-3.04-5.35,2.33-5.27
		C43.23,410.9,47.88,410.7,44.1,416.22z"/>
	<path class="st64" d="M256.72,417.97c2.25,0.45,4.51,0.9,6.76,1.35c0.82,0.75,1.64,1.5,2.45,2.25c-3.33,3.37-6.89,2.79-10.27,0.23
		C253.51,420.16,254.74,418.88,256.72,417.97z"/>
	<path class="st51" d="M156.31,456.33c0-5.34-0.01-10.68-0.01-16.01c1.1,0.84,2.2,1.67,3.29,2.51c-0.29,4.47-0.59,8.94-0.88,13.41
		l-1.2,0.16L156.31,456.33z"/>
	<path class="st65" d="M211.81,449.35c0.09,1.13,0.18,2.26,0.26,3.39c-3.39,2.73-6.92,5-11.78,3.16c-0.16-0.53-0.2-1.07-0.1-1.62
		C205.37,455.19,207.48,450.11,211.81,449.35z"/>
	<path class="st3" d="M176.96,405.1c-1.07,0.03-2.14,0.06-3.21,0.09c-1.85,2.1-4.41,2.59-7.17,2.69c-1.35-0.01-2.67-0.19-3.97-0.54
		c-1.2-0.54-2.28-1.25-3.25-2.11c-0.06-0.9-0.12-1.81-0.18-2.71C165.13,403.29,171.78,400.01,176.96,405.1z"/>
	<path class="st66" d="M74.68,402.75c-1.57-4.54,2.58-2.1,4.14-2.81c2.75,3.79,2.26,6.78-2.58,8.7
		C75.73,406.68,75.21,404.71,74.68,402.75z"/>
	<path class="st67" d="M100.16,421.29c2.55-0.03,5.43,0.56,6.17-2.79c1.61,1.24,2.63,3.16,1.1,4.41c-2.22,1.82-5.24,1.62-7.97,0.39
		c-0.27-0.12-0.47-0.82-0.34-1.14C99.26,421.8,99.79,421.57,100.16,421.29z"/>
	<path class="st43" d="M259.56,405.29c0.46,1.81,0.92,3.61,1.39,5.42c-2.14,0.52-4.29,1.04-6.44,1.56
		C253.32,408.23,253.13,404.78,259.56,405.29z"/>
	<path class="st68" d="M274.95,108.48"/>
	<path class="st1" d="M381.09,373.41c0.91-1.08,1.81-2.17,2.72-3.25c0.73,4.54,1.46,9.07,2.19,13.61
		C380.87,381.68,380.82,377.61,381.09,373.41z"/>
	<path class="st16" d="M310.29,445.08c-2.15,0.8-2.99-0.37-3.56-1.95c1.08-0.08,2.16-0.17,3.24-0.25
		C310.02,443.62,310.13,444.35,310.29,445.08z"/>
	<path class="st16" d="M378.49,417.67c-0.41,0.03-0.82,0.07-1.23,0.1c0.4-0.14,0.8-0.29,1.21-0.42
		C378.46,417.36,378.49,417.67,378.49,417.67z"/>
	<path class="st69" d="M239.46,121c-0.38-7.87,0.21-12.4,10.13-9.69C246.12,114.62,243.4,117.23,239.46,121z"/>
	<path class="st69" d="M257.69,19.29c3.9,0.29,7.81,0.58,13.36,0.99C264.87,26.74,260.95,21.56,257.69,19.29z"/>
	<path class="st69" d="M107.18,273.78c-3.53-5.82,1.63-9.51,2.75-13.9C112.37,264.89,111.7,269.36,107.18,273.78z"/>
	<path class="st69" d="M175.2,231.69c-2.14-6.95-0.36-11.03,6.78-16.14C179.24,222.07,177.52,226.16,175.2,231.69z"/>
	<path class="st69" d="M101.48,126.98c-0.78,2.76-2.79,3-4.7,2.85c-1.07-0.08-2.07-0.97-3.1-1.5c1.58-0.93,3.06-2.13,4.79-2.65
		C99.27,125.45,100.55,126.55,101.48,126.98z"/>
	<path class="st13" d="M340.33,296.38"/>
	<path class="st70" d="M188.52,405.21c3.33,1.22,4.18,5.83,8.78,5.32c0.12,1.83,0.24,3.67,0.36,5.5c-5.49-1.75-5.3,4.49-8.98,5.29
		C186.43,415.97,186.63,410.6,188.52,405.21z"/>
	<path class="st49" d="M67.45,402.63c1.79-0.04,3.57-0.08,5.36-0.12c3.03,5.15-6.6,8.26-2.65,13.57
		C64.91,412.32,67.92,407.19,67.45,402.63z"/>
	<path class="st71" d="M165.47,405.21c2.76-0.01,5.52-0.01,8.27-0.02c1.68,4.8,4.2,9.7-1.82,13.65c-2.35,0.24-4.84,2.75-6.99-0.36
		C161.43,413.94,161.11,409.5,165.47,405.21z"/>
	<path class="st72" d="M165.47,405.21c-0.18,4.42-0.35,8.85-0.53,13.27c-0.93-0.04-1.87-0.07-2.8-0.11
		c-2.36-4.38-2.4-8.76-0.01-13.14C163.25,405.23,164.36,405.22,165.47,405.21z"/>
	<path class="st73" d="M162.14,405.24c0,4.38,0.01,8.76,0.01,13.14c-5.97-3.5-1.72-8.79-2.77-13.15
		C160.29,405.13,161.21,405.13,162.14,405.24z"/>
	<path class="st74" d="M188.52,405.21c0.05,5.37,0.1,10.74,0.15,16.1c-6.6-4.53-1.12-10.9-2.97-16.15
		C186.65,405.08,187.59,405.1,188.52,405.21z"/>
</g>
</svg>
