<?xml version="1.0" encoding="utf-8"?>
<!-- Generator: Adobe Illustrator 26.2.1, SVG Export Plug-In . SVG Version: 6.00 Build 0)  -->
<svg version="1.0" id="Layer_1" xmlns="http://www.w3.org/2000/svg" xmlns:xlink="http://www.w3.org/1999/xlink" x="0px" y="0px"
	 viewBox="0 0 595.28 841.89" style="enable-background:new 0 0 595.28 841.89;" xml:space="preserve">
<g>
	<g>
		<path d="M75.69,239.42c13.12,1.65,26.16,3.93,39.06,6.82c11.66,2.61,23.62,5.29,34.68,9.9c9.96,4.15,18.66,10.51,24.01,20.04
			c5.27,9.39,7.21,20.36,7.49,31.01c0.34,13.37-1.67,26.65-2.29,39.98c-0.25,5.44-0.98,12.1,2.21,16.9
			c3.24,4.88,9.53,6.53,14.94,7.67c12.54,2.62,25.37,1.26,37.93-0.45c12.96-1.77,25.86-3.41,38.94-4.05
			c26.18-1.27,52.52,0.47,78.28,5.28c3.25,0.61,6.49,1.26,9.72,1.96c3.14,0.68,4.48-4.14,1.33-4.82c-25.88-5.6-52.4-8.23-78.87-7.76
			c-13.21,0.23-26.39,1.25-39.48,3.01c-12.62,1.69-25.33,4-38.11,3.15c-3.09-0.21-6.15-0.62-9.17-1.3c-2.71-0.6-5.57-1.29-8.04-2.61
			c-2.25-1.2-3.72-2.9-4.35-5.39c-0.68-2.66-0.52-5.51-0.44-8.24c0.36-13.3,2.4-26.5,2.45-39.81c0.04-11.21-1.51-22.55-6.1-32.86
			c-4.55-10.22-12.4-18.15-22.25-23.36c-10.26-5.42-21.73-8.3-32.93-11.05c-12.88-3.16-25.91-5.72-39.03-7.66
			c-3.32-0.49-6.64-0.94-9.97-1.36c-1.34-0.17-2.5,1.27-2.5,2.5C73.19,238.41,74.35,239.25,75.69,239.42L75.69,239.42z"/>
	</g>
</g>
<g>
	<g>
		<path d="M292.75,175.12c-1.07,21.11-1.89,43.43,8.57,62.57c4.34,7.95,10.62,15.1,18.57,19.58c7.56,4.26,16.49,5.83,25.05,4.54
			c8.87-1.34,16.6-6.25,21.5-13.76c2.61-4,4.38-8.55,5.68-13.13c1.44-5.04,2.75-10.47,2.81-15.73c0.05-5.56-2.14-10.55-5.01-15.21
			c-2.35-3.81-5.07-7.41-8.08-10.72c-6.04-6.65-13.36-12.22-21.33-16.36c-8.12-4.21-16.87-6.95-25.94-8.1
			c-4.21-0.53-8.68-0.89-12.91-0.38c-3.97,0.48-8.45,2.03-10.73,5.55c-1.1,1.71-1.33,3.76-0.81,5.7c0.83,3.11,5.66,1.79,4.82-1.33
			c-0.14-0.51-0.13-0.41-0.11-0.75c0.03-0.55,0.02-0.24,0-0.13c0.03-0.16,0.08-0.35,0.14-0.51c-0.11,0.31,0.05-0.08,0.07-0.12
			c0.08-0.15,0.18-0.31,0.28-0.46c-0.16,0.22,0.12-0.13,0.13-0.14c0.16-0.18,0.33-0.34,0.51-0.5c1.05-0.93,2.65-1.58,4.11-1.97
			c3.58-0.96,7.76-0.6,11.5-0.29c8.04,0.67,16.04,2.85,23.36,6.24c7.46,3.45,14.33,8.1,20.23,13.83c2.86,2.78,5.51,5.79,7.83,9.03
			c2.56,3.57,5.13,7.47,6.32,11.74c1.35,4.84,0.21,9.95-0.87,14.73c-0.96,4.26-2.16,8.53-4.08,12.47
			c-3.49,7.2-9.21,12.55-17.01,14.68c-7.18,1.96-15.14,1.24-21.94-1.74c-7.45-3.26-13.5-9.19-17.83-15.98
			c-10.54-16.54-11-36.67-10.21-55.65c0.11-2.57,0.24-5.14,0.37-7.7C297.91,171.9,292.91,171.91,292.75,175.12L292.75,175.12z"/>
	</g>
</g>
<g>
	<g>
		<path d="M200.25,145.97c3.09-6.69,10.18-10.03,16.52-12.98c7.54-3.52,15.34-6.47,23.3-8.9c15.92-4.86,32.46-7.56,49.1-8.02
			c16.6-0.46,33.26,1.26,49.38,5.31c13.4,3.37,26.44,8.76,37.78,16.72c10.68,7.49,19.86,17.73,24.06,30.25
			c0.53,1.57,0.97,3.16,1.35,4.76c0.74,3.13,5.56,1.8,4.82-1.33c-3.27-13.76-11.85-25.52-22.77-34.28
			c-11.31-9.07-24.68-15.37-38.54-19.47c-16.19-4.8-33.31-6.98-50.17-7.04c-17.29-0.06-34.63,2.24-51.3,6.81
			c-8.38,2.3-16.57,5.2-24.55,8.63c-7.08,3.04-15.09,6.3-20.22,12.3c-1.23,1.44-2.29,2.99-3.08,4.71c-0.57,1.23-0.35,2.69,0.9,3.42
			C197.91,147.5,199.68,147.2,200.25,145.97L200.25,145.97z"/>
	</g>
</g>
</svg>
